<svg xmlns="http://www.w3.org/2000/svg" viewBox="0 0 280 160"><title>confirmit</title><path d="M236.19,141.5a2.51,2.51,0,1,1,2.53-2.51,2.51,2.51,0,0,1-2.53,2.51Zm0-4.66a2.13,2.13,0,1,0,2.15,2.15,2.13,2.13,0,0,0-2.15-2.15Zm1.06,3.67H237a.15.15,0,0,1-.11,0l-.75-1.19h-.42v1.16a.15.15,0,0,1-.13.15h-.24a.13.13,0,0,1-.13-.13v-2.85c0-.13,0-.2.17-.2h.72c.77,0,1.23.24,1.23,1h0a.79.79,0,0,1-.62.84l.72,1.17h0a.11.11,0,0,1-.17.13Zm-.48-2.26c0-.37-.22-.51-.73-.51h-.33v1h.44c.53,0,.73-.15.73-.51Zm-208,3.69a14,14,0,0,1-10.11-4.11C14.89,134,15,129.77,15,122.36s0-11.67,3.67-15.45a14,14,0,0,1,10.11-4.11c7.08,0,12.39,4.17,13.73,11.84H36.56a8,8,0,0,0-13.47-4.28c-1.84,2.06-2.33,4.28-2.33,12s.44,9.95,2.33,12a7.69,7.69,0,0,0,5.67,2.33,7.78,7.78,0,0,0,7.85-6.62h5.89A13.29,13.29,0,0,1,28.78,141.94Zm38.1-3.25a11,11,0,0,1-8.22,3.25,11,11,0,0,1-8.17-3.25c-2.59-2.7-3.25-6.17-3.25-10.81s.64-8.06,3.25-10.75a11,11,0,0,1,8.17-3.25,11,11,0,0,1,8.22,3.25c2.59,2.7,3.25,6.17,3.25,10.75S69.48,136,66.88,138.69Zm-4.17-18.35a6,6,0,0,0-8.06,0c-1.67,1.67-1.84,4.53-1.84,7.51s.22,5.84,1.84,7.51a5.51,5.51,0,0,0,4,1.61,5.63,5.63,0,0,0,4.06-1.61c1.67-1.67,1.84-4.53,1.84-7.51s-.15-5.8-1.82-7.49Zm30.52,21.27v-16.7c0-4.28-2.44-6.11-5.51-6.11a5.51,5.51,0,0,0-5.67,6.11v16.7H76.55v-27.4H82V117a9.8,9.8,0,0,1,7.34-3.08,9.51,9.51,0,0,1,6.75,2.5,10.06,10.06,0,0,1,2.75,7.73v17.51Zm19.29-22.7v22.7H107v-22.7h-3.14v-4.22H107v-4.22a7.14,7.14,0,0,1,7.58-7.62h3.47v4.7h-2.44a2.79,2.79,0,0,0-3,3.19v3.95h5.51v4.22Zm10.28,22.7v-27.4h5.51v27.4Zm28.26-21a5.08,5.08,0,0,0-4.11-1.84,5.63,5.63,0,0,0-5.53,5.74q0,.22,0,.43v16.64h-5.51v-27.4h5.41v3a9.18,9.18,0,0,1,7.34-3.3,8.48,8.48,0,0,1,6.53,2.59Zm41,21v-16.7c0-4.28-2.44-6.11-5.51-6.11a5.51,5.51,0,0,0-5.69,5.31q0,.22,0,.45v17h-5.51v-16.7c0-4.28-2.44-6.11-5.51-6.11a5.51,5.51,0,0,0-5.69,6.18v16.7h-5.51v-27.4H164V117a9.93,9.93,0,0,1,7.34-3.08,8.75,8.75,0,0,1,7.78,4,10.42,10.42,0,0,1,8.59-4,9.93,9.93,0,0,1,6.92,2.5,10.18,10.18,0,0,1,2.92,7.73v17.51Zm12.92,0v-27.4h5.51v27.4Zm21.36,0a7.14,7.14,0,0,1-7.51-7.62V118.91h-3.14v-4.22h3.14v-8.31h5.51v8.33h5.3v4.22h-5.3v14.81a2.79,2.79,0,0,0,3,3.19h2.28v4.7ZM253.84,24.75c-7.34-4.84-18.35-6.72-32.76-6.7s-25.49,1.84-32.76,6.7-11,12.53-11.1,25.32a34.38,34.38,0,0,0,.17,4.18c1.27,0,2.55-.11,3.91-.11,8.2,0,14.68,1,19.43,4.09s7.23,8.44,7.19,16a25.69,25.69,0,0,1-.86,7.08,116,116,0,0,0,14.06.75c14.39,0,25.49-1.84,32.76-6.7s11-12.53,11.12-25.32S261.09,29.59,253.84,24.75ZM199.26,60.63c-3.89-2.61-10-3.67-18-3.67h-3.67c1.21,8.72,4.83,14.42,10.64,18.35a40.08,40.08,0,0,0,16,5.51,23.64,23.64,0,0,0,.88-6.72C205.15,67.21,203.14,63.21,199.26,60.63ZM186.88,77.77a42,42,0,0,0,16.33,5.85,12.15,12.15,0,0,1-3.93,4.22c-3.89,2.61-10,3.67-18,3.67s-14.09-1-18-3.67-5.89-6.59-5.93-13.62,2.07-11,5.93-13.62A25.21,25.21,0,0,1,175,57.23C176.25,66.72,180.31,73.45,186.88,77.77Zm27.47,21.1a4.28,4.28,0,0,0-1.71-4,14.85,14.85,0,0,0-11.27,0,5.51,5.51,0,0,0-.22,7.78l.22.22a14.88,14.88,0,0,0,11.27,0A4.28,4.28,0,0,0,214.35,98.87Z"/></svg>