<svg id="logos" xmlns="http://www.w3.org/2000/svg" viewBox="0 0 270 150"><defs><style>.cls-1{fill:#303030;}</style></defs><title>client_confirmit</title><path class="cls-1" d="M189.26,106.23a1.37,1.37,0,1,1,1.38-1.37A1.37,1.37,0,0,1,189.26,106.23Zm0-2.54a1.16,1.16,0,1,0,1.17,1.17A1.16,1.16,0,0,0,189.26,103.69Zm.58,2h-.14a.08.08,0,0,1-.06,0l-.41-.65H189v.63a.08.08,0,0,1-.07.08h-.13a.07.07,0,0,1-.07-.08v-1.54c0-.07,0-.11.09-.11l.39,0c.42,0,.67.13.67.52v0a.43.43,0,0,1-.34.46l.39.64a.13.13,0,0,1,0,0A.06.06,0,0,1,189.84,105.71Zm-.26-1.23c0-.2-.12-.28-.4-.28H189v.57h.24c.29,0,.4-.08.4-.28Z"/><path class="cls-1" d="M76.24,106.47a7.6,7.6,0,0,1-5.51-2.24c-2.06-2.06-2-4.39-2-8.43s0-6.36,2-8.42a7.6,7.6,0,0,1,5.51-2.24c3.86,0,6.75,2.27,7.48,6.45H80.48a4.34,4.34,0,0,0-7.34-2.33c-1,1.12-1.27,2.33-1.27,6.54s.24,5.42,1.27,6.54a4.19,4.19,0,0,0,3.09,1.27A4.24,4.24,0,0,0,80.51,100h3.21A7.24,7.24,0,0,1,76.24,106.47Z"/><path class="cls-1" d="M97,104.7a6,6,0,0,1-4.48,1.77,6,6,0,0,1-4.45-1.77c-1.41-1.47-1.77-3.36-1.77-5.89s.35-4.39,1.77-5.86a6,6,0,0,1,4.45-1.77A6,6,0,0,1,97,92.95c1.41,1.47,1.77,3.36,1.77,5.86S98.42,103.23,97,104.7Zm-2.27-10a3,3,0,0,0-2.21-.85,3,3,0,0,0-2.18.85c-.91.91-1,2.47-1,4.09s.12,3.18,1,4.09a3,3,0,0,0,2.18.88,3.07,3.07,0,0,0,2.21-.88c.91-.91,1-2.47,1-4.09S95.65,95.63,94.74,94.71Z"/><path class="cls-1" d="M111.36,106.29v-9.1c0-2.33-1.33-3.33-3-3.33a3,3,0,0,0-3.09,3.33v9.1h-3V91.36h2.95v1.5a5.34,5.34,0,0,1,4-1.68,5.18,5.18,0,0,1,3.68,1.36,5.48,5.48,0,0,1,1.5,4.21v9.54Z"/><path class="cls-1" d="M121.87,93.92v12.37h-3V93.92h-1.71v-2.3h1.71v-2.3A3.89,3.89,0,0,1,123,85.17h1.89v2.56h-1.33a1.52,1.52,0,0,0-1.65,1.74v2.15h3v2.3Z"/><path class="cls-1" d="M127.47,106.29V91.36h3v14.93Z"/><path class="cls-1" d="M142.87,94.86a2.77,2.77,0,0,0-2.24-1,3.07,3.07,0,0,0-3,3.36v9.07h-3V91.36h2.95V93a5,5,0,0,1,4-1.8,4.62,4.62,0,0,1,3.56,1.41Z"/><path class="cls-1" d="M165.2,106.29v-9.1c0-2.33-1.33-3.33-3-3.33A3,3,0,0,0,159.1,97v9.25h-3v-9.1c0-2.33-1.33-3.33-3-3.33A3,3,0,0,0,150,97.19v9.1h-3V91.36h2.95v1.5a5.41,5.41,0,0,1,4-1.68,4.77,4.77,0,0,1,4.24,2.18,5.68,5.68,0,0,1,4.68-2.18,5.41,5.41,0,0,1,3.77,1.36,5.55,5.55,0,0,1,1.59,4.21v9.54Z"/><path class="cls-1" d="M172.24,106.29V91.36h3v14.93Z"/><path class="cls-1" d="M183.88,106.29a3.89,3.89,0,0,1-4.09-4.15V93.92h-1.71v-2.3h1.71V87.09h3v4.54h2.89v2.3h-2.89V102a1.52,1.52,0,0,0,1.65,1.74h1.24v2.56Z"/><path class="cls-1" d="M198.88,42.61c-4-2.64-10-3.66-17.85-3.65s-13.89,1-17.85,3.65-6,6.83-6.05,13.8c0,.8,0,1.55.09,2.28.69,0,1.39-.06,2.13-.06,4.47,0,8,.54,10.59,2.23s3.94,4.6,3.92,8.73a14,14,0,0,1-.47,3.86,63.23,63.23,0,0,0,7.66.41c7.84,0,13.89-1,17.85-3.65s6-6.83,6.06-13.8S202.83,45.25,198.88,42.61ZM169.14,62.16c-2.12-1.42-5.44-2-9.8-2-.68,0-1.33,0-2,0,.66,4.75,2.63,7.86,5.8,10a21.84,21.84,0,0,0,8.72,3,12.88,12.88,0,0,0,.48-3.66C172.35,65.75,171.25,63.57,169.14,62.16Z"/><path class="cls-1" d="M162.39,71.5a22.9,22.9,0,0,0,8.9,3.19,6.62,6.62,0,0,1-2.14,2.3c-2.12,1.42-5.44,2-9.8,2s-7.68-.57-9.8-2-3.21-3.59-3.23-7.42,1.13-6,3.23-7.42a13.74,13.74,0,0,1,6.35-1.84C156.6,65.48,158.81,69.15,162.39,71.5Z"/><path class="cls-1" d="M177.36,83a2.33,2.33,0,0,0-.93-2.18,8.09,8.09,0,0,0-6.14,0,3,3,0,0,0,0,4.36,8.11,8.11,0,0,0,6.14,0A2.33,2.33,0,0,0,177.36,83Z"/></svg>