<svg id="Layer_1" data-name="Layer 1" xmlns="http://www.w3.org/2000/svg" viewBox="0 0 280 160"><defs><style>.cls-1{fill:#fff;}.cls-2{fill:#09f;}.cls-3{fill:#006;}</style></defs><title>finn</title><path class="cls-1" d="M267.5,67.478a28.442,28.442,0,0,0-28.442-28.442h-123.9A28.487,28.487,0,0,0,90.54,53.225,28.486,28.486,0,0,0,65.925,39.036H40.94A28.44,28.44,0,0,0,12.5,67.476V92.521a28.443,28.443,0,0,0,28.443,28.443H239.059A28.441,28.441,0,0,0,267.5,92.523Z"/><path class="cls-2" d="M238.628,112.771a20.731,20.731,0,0,0,20.679-20.784V66.913A20.708,20.708,0,0,0,238.6,46.2H115.136A20.708,20.708,0,0,0,94.428,66.913v45.858h144.2Z"/><path class="cls-3" d="M86.235,112.772V66.914A20.709,20.709,0,0,0,65.526,46.2H40.377A20.708,20.708,0,0,0,19.669,66.913V92.062a20.709,20.709,0,0,0,20.709,20.709H86.235Z"/><path class="cls-1" d="M167.139,75.9h9.217v25.6h-9.217Zm-27.651,5.3c0-2.66,1.791-5.3,6.139-5.3h13.319v7.169h-8.717c-1.17,0-1.524.455-1.524,1.223v3.9h10.241v7.169H148.7v6.145h-9.217V81.2Zm54.277,1.874h4.578a1.567,1.567,0,0,1,1.567,1.567l0,16.867h10.245V81.219c0-2.67-1.847-5.316-6.326-5.316H184.548l0,25.6h9.222V83.072Zm32.772,0h4.577a1.566,1.566,0,0,1,1.566,1.567l0,16.867H241.9V81.219c0-2.67-1.847-5.316-6.326-5.316H216.3l0,25.6h10.246V83.072Z"/></svg>