<svg xmlns="http://www.w3.org/2000/svg" viewBox="0 0 280 160"><defs><style>.a{fill:#ed1828;}.b{fill:#797a7c;}</style></defs><title>nearform</title><path class="a" d="M82.1,54.23A10.41,10.41,0,0,1,76,61.9a3.86,3.86,0,0,0-1.73,3.21V93.9a4,4,0,0,0,2.22,3.46,10.78,10.78,0,0,1,5.81,8.4,38,38,0,0,0,9.89-25.7A38.94,38.94,0,0,0,82.1,54.23Z"/><path class="a" d="M30,97.36h0a3.64,3.64,0,0,0,2.1-3.46V80.8a3.89,3.89,0,0,0-1.85-3.34c-.12,0-.12-.12-.25-.12h0A10.62,10.62,0,1,1,45.52,68a11.19,11.19,0,0,1-.74,4h0a4.55,4.55,0,0,0,.87,3.71l19,19.4h0a3.91,3.91,0,0,0,2.84,1.11,2.1,2.1,0,0,0,.87-.12,4.06,4.06,0,0,0,.49-2.1V65.11a3.79,3.79,0,0,0-1.73-3.34c-.12,0-.12-.12-.25-.12h0a10.78,10.78,0,0,1-5.68-9.39,10.94,10.94,0,0,1,4.57-8.77,39.65,39.65,0,0,0-12.23-2,38.55,38.55,0,0,0-29.16,63.77A10.67,10.67,0,0,1,30,97.36Z"/><path class="a" d="M71.72,57.45a5.19,5.19,0,1,0-5.19-5.19A5.22,5.22,0,0,0,71.72,57.45Z"/><path class="b" d="M66.53,106.88a5.19,5.19,0,1,0,5.19-5.19A5.14,5.14,0,0,0,66.53,106.88Z"/><path class="a" d="M61.22,106.75A9,9,0,0,1,62,103h0a5.26,5.26,0,0,0,.25-1.36A4,4,0,0,0,61,98.85h0L41.82,79.32c-1.73-1.73-4.33-1.48-4.33,1.48V93.9a3.8,3.8,0,0,0,2.22,3.46,10.51,10.51,0,0,1,5.81,9.39A10.33,10.33,0,0,1,40,116a37.93,37.93,0,0,0,13.59,2.47,39.87,39.87,0,0,0,13.35-2.35A10.4,10.4,0,0,1,61.22,106.75Z"/><path class="a" d="M34.9,101.69a5.19,5.19,0,1,0,5.19,5.19A5.14,5.14,0,0,0,34.9,101.69Z"/><path class="b" d="M40.09,68a5.19,5.19,0,1,0-5.19,5.19A5.22,5.22,0,0,0,40.09,68Z"/><path class="b" d="M113.62,90.57V78.21c0-5.07-1.85-7.66-5.56-7.66A6.47,6.47,0,0,0,103,72.77a7.87,7.87,0,0,0-2,5.56V90.57H99V69.19h2V73h.12a7.73,7.73,0,0,1,7.29-4.45,6.21,6.21,0,0,1,5.31,2.35c1.24,1.48,1.85,3.71,1.85,6.55v13h-2Z"/><path class="b" d="M122.39,79.94a10.72,10.72,0,0,0,2,6.92,7,7,0,0,0,5.56,2.47,11.84,11.84,0,0,0,7-2.6v2.1a12.31,12.31,0,0,1-7.41,2.35,8.46,8.46,0,0,1-6.67-3c-1.73-2-2.6-4.82-2.6-8.4a12.42,12.42,0,0,1,2.6-7.91,8.62,8.62,0,0,1,6.92-3.21,7.17,7.17,0,0,1,6.06,2.84A12.81,12.81,0,0,1,138,79.2v.87H122.39Zm13.84-1.73c-.12-2.47-.62-4.33-1.73-5.68a5.58,5.58,0,0,0-4.57-2.1,6.43,6.43,0,0,0-4.94,2,9.72,9.72,0,0,0-2.47,5.81Z"/><path class="b" d="M156.25,90.57V86.24h-.12a9,9,0,0,1-3,3.46,7.79,7.79,0,0,1-4.33,1.36A7,7,0,0,1,144,89.33,5.51,5.51,0,0,1,142.29,85c0-3.71,2.47-5.93,7.41-6.8l6.55-1c0-4.57-1.73-6.92-5.19-6.92a10.59,10.59,0,0,0-6.8,2.84V70.79a11.07,11.07,0,0,1,3.21-1.61,10.79,10.79,0,0,1,3.83-.62,6.25,6.25,0,0,1,5.07,2.1,8.53,8.53,0,0,1,1.85,5.93V90.44h-2Zm-5.81-10.63c-2.22.37-3.83.87-4.7,1.61A4.28,4.28,0,0,0,144.39,85a3.92,3.92,0,0,0,1.24,3.09,4.58,4.58,0,0,0,3.46,1.24,6.47,6.47,0,0,0,5.07-2.22,8.47,8.47,0,0,0,2.1-5.93v-2.1Z"/><path class="b" d="M174.66,71.29a3.45,3.45,0,0,0-2.22-.74,4.85,4.85,0,0,0-4.2,2.6,13.69,13.69,0,0,0-1.73,7.41v10h-1.85V69.19h1.85v4.7h.12A8.07,8.07,0,0,1,169,70.05a5.71,5.71,0,0,1,3.71-1.36,5.77,5.77,0,0,1,2.1.37v2.22Z"/><path class="a" d="M181.21,62.64V74.87h11v1.85h-11v14h-2.1v-30h14v1.85H181.21Z"/><path class="a" d="M207,91.06A9.35,9.35,0,0,1,199.63,88a11.52,11.52,0,0,1-2.72-8c0-3.58,1-6.3,2.84-8.28a10,10,0,0,1,7.54-3,9,9,0,0,1,7.17,3c1.73,2,2.6,4.7,2.6,8.28,0,3.34-.87,6.06-2.72,8C212.73,90.07,210.25,91.06,207,91.06Zm.25-20.64a7.67,7.67,0,0,0-6.06,2.6,10.46,10.46,0,0,0-2.22,7,9.46,9.46,0,0,0,2.22,6.67,8.21,8.21,0,0,0,11.86.12,10.52,10.52,0,0,0,2.1-6.92c0-3.09-.74-5.44-2.1-7A7.29,7.29,0,0,0,207.29,70.42Z"/><path class="a" d="M232.5,71.29a3.45,3.45,0,0,0-2.22-.74,4.85,4.85,0,0,0-4.2,2.6,13.69,13.69,0,0,0-1.73,7.41v10h-1.85V69.19h1.85v4.7h.12a8.07,8.07,0,0,1,2.35-3.83,5.71,5.71,0,0,1,3.71-1.36,5.77,5.77,0,0,1,2.1.37v2.22Z"/><path class="a" d="M262.9,90.57V77.71c0-2.72-.37-4.57-1.24-5.68a4.71,4.71,0,0,0-4-1.61,5.39,5.39,0,0,0-4.33,2.22,8.06,8.06,0,0,0-1.85,5.44V90.57h-2v-13c0-4.7-1.85-7.17-5.44-7.17a5.22,5.22,0,0,0-4.33,2.22,9.16,9.16,0,0,0-1.73,5.68V90.69h-1.85V69.19h2v3.58h.12a7.12,7.12,0,0,1,6.55-4.08,6.13,6.13,0,0,1,4,1.36A6.38,6.38,0,0,1,251,73.64a8.19,8.19,0,0,1,2.84-3.58A6.9,6.9,0,0,1,258,68.82c4.7,0,7,2.84,7,8.65V90.69h-2.1Z"/></svg>