<svg xmlns="http://www.w3.org/2000/svg" viewBox="0 0 280 160"><defs><style>.a{fill:#95cd28;}</style></defs><title>netlife</title><polygon class="a" points="40.62 30.41 41.03 57.27 41.03 57.48 24.3 30.41 15 30.41 15 73.39 25.33 73.39 25.12 47.35 25.33 47.35 41.65 73.39 51.16 73.39 51.16 30.41 40.62 30.41"/><path class="a" d="M78,53.76a7.13,7.13,0,0,0-7.23-5.58,7,7,0,0,0-7.23,5.58Zm8.68,9.5C85,66.78,83,69.67,80.08,71.53A15.85,15.85,0,0,1,71,74.42,16.89,16.89,0,0,1,54,57.48c0-8.88,7-17.36,16.94-17.36S87.93,48,87.93,57.69c0,1.24-.21,1.86-.21,2.48H63.35a7.36,7.36,0,0,0,7.44,6.2,6.37,6.37,0,0,0,5.79-3.1Z"/><polygon class="a" points="101.78 41.16 106.32 41.16 106.32 48.59 101.78 48.59 101.78 73.39 92.07 73.39 92.07 48.59 87.31 48.59 87.31 41.16 92.07 41.16 92.07 30.41 101.78 30.41 101.78 41.16"/><rect class="a" x="107.56" y="30.41" width="9.71" height="42.77"/><path class="a" d="M130.91,73.39H121.2V41.16h9.71Zm0-35.54H121.2V30.41h9.71Z"/><path class="a" d="M135.25,48.6h-3.51V41.36h3.51V39.71c0-9.09,7.64-9.92,12.19-9.92h1.45V37h-1c-.83,0-2.89.21-2.89,3.1v1.24h4.13V48.6H145V73.39h-9.71V48.6Z"/><path class="a" d="M172.64,53.76a7.13,7.13,0,0,0-7.23-5.58,7,7,0,0,0-7.23,5.58Zm8.68,9.5c-1.65,3.51-3.72,6.4-6.61,8.26a15.85,15.85,0,0,1-9.09,2.89,16.89,16.89,0,0,1-16.94-16.94c0-8.88,7-17.36,16.94-17.36S182.56,48,182.56,57.69c0,1.24-.21,1.86-.21,2.48H158.18a7.36,7.36,0,0,0,7.44,6.2,6.37,6.37,0,0,0,5.79-3.1Z"/><path class="a" d="M25.33,107.89h3.93c6.4,0,7.23-4.13,7.23-6.2,0-3.93-2.89-5.79-7-5.79H25.33v12ZM15,86.4H28.64c7.44,0,10.54.83,13.22,3.1a14.82,14.82,0,0,1,5.37,11.78c0,5-2.48,12.19-10.74,13.43l11.57,14.67H35.45l-9.92-13.84h-.21v13.84H15Z"/><path class="a" d="M72,109.55A7.13,7.13,0,0,0,64.79,104a7,7,0,0,0-7.23,5.58ZM80.5,119c-1.65,3.51-3.72,6.4-6.61,8.26a15.85,15.85,0,0,1-9.09,2.89,16.89,16.89,0,0,1-16.94-16.94c0-8.88,7-17.36,16.94-17.36s16.94,7.85,16.94,17.56c0,1.24-.21,1.86-.21,2.48H57.15a7.36,7.36,0,0,0,7.44,6.2,6.37,6.37,0,0,0,5.79-3.1Z"/><path class="a" d="M97.64,106c0-.62-.21-2.48-3.1-2.48-2.07,0-2.69,1.24-2.69,2.07,0,1.65,2.48,2.69,5,3.51,5.37,1.45,11.16,3.1,11.16,10.12,0,6.82-6,11-13,11-5,0-12.19-2.27-13-10.74h9.5c.41,2.89,3.31,2.89,3.72,2.89,1.65,0,3.31-.83,3.31-2.48,0-2.48-2.48-2.69-8.47-5.17-4.13-1.24-7.64-4.13-7.64-8.47,0-6.4,5.79-10.54,12.4-10.54,4.34,0,11.57,1.65,12.4,10.12l-9.5.21Z"/><path class="a" d="M132.56,109.55a7.13,7.13,0,0,0-7.23-5.58,7,7,0,0,0-7.23,5.58ZM141,119c-1.65,3.51-3.72,6.4-6.61,8.26a15.85,15.85,0,0,1-9.09,2.89,16.89,16.89,0,0,1-16.94-16.94c0-8.88,7-17.36,16.94-17.36s16.94,7.85,16.94,17.56c0,1.24-.21,1.86-.21,2.48H117.69a7.36,7.36,0,0,0,7.44,6.2,6.37,6.37,0,0,0,5.79-3.1Z"/><path class="a" d="M160.66,121.32c6,0,8.06-5.17,8.06-8.26a7.8,7.8,0,0,0-8.06-8.06c-5.58,0-7.85,4.55-7.85,8.26a7.78,7.78,0,0,0,7.85,8.06m17.77,7.85h-9.71v-3.51h0c-1.65,3.1-5.58,4.55-9.3,4.55-10.12,0-16.12-8.06-16.12-17.15,0-10.54,7.64-17.15,16.12-17.15,5.37,0,8.26,2.48,9.3,4.55h.21V96.94h9.71l-.21,32.23Z"/><path class="a" d="M182.36,97.15h9.09v3.51h.21c.83-1.65,2.48-4.55,8.06-4.55v9.71c-4.55.21-7.64,1-7.64,6v17.77h-9.71V97.15Z"/><path class="a" d="M232.77,117a17.26,17.26,0,1,1-17.15-21.07c8.47,0,15.5,5.58,16.94,13.43h-9.71a7.09,7.09,0,0,0-7-4.55c-4.55-.21-7.64,3.51-7.64,8.06,0,4.75,3.1,8.06,7.64,8.06a7.46,7.46,0,0,0,7-4.34h9.92Z"/><path class="a" d="M235,86.4h9.71V100H245c1.65-2.89,5-4.13,8.26-4.13,3.1,0,6.82,1,8.68,3.51,2.69,3.1,3.1,6,3.1,11.78v18h-9.71V111.61c0-1.65,0-6.82-5.17-6.82-5.37,0-5.37,4.75-5.37,6.4V129H235V86.4Z"/></svg>