<?xml version="1.0" encoding="UTF-8" standalone="no"?>
<svg version="1.1" xmlns="http://www.w3.org/2000/svg" xml:space="preserve" viewBox="0 0 341 142" height="100%" width="100%">
<g id="g10" transform="matrix(1.25,0,0,-1.25,0,141.4625)">
	<g id="g12" fill-rule="nonzero" fill="#2f2d36" transform="scale(0.1,0.1)">
		<path id="path14" d="m129.41,584.94,0,214.75l-129.41,0.01v-784.2h129.41v201.8c0,265.6,211.44,465.91,491.81,465.91v129.42c-202.37,0-379.1-88.332-491.81-227.7"/>
		<path id="path16" d="M213.86,15.23,213.52,178.18c0,199.25,74.527,273.84,137.06,325.19,74.051,60.852,172.72,95.742,270.63,95.742v-129.43c-204.18,0-278.27-158.63-278.27-265.28l-0.62-188.87-128.46-0.301"/>
		<path id="path18" d="m782.18,18.102,128.63,0,0,792.3-128.63,0,0-792.3z"/>
		<path id="path20" d="m2103.4,463.48c17.48,149.3,118.01,252.95,246.44,252.95,105.32,0,223.47-66.621,242.01-252.95h-488.45zm249.44,363.5c-216.82,0-380.31-177.76-380.31-413.5,0-235.71,170-413.48,395.4-413.48,133.41,0,233.94,45.77,325.93,148.4l4.17,4.657-81.57,73.039-4.18-4.375c-70.44-73.797-147.13-108.18-241.33-108.18-119.36,0-247.43,77.816-267.56,251.47h617.06l0.61,5.562c1.54,13.918,1.54,26.114,1.54,36.887,0,250.93-148.59,419.52-369.76,419.52"/>
		<path id="path22" d="m1448.4,118.09c-155.43,0-268.24,124.87-268.24,296.92,0,173.92,110.3,295.39,268.24,295.39,135.58,0,275.82-110.49,275.82-295.39,0-185.86-140.24-296.92-275.82-296.92zm271.28,1013.6,0-457.42c-75.73,101.37-174,152.74-292.37,152.74-183.64,0-378.81-144.92-378.81-413.5,0-267.59,195.17-411.98,378.81-411.98,118.3,0,214.11,52.359,292.37,159.93v-143.33h128.66v1113.6h-128.66"/>
	</g>
</g>
</svg>
