<svg xmlns="http://www.w3.org/2000/svg" viewBox="0 0 280 160"><defs><style>.a{fill:#5b93c6;}.b{fill:#3681bc;}.c{fill:#d3dfee;}.d{fill:#9fbbdc;}.e{fill:#a9c2df;}.f{fill:#81a9d2;}.g{fill:#231f20;}</style></defs><title>systek</title><path class="a" d="M57.48,93.18,36.26,100V77.78l21.22,15.4"/><path class="b" d="M36.26,77.73v22.33L15,93.22,36.26,77.73"/><path class="c" d="M36.3,52.71,57.48,70.85,36.26,77.69V52.79"/><path class="d" d="M57.48,70.85V93.18L36.26,77.78l21.22-6.93"/><path class="e" d="M36.3,52.71v25L15,70.8l21.3-18.1"/><path class="f" d="M15,70.8l21.26,6.93L15,93.13V70.8"/><path class="g" d="M95,88.77A4.67,4.67,0,0,0,93.29,85,18.33,18.33,0,0,0,89,82.4L83.53,80A28,28,0,0,1,78,76.88a16.66,16.66,0,0,1-4.28-4.53,14,14,0,0,1-1.63-7,16.51,16.51,0,0,1,1.2-6.42,13.17,13.17,0,0,1,3.51-4.45,15.82,15.82,0,0,1,5.39-2.61A25.59,25.59,0,0,1,89,51a42.61,42.61,0,0,1,8.26.77,20.17,20.17,0,0,1,6.42,2.14l-3.12,8.34a16,16,0,0,0-4.71-1.84A25.22,25.22,0,0,0,89,59.55a8.39,8.39,0,0,0-5.26,1.37,4.13,4.13,0,0,0-1.84,3.64,4.42,4.42,0,0,0,1.71,3.59,18.14,18.14,0,0,0,4.19,2.7c1.71.86,3.55,1.71,5.56,2.57a29.3,29.3,0,0,1,5.56,3.08A19.31,19.31,0,0,1,103.12,81a12.78,12.78,0,0,1,1.71,6.76,15.91,15.91,0,0,1-1.37,6.93,13,13,0,0,1-3.72,4.83A15.26,15.26,0,0,1,94,102.42a27.6,27.6,0,0,1-7.49.94,39.37,39.37,0,0,1-9.5-1,23.93,23.93,0,0,1-6-2L74.12,92a22.17,22.17,0,0,0,2.14.94,21,21,0,0,0,2.78.94l3.34.68A25.09,25.09,0,0,0,86,94.8c2.91,0,5.13-.43,6.72-1.45A5,5,0,0,0,95,88.86"/><path class="g" d="M121.78,86.5l1.28,5.65h.43l.94-5.69,5.48-20.11h9.58L128.62,98.69c-.94,2.7-1.8,5.13-2.65,7.36a33.09,33.09,0,0,1-2.74,5.78,13.26,13.26,0,0,1-3.34,3.76,7.1,7.1,0,0,1-4.36,1.41,12.08,12.08,0,0,1-6-1.28l1.71-7.44a7,7,0,0,0,2.14.43,4.56,4.56,0,0,0,3.25-1.41c1-.94,1.8-2.57,2.35-5.13L104,66.4h11.21l6.59,20.11m36,5.86a2.78,2.78,0,0,0-1.2-2.31,17.74,17.74,0,0,0-3-1.58l-4-1.45a13.51,13.51,0,0,1-3.94-2.14,10.25,10.25,0,0,1-3-3.34,9.78,9.78,0,0,1-1.28-5.26c0-3.51,1.07-6.2,3.17-8.13s5.13-2.74,9.11-2.74a28.25,28.25,0,0,1,7.36.86,19,19,0,0,1,5.13,1.93L164.3,75a42.92,42.92,0,0,0-4.19-1.41,21.23,21.23,0,0,0-5.13-.73c-2.74,0-4.11,1.07-4.11,3.25a2.4,2.4,0,0,0,1.2,2.05,17.75,17.75,0,0,0,3,1.5c1.28.43,2.57.86,4,1.41A21.35,21.35,0,0,1,163,83.08a10.55,10.55,0,0,1,3,3.29,9.52,9.52,0,0,1,1.28,5.13,11.09,11.09,0,0,1-3.51,8.64c-2.31,2.05-5.82,3.08-10.44,3.08a25.66,25.66,0,0,1-7.1-1,24.34,24.34,0,0,1-5.43-2.31L143.34,93a27.23,27.23,0,0,0,4.41,1.8,17.56,17.56,0,0,0,5.56.86,6.67,6.67,0,0,0,3.42-.73,3.12,3.12,0,0,0,1.2-2.7M169.86,66.4h5V59.55L184.19,57V66.4H193v7.87h-8.77V88a13.4,13.4,0,0,0,.77,5.35,2.75,2.75,0,0,0,2.82,1.71,8.84,8.84,0,0,0,2.44-.34,11.13,11.13,0,0,0,2.31-.86l1.71,7.19a24.25,24.25,0,0,1-4.53,1.58,21.27,21.27,0,0,1-5.22.64c-3.29,0-5.73-.86-7.27-2.57s-2.35-4.49-2.35-8.34V74.27h-5V66.4m43.46,6.42c-2.48,0-4.28.73-5.43,2.14a10.12,10.12,0,0,0-2.14,5.9H219a8.81,8.81,0,0,0-1.11-6,5.35,5.35,0,0,0-4.62-2.05Zm13.35,26.35a18.27,18.27,0,0,1-5.86,2.91,23.45,23.45,0,0,1-7.83,1.2q-8.66,0-12.71-5.13c-2.7-3.29-4-8-4-13.82,0-6.42,1.5-11.12,4.53-14.29s7.27-4.71,12.71-4.71a20.2,20.2,0,0,1,5.26.68,12.68,12.68,0,0,1,4.58,2.4,11.36,11.36,0,0,1,3.25,4.45,15.57,15.57,0,0,1,1.2,7,21.27,21.27,0,0,1-.17,3.21l-.51,3.59H205.54c.17,3,.94,5.3,2.35,6.84s3.64,2.27,6.84,2.27a15.35,15.35,0,0,0,5.22-.86A18.86,18.86,0,0,0,223.5,93l3.12,6.07m19-11.76H243.1v15h-9.41V52h9.41V81.67l2.14-1,8.13-14.29h10.27L255.08,80,251.4,82.7l4,2.78L265,102.16H254.31l-8.73-14.72"/></svg>