<?xml version="1.0" encoding="UTF-8" standalone="no"?>
<!-- Created with Inkscape (http://www.inkscape.org/) -->

<svg
   xmlns:dc="http://purl.org/dc/elements/1.1/"
   xmlns:cc="http://creativecommons.org/ns#"
   xmlns:rdf="http://www.w3.org/1999/02/22-rdf-syntax-ns#"
   xmlns:svg="http://www.w3.org/2000/svg"
   xmlns="http://www.w3.org/2000/svg"
   xmlns:xlink="http://www.w3.org/1999/xlink"
   xmlns:sodipodi="http://sodipodi.sourceforge.net/DTD/sodipodi-0.dtd"
   xmlns:inkscape="http://www.inkscape.org/namespaces/inkscape"
   version="1.1"
   width="390"
   height="480"
   id="svg4228"
   inkscape:version="0.91 r13725"
   sodipodi:docname="Hedmark_våpen.svg">
  <sodipodi:namedview
     pagecolor="#ffffff"
     bordercolor="#666666"
     borderopacity="1"
     objecttolerance="10"
     gridtolerance="10"
     guidetolerance="10"
     inkscape:pageopacity="0"
     inkscape:pageshadow="2"
     inkscape:window-width="640"
     inkscape:window-height="480"
     id="namedview6315"
     showgrid="false"
     inkscape:current-layer="svg4228" />
  <metadata
     id="metadata14">
    <rdf:RDF>
      <cc:Work
         rdf:about="">
        <dc:format>image/svg+xml</dc:format>
        <dc:type
           rdf:resource="http://purl.org/dc/dcmitype/StillImage" />
        <dc:title />
      </cc:Work>
    </rdf:RDF>
  </metadata>
  <defs
     id="defs4232">
    <style
       id="style6-48"
       type="text/css">
   
    .str0 {stroke:black;stroke-width:0.2646}
    .str1 {stroke:#D4AE05;stroke-width:0.3969}
    .fil4 {fill:none}
    .fil0 {fill:#005121}
    .fil2 {fill:#00722E}
    .fil1 {fill:#00923F}
    .fil5 {fill:#0A73B9}
    .fil3 {fill:white}
   
  </style>
    <style
       type="text/css"
       id="style561-2">.str2 {stroke:black}
    .str0 {stroke:#1F1A17;stroke-width:0.0762}
    .str1 {stroke:black;stroke-width:1.214}
    .fil0 {fill:#00923F}
    .fil1 {fill:#1F1A17}
    .fil9 {fill:#838281}
    .fil4 {fill:#C2C1C1}
    .fil3 {fill:#DA251D}
    .fil6 {fill:#DEDEDD}
    .fil5 {fill:white}
    .fil8 {fill:black}
    .fil2 {fill:#DC3623}
    .fil7 {fill:#1F1A17;fill-rule:nonzero}</style>
    <style
       id="style561-7"
       type="text/css">.str2 {stroke:black}
    .str0 {stroke:#1F1A17;stroke-width:0.0762}
    .str1 {stroke:black;stroke-width:1.214}
    .fil0 {fill:#00923F}
    .fil1 {fill:#1F1A17}
    .fil9 {fill:#838281}
    .fil4 {fill:#C2C1C1}
    .fil3 {fill:#DA251D}
    .fil6 {fill:#DEDEDD}
    .fil5 {fill:white}
    .fil8 {fill:black}
    .fil2 {fill:#DC3623}
    .fil7 {fill:#1F1A17;fill-rule:nonzero}</style>
    <style
       type="text/css"
       id="style6-4">
   
    .str0 {stroke:black;stroke-width:0.2646}
    .str1 {stroke:#D4AE05;stroke-width:0.3969}
    .fil4 {fill:none}
    .fil0 {fill:#005121}
    .fil2 {fill:#00722E}
    .fil1 {fill:#00923F}
    .fil5 {fill:#0A73B9}
    .fil3 {fill:white}
   
  </style>
    <style
       id="style561-8"
       type="text/css">.str2 {stroke:black}
    .str0 {stroke:#1F1A17;stroke-width:0.0762}
    .str1 {stroke:black;stroke-width:1.214}
    .fil0 {fill:#00923F}
    .fil1 {fill:#1F1A17}
    .fil9 {fill:#838281}
    .fil4 {fill:#C2C1C1}
    .fil3 {fill:#DA251D}
    .fil6 {fill:#DEDEDD}
    .fil5 {fill:white}
    .fil8 {fill:black}
    .fil2 {fill:#DC3623}
    .fil7 {fill:#1F1A17;fill-rule:nonzero}</style>
    <style
       type="text/css"
       id="style6-9">
   
    .str0 {stroke:black;stroke-width:0.2646}
    .str1 {stroke:#D4AE05;stroke-width:0.3969}
    .fil4 {fill:none}
    .fil0 {fill:#005121}
    .fil2 {fill:#00722E}
    .fil1 {fill:#00923F}
    .fil5 {fill:#0A73B9}
    .fil3 {fill:white}
   
  </style>
    <g
       id="s">
      <g
         id="c">
        <path
           inkscape:connector-curvature="0"
           transform="matrix(0.9510565,0.309017,-0.309017,0.9510565,0,-1)"
           d="M 0,0 0,1 0.5,1 0,0 z"
           id="t" />
        <use
           id="use5409"
           transform="scale(-1,1)"
           xlink:href="#t"
           x="0"
           y="0"
           width="549"
           height="632" />
      </g>
      <g
         id="a">
        <use
           id="use5412"
           transform="matrix(0.309017,0.9510565,-0.9510565,0.309017,0,0)"
           xlink:href="#c"
           x="0"
           y="0"
           width="549"
           height="632" />
        <use
           id="use5414"
           transform="matrix(-0.809017,0.5877853,-0.5877853,-0.809017,0,0)"
           xlink:href="#c"
           x="0"
           y="0"
           width="549"
           height="632" />
      </g>
      <use
         id="use5416"
         transform="scale(-1,1)"
         xlink:href="#a"
         x="0"
         y="0"
         width="549"
         height="632" />
    </g>
    <g
       id="s-1">
      <g
         id="c-7">
        <path
           transform="matrix(0.9510565,0.309017,-0.309017,0.9510565,0,-1)"
           d="M 0,0 L 0,1 L 0.5,1 L 0,0 z"
           id="t-4" />
        <use
           id="use5409-0"
           transform="scale(-1,1)"
           xlink:href="#t-4"
           x="0"
           y="0"
           width="549"
           height="632" />
      </g>
      <g
         id="a-9">
        <use
           id="use5412-4"
           transform="matrix(0.309017,0.9510565,-0.9510565,0.309017,0,0)"
           xlink:href="#c-7"
           x="0"
           y="0"
           width="549"
           height="632" />
        <use
           id="use5414-8"
           transform="matrix(-0.809017,0.5877853,-0.5877853,-0.809017,0,0)"
           xlink:href="#c-7"
           x="0"
           y="0"
           width="549"
           height="632" />
      </g>
      <use
         id="use5416-8"
         transform="scale(-1,1)"
         xlink:href="#a-9"
         x="0"
         y="0"
         width="549"
         height="632" />
    </g>
    <style
       id="style6"
       type="text/css">
   
    .str0 {stroke:black;stroke-width:0.2646}
    .str1 {stroke:#D4AE05;stroke-width:0.3969}
    .fil4 {fill:none}
    .fil0 {fill:#005121}
    .fil2 {fill:#00722E}
    .fil1 {fill:#00923F}
    .fil5 {fill:#0A73B9}
    .fil3 {fill:white}
   
  </style>
    <style
       type="text/css"
       id="style561">.str2 {stroke:black}
    .str0 {stroke:#1F1A17;stroke-width:0.0762}
    .str1 {stroke:black;stroke-width:1.214}
    .fil0 {fill:#00923F}
    .fil1 {fill:#1F1A17}
    .fil9 {fill:#838281}
    .fil4 {fill:#C2C1C1}
    .fil3 {fill:#DA251D}
    .fil6 {fill:#DEDEDD}
    .fil5 {fill:white}
    .fil8 {fill:black}
    .fil2 {fill:#DC3623}
    .fil7 {fill:#1F1A17;fill-rule:nonzero}</style>
    <clipPath
       clipPathUnits="userSpaceOnUse"
       id="clipPath8949">
      <path
         style="fill-opacity:1"
         id="path8951"
         d="M 0,0 C 130,0 260,0 390,0 390.002,197.56568 370.9582,337.27755 194.88837,479.99815 21.155446,337.38577 0.00226556,198.01562 0,0 Z"
         inkscape:connector-curvature="0" />
    </clipPath>
  </defs>
  <path
     d="M 0,0 C 130,0 260,0 390,0 390.002,197.56568 370.9582,337.27755 194.88837,479.99815 21.155446,337.38577 0.00226556,198.01562 0,0 z"
     id="path4240-0"
     style="fill:#2350a9;fill-opacity:1;stroke:none;opacity:1;stroke-width:2.6;stroke-miterlimit:4;stroke-dasharray:none" />
  <path
     id="path8953"
     d="M 194.98047 199.21875 L 65.464844 333.25586 C 94.422387 383.41483 135.83261 431.52062 194.88867 479.99805 C 254.46658 431.70474 296.04651 383.75337 325.01172 333.79102 L 194.98047 199.21875 z "
     style="fill:#c8c5a9;fill-opacity:1;fill-rule:evenodd;opacity:1;stroke-width:2.6;stroke-miterlimit:4;stroke-dasharray:none" />
  <path
     style="fill-opacity:0.47196266;fill-rule:evenodd;stroke:#000000;stroke-width:2.6;stroke-miterlimit:4;stroke-dasharray:none;stroke-opacity:1;fill:none;opacity:1"
     d="M 325.01172,333.79102 194.98047,199.21875 65.464844,333.25586"
     id="path7459"
     inkscape:connector-curvature="0"
     sodipodi:nodetypes="ccc" />
  <g
     transform="matrix(1.016104,-0.79612919,0.79612919,1.016104,-515.63624,314.91723)"
     id="g8440"
     style="opacity:1;stroke-width:2.01417954;stroke-miterlimit:4;stroke-dasharray:none">
    <path
       id="path7659"
       d="m 519.79297,106.91211 -0.73047,0.27148 -7.0293,13.79102 c -4.59423,1.67063 -9.73859,0.27791 -14.60547,1.10742 -0.97453,0.97454 0.41688,1.2545 0.69532,2.08985 l 9.87304,9.04296 c -1.11375,5.0061 -3.75343,10.01155 -4.86718,15.02344 l 0.55859,0.41797 15.02344,-7.09375 c 4.86687,2.50015 9.45538,5.98124 14.32226,8.76562 l 0.2793,-0.9746 -5.14648,-15.72071 c 3.34127,-4.17658 6.67608,-8.07055 10.57421,-11.96289 l -0.83593,-0.83398 c -4.3158,0.27844 -8.76392,8.6e-4 -12.65625,0.27929 -1.94908,-4.45501 -3.7593,-9.04383 -4.87305,-13.77148 -0.21278,-0.10639 -0.34789,-0.37265 -0.58203,-0.43164 z"
       style="fill:#231f20;fill-opacity:1;fill-rule:nonzero;stroke:none;stroke-width:2.01417954;stroke-miterlimit:4;stroke-dasharray:none"
       inkscape:connector-curvature="0" />
    <g
       id="g4825"
       transform="matrix(5.8008026,0,0,-5.8008026,523.85469,123.47592)"
       style="stroke-width:0.34722429;stroke-miterlimit:4;stroke-dasharray:none">
      <path
         d="M 0,0 1.727,0 C 1.367,-0.528 0.815,-1.055 0.384,-1.607 0.479,-2.278 0.719,-2.974 0.863,-3.645 0.24,-3.429 -0.288,-2.854 -0.911,-2.59 l -1.943,-0.959 c 0.072,0.671 0.432,1.319 0.576,1.99 -0.456,0.455 -0.983,0.887 -1.415,1.391 0.624,0.144 1.271,0.072 1.943,0.168 0.479,0.575 0.527,1.318 0.983,1.894 C -0.432,1.343 -0.288,0.623 0,0"
         style="fill:#b3a43a;fill-opacity:1;fill-rule:nonzero;stroke:none;stroke-width:0.34722429;stroke-miterlimit:4;stroke-dasharray:none"
         id="path4827"
         inkscape:connector-curvature="0" />
    </g>
  </g>
  <g
     transform="matrix(1.2124182,0.65229703,-0.65229703,1.2124182,-380.59826,-523.6381)"
     id="g8449"
     style="opacity:1;stroke-width:1.88850118;stroke-miterlimit:4;stroke-dasharray:none">
    <path
       inkscape:connector-curvature="0"
       style="fill:#231f20;fill-opacity:1;fill-rule:nonzero;stroke:none;stroke-width:1.88850118;stroke-miterlimit:4;stroke-dasharray:none"
       d="m 617.04933,113.59839 -1.11353,0.13967 -6.67607,12.52564 c -3.61389,1.10796 -7.65129,0.13243 -11.40441,0.27165 -10e-4,-0.0112 -0.004,-0.0221 -0.005,-0.0333 l -1.35059,1.08021 2.3552,2.3552 c 2.08424,1.54904 3.17989,4.10197 5.11918,5.92005 l -6.9567,13.63147 0.27935,0.55613 16.4121,-3.75192 c 4.17659,3.05702 7.51193,6.80934 11.96694,9.17607 0.27264,-4.17079 -0.97438,-8.76665 -1.53126,-13.07664 -1.80986,-3.75312 2.36139,-3.89741 3.47514,-6.25833 2.64517,-2.50015 5.83932,-4.86471 8.20605,-7.78832 l -0.27678,-0.69707 -13.91082,-0.551 c -2.0883,-4.17658 -3.33571,-8.91107 -4.58868,-13.4995 z"
       id="path7661" />
    <g
       id="g4837"
       transform="matrix(5.8008026,0,0,-5.8008026,616.49352,120.27794)"
       style="stroke-width:0.3255586;stroke-miterlimit:4;stroke-dasharray:none">
      <path
         d="M 0,0 C 0.216,-0.551 0.359,-1.175 0.671,-1.679 1.223,-1.631 1.75,-1.631 2.278,-1.75 L 0.839,-3.141 1.151,-5.204 c -0.551,0.288 -1.103,0.792 -1.607,1.2 l -2.038,-0.552 -0.072,0.096 0.887,1.654 -0.935,1.151 0.12,0.12 1.439,-0.071 0.935,1.63 L 0,0 Z"
         style="fill:#b3a43a;fill-opacity:1;fill-rule:nonzero;stroke:none;stroke-width:0.3255586;stroke-miterlimit:4;stroke-dasharray:none"
         id="path4839"
         inkscape:connector-curvature="0" />
    </g>
  </g>
  <g
     id="g8460"
     transform="matrix(0.89090944,-0.54074916,0.54074916,0.89090944,-480.05672,252.25497)"
     style="opacity:1;stroke-width:2.49478191;stroke-miterlimit:4;stroke-dasharray:none">
    <g
       id="g5069"
       transform="matrix(5.8008026,0,0,-5.8008026,462.65217,199.42351)"
       style="stroke-width:0.4300753;stroke-miterlimit:4;stroke-dasharray:none">
      <path
         d="M 0,0 C 0.264,-0.744 0.671,-1.438 1.079,-2.134 L 1.247,-2.182 C 2.134,-2.11 2.998,-1.871 3.885,-1.846 3.405,-2.782 2.709,-3.693 2.206,-4.652 2.254,-5.779 2.302,-6.93 2.494,-7.961 1.798,-7.434 1.007,-6.738 0.312,-6.163 -0.719,-6.283 -1.63,-6.93 -2.662,-7.05 c 0.312,0.767 0.648,1.535 0.959,2.302 l -0.095,0.264 c -0.504,0.647 -1.151,1.223 -1.607,1.894 l 2.398,0.288 0.767,2.254 C -0.192,0 -0.096,0.072 0,0"
         style="fill:#231f20;fill-opacity:1;fill-rule:nonzero;stroke:none;stroke-width:0.4300753;stroke-miterlimit:4;stroke-dasharray:none"
         id="path5071"
         inkscape:connector-curvature="0" />
    </g>
    <g
       id="g5089"
       transform="matrix(5.8008026,0,0,-5.8008026,468.21571,214.58565)"
       style="stroke-width:0.4300753;stroke-miterlimit:4;stroke-dasharray:none">
      <path
         d="M 0,0 2.158,0.264 C 1.871,-0.479 1.223,-1.127 0.839,-1.846 0.936,-2.709 1.007,-3.597 1.103,-4.46 c -0.647,0.264 -1.199,0.935 -1.75,1.439 l -2.278,-0.888 -0.048,0.072 0.767,1.966 -1.343,1.511 c 0.576,0.216 1.319,0.168 1.943,0.288 0.239,0.6 0.335,1.247 0.575,1.846 l 0.096,0 L 0,0 Z"
         style="fill:#b3a43a;fill-opacity:1;fill-rule:nonzero;stroke:none;stroke-width:0.4300753;stroke-miterlimit:4;stroke-dasharray:none"
         id="path5091"
         inkscape:connector-curvature="0" />
    </g>
  </g>
  <circle
     style="opacity:1;fill:#b3a43a;fill-opacity:1;stroke:#000000;stroke-opacity:1;stroke-width:3.1;stroke-miterlimit:4;stroke-dasharray:none"
     id="path8852"
     cx="195"
     cy="56.328865"
     r="43.271664" />
  <g
     id="g8472"
     transform="matrix(1.5489329,0,0,1.5489329,-682.25407,-125.17378)"
     style="opacity:1;stroke-width:1.67857497;stroke-miterlimit:4;stroke-dasharray:none">
    <g
       id="g8770"
       transform="matrix(0.88984576,0.34040423,-0.34040423,0.88984576,131.21048,-222.05839)"
       style="stroke-width:1.76185212;stroke-miterlimit:4;stroke-dasharray:none">
      <path
         id="path8766"
         transform="matrix(0.64560576,0,0,0.64560576,440.46716,80.812913)"
         d="m 329.82422,88.632812 c -2.58545,0.03221 -4.81971,2.88086 -7.62305,2.88086 -3.87255,0.85358 -7.53401,-0.871094 -10.98437,-0.871094 -1.29385,1.087187 -1.2938,3.45188 0,4.314453 2.80339,1.509475 4.09583,5.169499 7.53711,5.591799 2.58768,4.31281 -5.59543,5.60828 -5.16407,9.91211 -3.45031,-3.65691 -10.55832,3.66701 -9.04882,-4.30274 1.0782,-2.80333 3.66457,-5.60444 1.93945,-8.830075 -3.45026,-3.234622 -4.52905,3.224145 -7.76367,4.095705 -2.80335,3.44128 -13.13617,-0.65718 -10.11719,6.45898 1.93179,4.30385 10.54862,1.0773 8.18555,6.89063 -1.94078,1.50948 -2.80426,3.44984 -3.45118,5.39062 -4.9508,-1.94078 -8.61806,5.81558 -12.06836,1.28711 -1.07816,-3.87256 1.29649,-10.11868 -3.8789,-10.99023 -1.93179,3.45026 -3.65947,7.54714 -7.54102,9.05664 -1.94076,1.50049 -5.80894,0.002 -6.24023,3.44336 2.15641,6.46922 10.55558,2.157 13.78125,7.76367 -2.57874,7.53847 0.65434,13.5652 5.17383,19.17187 7.53851,8.83231 18.09483,11.85389 29.73047,12.06055 4.01658,4.43936 9.51248,8.11753 13.5533,12.89768 l 3.49943,-1.90744 4.49414,1.08007 c 0,0 4.67518,-3.95677 5.93359,-4.49609 0.0715,-0.0306 0.20221,-0.0585 0.30079,-0.0879 l -4.29297,-21.70117 c 1.50049,-7.3318 6.24762,-13.36388 6.89453,-20.90235 0.43129,-7.96974 -0.64992,-16.79762 -6.89453,-22.40429 -2.58771,-2.79435 -8.83319,-0.64539 -9.04883,-4.949222 1.07821,-3.665913 6.02936,-5.827002 4.95117,-10.355469 -0.64523,-0.362209 -1.26077,-0.505485 -1.85742,-0.498037 z m -3.41992,57.656248 c 0.10755,-0.004 0.2164,0.004 0.32422,0.0234 0.43127,0.0798 0.86304,0.34665 1.29882,0.77344 0.4223,2.1654 2.14888,4.31463 1.50196,6.90234 -2.15643,-1.50949 -3.65739,-4.51698 -4.09766,-7.32031 0.32684,-0.2426 0.64998,-0.36639 0.97266,-0.37891 z m -16.69727,0.80274 c 0.86253,0.64693 3.02113,0.43307 2.58985,2.1582 -1.07822,0.43128 -2.37426,-1.29563 -2.58985,-2.1582 z m 6.89844,3.8789 c 4.73512,1.72513 5.39155,7.32238 8.61719,10.98828 l 0,0.2168 c -3.44128,-1.07819 -5.81155,-4.31306 -8.1836,-7.10742 -0.43128,-1.29386 -1.08051,-3.01944 -0.43359,-4.09766 z m 20.50781,43.72657 1.89258,8.19726 5.17578,28.22266 c -1.29384,1.72512 -2.58308,-1.29349 -3.87695,0.43164 l -0.4336,2.15429 c 3.66598,6.89154 7.10861,14.01205 12.06836,20.04102 2.15641,0.43129 1.94096,-1.94132 2.58789,-3.01953 1.0782,-4.95077 -0.21471,-11.41881 3.22657,-15.72266 l 0,-1.72656 c 6.68486,3.45025 11.2022,11.85258 18.31836,14 l 1.07812,-1.28711 -4.5293,-21.76172 19.21875,6.26563 c 0.0188,-0.009 0.0462,-0.0469 0.0606,-0.0469 0.37907,0 1.44336,0.37696 1.44336,0.37696 l 0.75586,-0.90821 -2.07617,-4.06054 c -3.72532,-5.59004 -6.2761,-13.60456 -10.35742,-19.72657 -2.57871,0.64694 -2.14637,3.88148 -3.22461,5.82227 -9.91047,-8.19438 -19.17316,-16.16444 -28.65235,-25.85938 0.0297,-0.19771 -4.03013,-3.5492 -4.01083,-3.74489 -4.23018,2.54939 -6.86685,8.94189 -8.665,12.35234 z m 17.83984,7.12109 c 5.38206,5.16639 11.85357,10.12691 16.37305,15.72461 -2.58771,1.72511 -1.07673,5.39249 -4.0957,6.4707 -5.16643,-6.46924 -9.25835,-14.22558 -12.27735,-22.19531 z m -8.62109,1.07812 c 4.52848,7.7541 8.19224,16.15642 12.49609,24.3418 -1.72512,1.72514 -4.94906,1.29743 -7.10546,3.23828 l -1.29102,-1.72461 c -1.72515,-8.40102 -3.88396,-17.03214 -4.09961,-25.85547 z"
         style="fill:#231f20;fill-opacity:1;fill-rule:nonzero;stroke:none;stroke-width:2.72899079;stroke-miterlimit:4;stroke-dasharray:none"
         inkscape:connector-curvature="0"
         sodipodi:nodetypes="ccccccccccccccccccccccccccccccccccccccccccccccccccccccccccsccccccccccccccccc" />
      <g
         transform="matrix(5.8008026,0,0,-5.8008026,651.68293,141.69914)"
         id="g4889"
         style="stroke-width:0.30372558;stroke-miterlimit:4;stroke-dasharray:none">
        <path
           inkscape:connector-curvature="0"
           id="path4891"
           style="fill:#c8c5a9;fill-opacity:1;fill-rule:nonzero;stroke:none;stroke-width:0.30372558;stroke-miterlimit:4;stroke-dasharray:none"
           d="m 0,0 c -0.144,-0.264 -0.551,-0.264 -0.479,-0.623 l 0.12,-0.672 c -0.144,0.432 -0.192,0.96 -0.72,1.103 0.264,0.096 0.671,0.12 0.959,0.264 0.048,0 0.144,0 0.12,-0.072" />
      </g>
      <g
         transform="matrix(5.8008026,0,0,-5.8008026,634.85364,149.6271)"
         id="g4901"
         style="stroke-width:0.30372558;stroke-miterlimit:4;stroke-dasharray:none">
        <path
           inkscape:connector-curvature="0"
           id="path4903"
           style="fill:#c8c5a9;fill-opacity:1;fill-rule:nonzero;stroke:none;stroke-width:0.30372558;stroke-miterlimit:4;stroke-dasharray:none"
           d="M 0,0 C 1.247,-2.446 2.47,-4.868 3.717,-7.29 3.693,-7.337 3.693,-7.41 3.621,-7.41 3.045,-6.618 2.686,-5.611 2.158,-4.748 l -2.302,4.46 c -0.12,0.192 -0.359,0.072 -0.48,0.216 C -0.408,0 -0.192,0.12 0.048,0.167 L 0,0 Z" />
      </g>
      <g
         transform="matrix(5.8008026,0,0,-5.8008026,659.19438,159.36491)"
         id="g4905"
         style="stroke-width:0.30372558;stroke-miterlimit:4;stroke-dasharray:none">
        <path
           inkscape:connector-curvature="0"
           id="path4907"
           style="fill:#c8c5a9;fill-opacity:1;fill-rule:nonzero;stroke:none;stroke-width:0.30372558;stroke-miterlimit:4;stroke-dasharray:none"
           d="M 0,0 C 0,-0.695 -0.168,-1.319 -0.456,-1.894 L -0.552,-1.87 C -0.743,-0.671 -1.079,0.528 -1.151,1.75 -0.288,1.631 -0.144,0.671 0,0" />
      </g>
      <g
         transform="matrix(5.8008026,0,0,-5.8008026,656.82939,187.1844)"
         id="g4913"
         style="stroke-width:0.30372558;stroke-miterlimit:4;stroke-dasharray:none">
        <path
           inkscape:connector-curvature="0"
           id="path4915"
           style="fill:#c8c5a9;fill-opacity:1;fill-rule:nonzero;stroke:none;stroke-width:0.30372558;stroke-miterlimit:4;stroke-dasharray:none"
           d="M 0,0 C -0.551,2.039 -0.863,4.196 -1.199,6.354 L 0,0.456 0,0 Z" />
      </g>
      <g
         transform="matrix(5.8008026,0,0,-5.8008026,651.54428,171.18752)"
         id="g4917"
         style="stroke-width:0.30372558;stroke-miterlimit:4;stroke-dasharray:none">
        <path
           inkscape:connector-curvature="0"
           id="path4919"
           style="fill:#c8c5a9;fill-opacity:1;fill-rule:nonzero;stroke:none;stroke-width:0.30372558;stroke-miterlimit:4;stroke-dasharray:none"
           d="m 0,0 c -0.503,0.024 -0.647,0.624 -0.911,0.983 -0.384,0.744 -0.432,1.918 0.144,2.59 L -0.624,3.429 0,0 Z" />
      </g>
      <g
         transform="matrix(5.8008026,0,0,-5.8008026,642.22646,156.16403)"
         id="g4925"
         style="stroke-width:0.30372558;stroke-miterlimit:4;stroke-dasharray:none">
        <path
           inkscape:connector-curvature="0"
           id="path4927"
           style="fill:#c8c5a9;fill-opacity:1;fill-rule:nonzero;stroke:none;stroke-width:0.30372558;stroke-miterlimit:4;stroke-dasharray:none"
           d="M 0,0 C -0.048,-0.144 -0.048,-0.288 -0.12,-0.408 -0.336,-0.216 -0.504,0.096 -0.456,0.335 -0.264,0.312 0.096,0.312 0,0" />
      </g>
      <g
         transform="matrix(5.8008026,0,0,-5.8008026,644.59086,175.4981)"
         id="g4933"
         style="stroke-width:0.30372558;stroke-miterlimit:4;stroke-dasharray:none">
        <path
           inkscape:connector-curvature="0"
           id="path4935"
           style="fill:#c8c5a9;fill-opacity:1;fill-rule:nonzero;stroke:none;stroke-width:0.30372558;stroke-miterlimit:4;stroke-dasharray:none"
           d="m 0,0 c -1.031,0.288 -2.039,1.318 -2.134,2.47 -0.024,0.311 0.095,0.575 0.287,0.791 L -1.727,3.237 0,0 Z" />
      </g>
      <g
         transform="matrix(5.8008026,0,0,-5.8008026,620.1109,160.47808)"
         id="g4937"
         style="stroke-width:0.30372558;stroke-miterlimit:4;stroke-dasharray:none">
        <path
           inkscape:connector-curvature="0"
           id="path4939"
           style="fill:#c8c5a9;fill-opacity:1;fill-rule:nonzero;stroke:none;stroke-width:0.30372558;stroke-miterlimit:4;stroke-dasharray:none"
           d="M 0,0 C 1.798,-1.846 3.692,-3.405 5.419,-5.251 3.5,-3.645 1.583,-1.726 -0.24,-0.048 L -0.672,0 -0.144,0.48 0,0 Z" />
      </g>
      <g
         transform="matrix(5.8008026,0,0,-5.8008026,630.40093,162.98229)"
         id="g4949"
         style="stroke-width:0.30372558;stroke-miterlimit:4;stroke-dasharray:none">
        <path
           inkscape:connector-curvature="0"
           id="path4951"
           style="fill:#c8c5a9;fill-opacity:1;fill-rule:nonzero;stroke:none;stroke-width:0.30372558;stroke-miterlimit:4;stroke-dasharray:none"
           d="m 0,0 0.192,-0.791 c -0.359,0.216 -0.671,0.527 -0.959,0.863 0.048,0.192 0.264,0.192 0.384,0.264 C -0.12,0.456 -0.023,0.168 0,0" />
      </g>
      <g
         transform="matrix(5.8008026,0,0,-5.8008026,638.74771,182.17656)"
         id="g4989"
         style="stroke-width:0.30372558;stroke-miterlimit:4;stroke-dasharray:none">
        <path
           inkscape:connector-curvature="0"
           id="path4991"
           style="fill:#c8c5a9;fill-opacity:1;fill-rule:nonzero;stroke:none;stroke-width:0.30372558;stroke-miterlimit:4;stroke-dasharray:none"
           d="M 0,0 C -1.127,-0.191 -2.206,0.6 -2.806,1.607 -2.949,1.871 -3.021,2.278 -2.854,2.542 -1.798,1.75 -0.959,0.839 0,0" />
      </g>
      <g
         transform="matrix(5.8008026,0,0,-5.8008026,684.09432,220.42822)"
         id="g5085"
         style="stroke-width:0.30372558;stroke-miterlimit:4;stroke-dasharray:none">
        <path
           inkscape:connector-curvature="0"
           id="path5087"
           style="fill:#c8c5a9;fill-opacity:1;fill-rule:nonzero;stroke:none;stroke-width:0.30372558;stroke-miterlimit:4;stroke-dasharray:none"
           d="m 0,0 c 0.264,-0.096 0.335,0.168 0.456,0.312 0.263,-0.36 0.575,-0.887 0.599,-1.391 -0.456,0.12 -0.911,0.336 -1.319,0.576 0.096,0.12 0.336,0.359 0.12,0.527 L -3.309,2.926 C -2.182,2.039 -1.055,0.935 0,0" />
      </g>
      <g
         transform="matrix(5.8008026,0,0,-5.8008026,663.50554,204.70862)"
         id="g5093"
         style="stroke-width:0.30372558;stroke-miterlimit:4;stroke-dasharray:none">
        <path
           inkscape:connector-curvature="0"
           id="path5095"
           style="fill:#c8c5a9;fill-opacity:1;fill-rule:nonzero;stroke:none;stroke-width:0.30372558;stroke-miterlimit:4;stroke-dasharray:none"
           d="m 0,0 c 0.768,-1.391 1.559,-2.83 2.302,-4.22 0.144,0.048 0.24,0.143 0.384,0.143 0.144,-0.431 0.288,-0.863 0.312,-1.342 -0.456,0.168 -0.816,0.647 -1.199,1.007 l 0.311,0.24 C 1.367,-2.806 0.504,-1.463 -0.072,0 L 0,0 Z" />
      </g>
      <g
         transform="matrix(5.8008026,0,0,-5.8008026,660.72405,206.09965)"
         id="g5101"
         style="stroke-width:0.30372558;stroke-miterlimit:4;stroke-dasharray:none">
        <path
           inkscape:connector-curvature="0"
           id="path5103"
           style="fill:#c8c5a9;fill-opacity:1;fill-rule:nonzero;stroke:none;stroke-width:0.30372558;stroke-miterlimit:4;stroke-dasharray:none"
           d="m 0,0 c 0.384,-1.463 0.647,-2.998 0.887,-4.508 0.192,0 0.432,-0.024 0.384,-0.288 L 1.127,-5.851 c -0.215,0.335 -0.527,0.719 -0.648,1.127 0.145,0 0.313,-0.024 0.336,0.144 C 0.36,-3.118 0.192,-1.535 -0.096,0 L 0,0 Z" />
      </g>
    </g>
    <g
       id="g4391">
      <path
         style="fill:#231f20;fill-opacity:1;fill-rule:nonzero;stroke:none;stroke-width:2.5999999;stroke-miterlimit:4;stroke-dasharray:none"
         d="m 645.32971,171.61005 -1.97338,0.24336 c -2.96313,1.85984 -2.71538,3.41298 -4.88996,6.43715 -12.39053,3.00478 -25.51082,8.80928 -36.97858,13.10377 l -4.60373,-0.78556 c -1.86829,5.29025 -10.81189,14.38439 -10.03085,14.94728 0.9758,0.70324 7.13193,6.97936 7.13193,6.97936 l 5.56456,-0.83728 1.12603,0.48169 c -0.0136,-0.0557 -0.0308,-0.11078 -0.0442,-0.16645 4.50895,-1.8372 12.56053,-7.62497 17.06947,-9.46216 -0.0127,0.0307 -0.0204,0.0638 -0.0328,0.0946 0.34673,-0.32117 0.78541,-0.7241 0.91671,-0.81457 0.18429,-0.127 2.8409,-1.12544 3.29612,-1.29625 9.79368,-6.34028 20.25372,-12.48268 31.02438,-17.4011 l 0.0731,0.11097 0.74774,-0.50817 -2.43237,-0.65569 -2.66943,-2.20414 -2.95945,-2.3214 -1.39208,-2.37942 0.29002,-1.91538 0.76665,-1.65058 z"
         id="path7973"
         inkscape:connector-curvature="0" />
      <g
         transform="matrix(5.4323821,-2.0343389,-2.0343389,-5.4323821,644.5773,173.17985)"
         id="g5049"
         style="stroke-width:0.28936943;stroke-miterlimit:4;stroke-dasharray:none">
        <path
           inkscape:connector-curvature="0"
           id="path5051"
           style="fill:#feeaa6;fill-opacity:1;fill-rule:nonzero;stroke:none;stroke-width:0.28936943;stroke-miterlimit:4;stroke-dasharray:none"
           d="m 0,0 c -0.264,-0.192 -0.24,-0.479 -0.144,-0.768 0.264,-0.191 0.288,-0.503 0.432,-0.743 -2.911,-0.673 -5.957,-1.032 -8.921,-1.462 -0.407,0.023 -0.839,-0.096 -1.127,0.191 -0.1499622,0.2549581 -0.02624,0.4257011 0.07016,0.6860473 0.9383046,0.1975459 1.5132085,0.6211322 2.191011,1.2405527 1.847,0.217 3.2308294,0.3284 5.1008294,0.0634 0.887,-0.287 1.727,0.168 2.278,0.792 z"
           sodipodi:nodetypes="cccccccccc" />
      </g>
    </g>
    <g
       id="g4396"
       transform="matrix(0.69426218,0.71972218,-0.71972218,0.69426218,323.36979,-415.38182)">
      <path
         style="fill:#231f20;fill-opacity:1;fill-rule:nonzero;stroke:none;stroke-width:2.5999999;stroke-miterlimit:4;stroke-dasharray:none"
         d="m 649.04951,167.30643 c -0.0529,0.0401 -0.12512,0.0864 -0.1614,0.12106 -0.63873,0.61099 -2.56982,4.06151 -2.56982,4.06151 l -0.98858,0.12105 -0.76666,1.65058 -0.29001,1.91538 1.39208,2.37942 2.95945,2.3214 2.66943,2.20414 2.43237,0.65569 2.49037,-1.69345 2.28484,-3.83076 0.0933,-2.40841 c -1.14158,-4.28721 -5.80177,-6.40177 -9.52395,-7.46482 l -0.0214,-0.0328 z"
         id="path4375"
         inkscape:connector-curvature="0" />
      <g
         transform="matrix(5.4323821,-2.0343389,-2.0343389,-5.4323821,650.32414,170.2832)"
         id="g5045"
         style="stroke-width:0.28936943;stroke-miterlimit:4;stroke-dasharray:none">
        <path
           inkscape:connector-curvature="0"
           id="path5047"
           style="fill:#feeaa6;fill-opacity:1;fill-rule:nonzero;stroke:none;stroke-width:0.28936943;stroke-miterlimit:4;stroke-dasharray:none"
           d="m 0,0 c -0.216,-0.264 -0.528,-0.504 -0.887,-0.6 0.095,0.336 0.551,0.504 0.863,0.624 L 0,0 Z" />
      </g>
      <g
         transform="matrix(5.4323821,-2.0343389,-2.0343389,-5.4323821,652.34276,171.31181)"
         id="g5057"
         style="stroke-width:0.28936943;stroke-miterlimit:4;stroke-dasharray:none">
        <path
           inkscape:connector-curvature="0"
           id="path5059"
           style="fill:#feeaa6;fill-opacity:1;fill-rule:nonzero;stroke:none;stroke-width:0.28936943;stroke-miterlimit:4;stroke-dasharray:none"
           d="M 0,0 C -0.096,-0.383 -0.6,-0.576 -1.007,-0.647 L -0.192,0 0,0 Z" />
      </g>
      <g
         transform="matrix(5.4323821,-2.0343389,-2.0343389,-5.4323821,654.71746,172.50068)"
         id="g5061"
         style="stroke-width:0.28936943;stroke-miterlimit:4;stroke-dasharray:none">
        <path
           inkscape:connector-curvature="0"
           id="path5063"
           style="fill:#feeaa6;fill-opacity:1;fill-rule:nonzero;stroke:none;stroke-width:0.28936943;stroke-miterlimit:4;stroke-dasharray:none"
           d="M 0,0 C -0.24,-0.432 -0.695,-0.528 -1.079,-0.744 L -1.103,-0.72 C -0.815,-0.408 -0.407,-0.144 0,0" />
      </g>
      <g
         transform="matrix(5.4323821,-2.0343389,-2.0343389,-5.4323821,656.39465,173.8052)"
         id="g5065"
         style="stroke-width:0.28936943;stroke-miterlimit:4;stroke-dasharray:none">
        <path
           inkscape:connector-curvature="0"
           id="path5067"
           style="fill:#feeaa6;fill-opacity:1;fill-rule:nonzero;stroke:none;stroke-width:0.28936943;stroke-miterlimit:4;stroke-dasharray:none"
           d="m 0,0 c 0.072,-0.455 -0.503,-0.527 -0.767,-0.719 l -0.192,0 C -0.743,-0.455 -0.359,-0.191 0,0" />
      </g>
    </g>
  </g>
  <g
     id="g8812"
     transform="matrix(0.84574836,0,0,0.84574836,29.992647,27.724011)"
     style="opacity:1;stroke-width:3.07420046;stroke-miterlimit:4;stroke-dasharray:none">
    <g
       transform="matrix(1.65682,0,0,1.6491138,-737.88523,-147.16273)"
       id="g8511"
       style="stroke-width:1.85981269;stroke-miterlimit:4;stroke-dasharray:none">
      <path
         inkscape:connector-curvature="0"
         id="path8418"
         transform="matrix(0.65607409,0,0,0.65607409,194.19164,62.709082)"
         d="m 482.33984,220.67773 c -3.39521,0.21221 -6.15278,2.97049 -8.69922,5.30469 -7.41818,1.47657 -14.62467,4.44671 -19.92968,9.95508 l 0.21094,3.39648 c -6.7816,4.24401 -14.62375,8.69971 -18.44336,16.33008 0.21218,4.02296 4.45542,6.78243 6.36523,9.54102 4.44738,-1.48538 5.72146,4.2439 9.54102,4.44726 1.48542,-2.32536 0.42443,-5.29539 0,-7.84179 3.3864,-4.23517 8.69337,-5.29768 13.77734,-6.14649 l 2.75781,1.47656 6.99219,22.47852 c -0.84881,3.3952 -4.8683,3.60368 -7.62695,4.87695 -2.97081,0.8488 -4.23657,-2.33363 -5.50977,-4.03125 0.41556,-1.06099 -0.42462,-1.90958 -1.27344,-2.33398 -1.27319,-0.41555 -2.33076,1.0633 -2.54297,1.91211 0.42441,4.6684 -1.27493,10.17316 1.27149,13.56836 7.84257,5.09282 18.2298,1.48804 26.70898,0.21484 l 0,1.27344 c -0.003,0.002 -0.007,0.004 -0.01,0.006 l 0.41211,8.08203 c 0.40372,4.23533 0.275,8.50075 -0.40235,12.89648 -5.72059,2.75863 -11.66246,4.8826 -18.65625,5.08594 -3.2414,-0.7128 -6.17182,-2.19291 -9.31836,-3.14453 l -4.39062,-0.38672 -3.01563,1.36914 -2.46679,1.91992 -1.50586,3.28711 -0.22656,0.47266 c -0.33027,3.04572 -1.04506,5.95211 -1.2793,8.9707 l 0.6289,2.73828 1.8418,2.13086 1.76758,1.06446 c 10.63561,-0.28572 22.44591,-2.32225 33.65234,-2.94532 -0.13282,0.20663 -0.23478,0.41111 -0.31836,0.61329 l 1.41602,-1.15821 22.37305,-66.60937 0.50781,-13.22071 -0.68945,-12.37695 -1.66407,-0.74023 -12.28906,-10.60157 c 0.4244,-3.18301 1.69852,-6.99323 -2.12109,-9.11523 -1.9098,-2.5464 -5.30816,-1.48656 -7.84571,-2.75977 z"
         style="fill:#231f20;fill-opacity:1;fill-rule:nonzero;stroke:none;stroke-width:2.83476016;stroke-miterlimit:4;stroke-dasharray:none" />
      <g
         transform="matrix(5.8008026,0,0,-5.8008026,515.50734,212.49736)"
         id="g5113"
         style="stroke-width:0.32061299;stroke-miterlimit:4;stroke-dasharray:none">
        <path
           inkscape:connector-curvature="0"
           id="path5115"
           style="fill:#b3a43a;fill-opacity:1;fill-rule:nonzero;stroke:none;stroke-width:0.32061299;stroke-miterlimit:4;stroke-dasharray:none"
           d="m 0,0 c 0.048,-0.312 -0.167,-0.504 -0.288,-0.744 l -0.024,-5.731 c -0.023,-0.311 -0.311,-0.503 -0.599,-0.527 -0.695,-0.168 -1.678,-0.479 -2.254,0.048 l 0.024,0.12 c 0.671,0.167 1.558,0.048 1.87,0.839 -0.144,0.983 -0.575,1.894 -0.863,2.829 -0.192,0.384 -0.696,0.384 -1.079,0.336 -0.719,-0.12 -1.247,-0.671 -1.87,-0.983 -0.336,-0.048 -0.504,0.336 -0.648,0.552 0.072,0.503 0.6,0.839 0.983,1.103 0.336,0.455 1.343,0.455 1.103,1.199 0.504,0.527 1.223,0.743 1.918,0.791 l 0.384,-0.36 c 0.384,0.216 -0.216,0.887 0.432,1.031 0.36,0 0.72,-0.168 0.911,-0.503" />
      </g>
      <g
         transform="matrix(5.8008026,0,0,-5.8008026,506.60601,217.78595)"
         id="g5145"
         style="stroke-width:0.32061299;stroke-miterlimit:4;stroke-dasharray:none">
        <path
           inkscape:connector-curvature="0"
           id="path5147"
           style="fill:#231f20;fill-opacity:1;fill-rule:nonzero;stroke:none;stroke-width:0.32061299;stroke-miterlimit:4;stroke-dasharray:none"
           d="m 0,0 0,-0.12 c -0.264,-0.024 -0.599,0.168 -0.887,0.072 0.168,-0.168 0.552,-0.024 0.599,-0.335 0.144,-0.384 -0.311,-0.408 -0.503,-0.528 -0.264,-0.12 -0.6,0.024 -0.647,0.312 -0.048,0.192 0.095,0.287 0.143,0.432 C -1.51,-0.12 -1.702,-0.479 -1.942,-0.264 -2.086,0.072 -1.63,0.144 -1.438,0.24 -0.959,0.336 -0.312,0.336 0,0" />
      </g>
      <g
         transform="matrix(5.8008026,0,0,-5.8008026,520.37654,221.12257)"
         id="g5157"
         style="stroke-width:0.32061299;stroke-miterlimit:4;stroke-dasharray:none">
        <path
           inkscape:connector-curvature="0"
           id="path5159"
           style="fill:#b3a43a;fill-opacity:1;fill-rule:nonzero;stroke:none;stroke-width:0.32061299;stroke-miterlimit:4;stroke-dasharray:none"
           d="m 0,0 c -0.288,-2.686 0.264,-5.779 -0.695,-8.225 l -0.096,-0.072 -0.096,0.144 c -0.144,2.997 0.096,5.755 0.216,8.704 C -0.408,0.432 -0.144,0.264 0,0" />
      </g>
      <g
         transform="matrix(5.8008026,0,0,-5.8008026,502.01757,220.84529)"
         id="g5169"
         style="stroke-width:0.32061299;stroke-miterlimit:4;stroke-dasharray:none">
        <path
           inkscape:connector-curvature="0"
           id="path5171"
           style="fill:#b3a43a;fill-opacity:1;fill-rule:nonzero;stroke:none;stroke-width:0.32061299;stroke-miterlimit:4;stroke-dasharray:none"
           d="m 0,0 c 0.024,-0.096 -0.096,-0.048 -0.12,-0.144 -0.048,0 -0.072,0.048 -0.12,0.072 C -0.288,0.072 -0.048,0.12 0,0" />
      </g>
      <g
         transform="matrix(5.8008026,0,0,-5.8008026,526.63618,227.52028)"
         id="g5177"
         style="stroke-width:0.32061299;stroke-miterlimit:4;stroke-dasharray:none">
        <path
           inkscape:connector-curvature="0"
           id="path5179"
           style="fill:#b3a43a;fill-opacity:1;fill-rule:nonzero;stroke:none;stroke-width:0.32061299;stroke-miterlimit:4;stroke-dasharray:none"
           d="M 0,0 -0.072,-2.063 C -0.336,-2.806 -0.6,-3.549 -0.863,-4.269 -0.935,-2.614 -0.839,-0.935 -0.719,0.719 -0.408,0.575 -0.168,0.264 0,0" />
      </g>
      <g
         transform="matrix(5.8008026,0,0,-5.8008026,489.35907,237.53594)"
         id="g5201"
         style="stroke-width:0.32061299;stroke-miterlimit:4;stroke-dasharray:none">
        <path
           inkscape:connector-curvature="0"
           id="path5203"
           style="fill:#b3a43a;fill-opacity:1;fill-rule:nonzero;stroke:none;stroke-width:0.32061299;stroke-miterlimit:4;stroke-dasharray:none"
           d="m 0,0 c -0.144,-0.048 -0.288,0.168 -0.336,0.264 0.024,0.12 0.168,0.12 0.24,0.144 C 0,0.312 -0.072,0.144 0,0" />
      </g>
      <g
         transform="matrix(5.8008026,0,0,-5.8008026,498.12292,250.05524)"
         id="g5217"
         style="stroke-width:0.32061299;stroke-miterlimit:4;stroke-dasharray:none">
        <path
           inkscape:connector-curvature="0"
           id="path5219"
           style="fill:#b3a43a;fill-opacity:1;fill-rule:nonzero;stroke:none;stroke-width:0.32061299;stroke-miterlimit:4;stroke-dasharray:none"
           d="M 0,0 C -0.024,-0.072 -0.12,-0.096 -0.216,-0.072 -0.336,0.024 -0.36,0.216 -0.312,0.36 L 0,0 Z" />
      </g>
      <g
         transform="matrix(5.8008026,0,0,-5.8008026,514.81357,272.58671)"
         id="g5277"
         style="stroke-width:0.32061299;stroke-miterlimit:4;stroke-dasharray:none">
        <path
           inkscape:connector-curvature="0"
           id="path5279"
           style="fill:#b3a43a;fill-opacity:1;fill-rule:nonzero;stroke:none;stroke-width:0.32061299;stroke-miterlimit:4;stroke-dasharray:none"
           d="m 0,0 c 0,-0.432 -0.168,-0.839 -0.408,-1.223 -1.127,-0.552 -2.493,-0.528 -3.812,-0.576 -0.168,0.048 -0.288,0.12 -0.36,0.288 0.072,0.432 0.048,0.983 0.479,1.199 C -3.117,0 -2.374,-0.815 -1.439,-0.36 -0.935,-0.264 -0.528,0.096 0,0" />
      </g>
    </g>
    <g
       transform="matrix(1.6158828,0,0,1.6158828,-721.45695,-143.56204)"
       id="g8530"
       style="stroke-width:1.90248975;stroke-miterlimit:4;stroke-dasharray:none">
      <path
         inkscape:connector-curvature="0"
         id="path8429"
         transform="matrix(0.65607409,0,0,0.65607409,194.19164,62.709082)"
         d="m 653.48047,227.24219 c -0.74109,5.2e-4 -5.06749,0.005 -5.39844,0.0879 -0.23579,0.0589 -1.07752,0.39877 -1.74414,0.67187 -2.903,3.17495 -4.75699,7.56832 -3.08789,11.97266 -6.25086,3.74703 -12.29561,7.50434 -18.14453,11.86523 -0.0951,0.23836 -0.44531,1.12696 -0.44531,1.12696 l -0.76172,6.60937 1.77929,15 13.22071,54.40625 5.11328,18.22852 c 10.45268,1.45039 21.28778,3.21875 32.5293,3.21875 2.33421,-0.63661 5.08536,-2.12158 5.50976,-4.66797 0.84881,-3.81078 0.84732,-8.68062 -1.0625,-12.29688 -6.99377,-6.99378 -17.80542,-1.26414 -26.70898,-3.81054 -4.03183,-1.6976 -8.69073,-1.91177 -12.08594,-5.08594 -0.54142,-10.026 0.42091,-16.72247 1.27539,-25.65234 7.63039,3.60741 15.89662,7.62867 25.22461,6.35546 6.36602,-4.23516 4.8819,-12.50369 3.39648,-18.44531 -3.60741,-2.3342 -3.81963,4.45817 -7.21484,5.08594 -2.74977,0 -5.50874,-2.1111 -6.99414,-4.44531 0.42439,-8.05478 3.60765,-15.47671 9.96484,-20.35742 4.45619,-1.06102 8.48117,2.5486 12.30078,4.88281 0.8488,3.38637 -4.66978,6.99254 -0.42578,8.90234 4.45622,-0.63659 6.78098,-5.93978 12.08594,-4.24219 2.97082,-1.69761 5.29571,-4.45417 6.14453,-8.05273 -4.24403,-7.20599 -11.0269,-13.36099 -17.17187,-18.66602 2.7586,-8.04593 -7.20522,-9.96519 -11.44922,-13.35156 -3.81962,-2.97081 -11.23459,-9.3e-4 -12.50781,-6.57031 l -3.38868,-2.75977 c 0.0155,-0.003 0.0314,-0.006 0.0469,-0.01 z"
         style="fill:#231f20;fill-opacity:1;fill-rule:nonzero;stroke:none;stroke-width:2.8998093;stroke-miterlimit:4;stroke-dasharray:none" />
      <g
         transform="matrix(5.8008026,0,0,-5.8008026,626.64782,218.47915)"
         id="g5141"
         style="stroke-width:0.32797009;stroke-miterlimit:4;stroke-dasharray:none">
        <path
           inkscape:connector-curvature="0"
           id="path5143"
           style="fill:#b3a43a;fill-opacity:1;fill-rule:nonzero;stroke:none;stroke-width:0.32797009;stroke-miterlimit:4;stroke-dasharray:none"
           d="m 0,0 0.096,-0.12 0.048,0.072 C 0.815,-0.288 1.559,-0.456 2.086,-1.031 1.798,-1.966 2.973,-2.014 3.309,-2.662 3.5,-3.045 4.076,-3.333 3.86,-3.789 L 3.453,-4.148 C 2.589,-3.621 1.774,-2.806 0.719,-2.926 0.072,-3.789 -0.768,-4.748 -0.456,-5.899 0,-6.354 0.575,-6.522 1.127,-6.762 1.223,-6.954 0.983,-7.074 0.887,-7.218 c -0.935,0.12 -1.799,0.408 -2.614,0.864 l -0.072,0.407 0.336,5.204 c 0.096,0.119 0.456,0.024 0.336,0.287 -0.216,0.216 -0.288,0.6 -0.168,0.888 0.144,0.311 0.48,0.287 0.719,0.143 C -0.288,0.432 -0.384,0 0,0" />
      </g>
      <g
         transform="matrix(5.8008026,0,0,-5.8008026,637.35726,224.60073)"
         id="g5173"
         style="stroke-width:0.32797009;stroke-miterlimit:4;stroke-dasharray:none">
        <path
           inkscape:connector-curvature="0"
           id="path5175"
           style="fill:#231f20;fill-opacity:1;fill-rule:nonzero;stroke:none;stroke-width:0.32797009;stroke-miterlimit:4;stroke-dasharray:none"
           d="m 0,0 c -0.12,-0.168 -0.312,0.024 -0.456,0.048 0,-0.216 0.312,-0.48 0.072,-0.719 -0.24,-0.24 -0.695,-0.12 -0.959,-0.024 -0.144,0.095 -0.36,0.167 -0.36,0.383 0.024,0.216 0.312,0.312 0.504,0.432 -0.312,0.216 -0.599,-0.192 -0.935,-0.216 -0.144,0.24 0.192,0.312 0.312,0.432 C -1.271,0.6 -0.527,0.528 -0.048,0.168 0,0.12 0.072,0.048 0,0" />
      </g>
      <g
         transform="matrix(5.8008026,0,0,-5.8008026,615.65819,223.90348)"
         id="g5181"
         style="stroke-width:0.32797009;stroke-miterlimit:4;stroke-dasharray:none">
        <path
           inkscape:connector-curvature="0"
           id="path5183"
           style="fill:#b3a43a;fill-opacity:1;fill-rule:nonzero;stroke:none;stroke-width:0.32797009;stroke-miterlimit:4;stroke-dasharray:none"
           d="m 0,0 c -0.12,-2.925 -0.192,-5.803 -0.432,-8.705 -0.192,0.121 -0.215,0.528 -0.311,0.792 -0.288,1.343 -0.096,2.757 -0.072,4.172 l 0.144,3.405 C -0.456,-0.192 -0.24,0.024 0,0" />
      </g>
      <g
         transform="matrix(5.8008026,0,0,-5.8008026,634.01774,226.68496)"
         id="g5189"
         style="stroke-width:0.32797009;stroke-miterlimit:4;stroke-dasharray:none">
        <path
           inkscape:connector-curvature="0"
           id="path5191"
           style="fill:#b3a43a;fill-opacity:1;fill-rule:nonzero;stroke:none;stroke-width:0.32797009;stroke-miterlimit:4;stroke-dasharray:none"
           d="M 0,0 0,-0.144 C -0.24,-0.192 -0.503,-0.192 -0.695,-0.024 -0.671,0.24 -0.144,0.215 0,0" />
      </g>
      <g
         transform="matrix(5.8008026,0,0,-5.8008026,608.98205,228.07831)"
         id="g5193"
         style="stroke-width:0.32797009;stroke-miterlimit:4;stroke-dasharray:none">
        <path
           inkscape:connector-curvature="0"
           id="path5195"
           style="fill:#b3a43a;fill-opacity:1;fill-rule:nonzero;stroke:none;stroke-width:0.32797009;stroke-miterlimit:4;stroke-dasharray:none"
           d="m 0,0 c 0.144,-1.583 -0.024,-3.237 -0.096,-4.724 -0.383,1.008 -0.624,2.206 -0.791,3.357 -0.072,0.432 0.048,0.792 0.359,1.032 C -0.336,-0.24 -0.216,-0.024 0,0" />
      </g>
      <g
         transform="matrix(5.8008026,0,0,-5.8008026,643.19983,242.96027)"
         id="g5209"
         style="stroke-width:0.32797009;stroke-miterlimit:4;stroke-dasharray:none">
        <path
           inkscape:connector-curvature="0"
           id="path5211"
           style="fill:#b3a43a;fill-opacity:1;fill-rule:nonzero;stroke:none;stroke-width:0.32797009;stroke-miterlimit:4;stroke-dasharray:none"
           d="M 0,0 C -0.048,-0.096 -0.144,-0.168 -0.24,-0.168 L -0.12,0.12 C -0.048,0.096 -0.024,0.072 0,0" />
      </g>
      <g
         transform="matrix(5.8008026,0,0,-5.8008026,634.15927,255.34035)"
         id="g5241"
         style="stroke-width:0.32797009;stroke-miterlimit:4;stroke-dasharray:none">
        <path
           inkscape:connector-curvature="0"
           id="path5243"
           style="fill:#b3a43a;fill-opacity:1;fill-rule:nonzero;stroke:none;stroke-width:0.32797009;stroke-miterlimit:4;stroke-dasharray:none"
           d="m 0,0 -0.192,0 c -0.072,0.096 0.048,0.192 0.12,0.264 L 0,0.264 0,0 Z" />
      </g>
      <g
         transform="matrix(5.8008026,0,0,-5.8008026,616.49352,278.985)"
         id="g5301"
         style="stroke-width:0.32797009;stroke-miterlimit:4;stroke-dasharray:none">
        <path
           inkscape:connector-curvature="0"
           id="path5303"
           style="fill:#b3a43a;fill-opacity:1;fill-rule:nonzero;stroke:none;stroke-width:0.32797009;stroke-miterlimit:4;stroke-dasharray:none"
           d="m 0,0 c 1.007,-0.552 2.278,-0.504 3.453,-0.408 0.431,0.024 0.551,-0.407 0.623,-0.719 0,-0.288 0.072,-0.648 -0.24,-0.744 -1.439,-0.144 -2.805,0 -3.956,0.648 -0.192,0.383 -0.312,0.815 -0.336,1.27 C -0.264,0.096 -0.168,-0.192 0,0" />
      </g>
    </g>
  </g>
  <g
     id="g8707"
     transform="matrix(0.97522886,0,0,1.0338615,4.7283715,-11.155471)"
     style="opacity:1;stroke-width:2.58933889;stroke-miterlimit:4;stroke-dasharray:none">
    <path
       style="fill:#231f20;fill-opacity:1;fill-rule:nonzero;stroke:none;stroke-width:2.58933878;stroke-miterlimit:4;stroke-dasharray:none"
       d="m 196.35307,48.138754 c -0.48618,-6.82e-4 -0.97858,0.01905 -1.47669,0.05948 -6.89153,1.293855 -14.43821,5.607416 -16.80127,12.714602 -2.81232,9.479221 -3.23464,20.03619 -3.66593,30.593608 2.15643,1.078228 4.51916,1.509854 6.89121,1.941139 1.07819,5.813331 0.21494,10.989937 -0.21634,16.803267 -5.6e-4,-2.1e-4 -0.001,2.4e-4 -0.002,0 l 0.0317,0.12315 -4.32685,1.67913 -3.85646,0.23618 c 0.0601,0.0379 0.11617,0.0816 0.17666,0.11912 l -2.14755,1.07973 -22.40833,4.5174 c -5.39105,4.09717 -6.02549,11.63527 -7.75063,17.88895 l -3.45353,25.63561 -5.07513,8.7053 12.03976,11.08904 8.40363,13.88563 -1.828,1.4608 -17.32326,-2.18229 c 0.25105,8.37579 -0.72561,17.98538 -0.31174,25.42821 l -0.24809,-0.1092 0.70062,12.57764 -0.51604,13.43509 -22.73582,67.68942 -1.43898,1.17699 c -1.13626,2.74856 2.01242,5.06035 4.42013,6.06354 14.64566,4.95084 30.5863,7.32238 46.31915,9.91008 l 0,0.26595 c 2.0622,0.17538 14.14002,1.20511 15.80492,1.44295 1.4584,0.20835 8.25836,0.81172 11.3054,1.07973 0.0124,-0.0672 0.0187,-0.13646 0.0338,-0.20244 l 11.20416,-0.43864 c 0.0177,0.0389 0.0277,0.0782 0.0437,0.11709 0.19143,-0.008 0.54654,-0.0376 0.66689,-0.0376 1.53788,0 29.80308,-1.51406 30.25422,-1.53822 l 0.0595,-0.0417 c 14.87027,-0.64692 29.08675,-3.23556 42.66316,-6.67685 0.39637,0.0542 0.80331,0.11354 1.20079,0.16871 l -5.19618,-18.52409 -13.43508,-55.28843 -1.80814,-15.24322 c -0.28966,-9.31976 0.0644,-19.65877 1.11346,-28.91647 l -1.37149,-1.31195 -8.52667,-1.80815 c 0,0 -3.35891,-3.35824 -4.39235,-4.90839 -0.82718,-1.24078 12.27738,-15.58267 17.86116,-22.24161 l -0.30963,-0.80782 c -2.15641,-16.15512 -1.93646,-33.18277 -5.38673,-48.69097 l -1.29607,-2.59015 c -10.66051,-3.20083 -20.68818,-7.01998 -31.54434,-9.39801 l -4.05096,-0.24413 -4.01921,-2.00861 -0.16275,-1.30004 c -0.0266,0.008 -0.0528,0.0181 -0.0793,0.0259 -0.43129,-5.59769 -1.29456,-10.55655 -0.21634,-16.154237 2.37205,-1.509497 6.46027,-1.079033 7.33182,-4.529297 -0.44027,-11.195377 -1.07764,-22.398684 -4.09661,-32.524833 -3.83268,-5.660576 -9.7587,-10.185489 -17.05137,-10.195882 z"
       id="path8447"
       inkscape:connector-curvature="0"
       sodipodi:nodetypes="cccccccccccccccccccccccccccccsccccsccccccccccscccccccccccccc" />
    <g
       id="g4833"
       transform="matrix(8.985054,0,0,-8.985054,210.38569,60.69919)"
       style="stroke-width:0.2881829;stroke-miterlimit:4;stroke-dasharray:none">
      <path
         d="m 0,0 c 0.336,-1.007 0.312,-2.086 0.336,-3.189 -0.144,0.024 -0.312,-0.216 -0.408,0 l 0.096,2.182 c -0.551,0.624 -1.415,0.024 -2.134,0.288 -0.288,0.048 -0.839,0.192 -0.935,-0.216 -0.168,-0.719 -0.048,-1.535 -0.12,-2.278 -0.12,-0.048 -0.288,-0.024 -0.312,0.12 0.192,1.439 -0.288,3.429 1.439,3.98 C -1.271,1.079 -0.479,0.624 0,0"
         style="fill:#c8c5a9;fill-opacity:1;fill-rule:nonzero;stroke:none;stroke-width:0.2881829;stroke-miterlimit:4;stroke-dasharray:none"
         id="path4835"
         inkscape:connector-curvature="0" />
    </g>
    <g
       id="g4849"
       transform="matrix(8.985054,0,0,-8.985054,191.64377,70.824456)"
       style="stroke-width:0.2881829;stroke-miterlimit:4;stroke-dasharray:none">
      <path
         d="m 0,0 c 0.024,-0.144 -0.156,-0.084 -0.252,-0.084 -0.12,-0.024 -0.18,-0.012 -0.252,0.06 C -0.528,0.24 -0.024,0.216 0,0"
         style="fill:#feeaa6;fill-opacity:1;fill-rule:nonzero;stroke:none;stroke-width:0.2881829;stroke-miterlimit:4;stroke-dasharray:none"
         id="path4851"
         inkscape:connector-curvature="0" />
    </g>
    <g
       id="g4853"
       transform="matrix(8.985054,0,0,-8.985054,206.93812,71.468673)"
       style="stroke-width:0.2881829;stroke-miterlimit:4;stroke-dasharray:none">
      <path
         d="m 0,0 c -0.138,-0.046 -0.397,-0.042 -0.479,0.024 0,0.167 0.191,0.167 0.312,0.192 C -0.072,0.191 0.048,0.144 0,0"
         style="fill:#feeaa6;fill-opacity:1;fill-rule:nonzero;stroke:none;stroke-width:0.2881829;stroke-miterlimit:4;stroke-dasharray:none"
         id="path4855"
         inkscape:connector-curvature="0" />
    </g>
    <g
       id="g4865"
       transform="matrix(8.985054,0,0,-8.985054,198.75094,71.687909)"
       style="stroke-width:0.2881829;stroke-miterlimit:4;stroke-dasharray:none">
      <path
         d="m 0,0 c -0.072,-0.575 -0.192,-1.247 -0.24,-1.822 l -0.072,0.024 c -0.047,0.599 -0.047,1.295 0,1.822 L 0,0 Z"
         style="fill:#feeaa6;fill-opacity:1;fill-rule:nonzero;stroke:none;stroke-width:0.2881829;stroke-miterlimit:4;stroke-dasharray:none"
         id="path4867"
         inkscape:connector-curvature="0" />
    </g>
    <g
       id="g4869"
       transform="matrix(8.985054,0,0,-8.985054,192.07506,78.150862)"
       style="stroke-width:0.2881829;stroke-miterlimit:4;stroke-dasharray:none">
      <path
         d="m 0,0 c 0.264,-0.456 -0.24,-1.319 0.456,-1.511 0.671,0.144 0.311,1.008 0.503,1.463 L 1.606,-0.096 C 1.583,-0.791 1.966,-1.918 1.175,-2.35 0.791,-2.638 0.264,-2.518 -0.144,-2.421 -1.251,-2.102 -0.531,-0.744 -0.647,0.024 -0.432,0.12 -0.264,-0.072 0,0"
         style="fill:#feeaa6;fill-opacity:1;fill-rule:nonzero;stroke:none;stroke-width:0.2881829;stroke-miterlimit:4;stroke-dasharray:none"
         id="path4871"
         inkscape:connector-curvature="0" />
    </g>
    <g
       id="g4885"
       transform="matrix(8.985054,0,0,-8.985054,200.47518,94.523424)"
       style="stroke-width:0.2881829;stroke-miterlimit:4;stroke-dasharray:none">
      <path
         d="m 0,0 c -0.264,-0.192 -0.767,-0.144 -1.055,-0.024 0.24,0.24 0.671,0.12 1.031,0.12 L 0,0 Z"
         style="fill:#231f20;fill-opacity:1;fill-rule:nonzero;stroke:none;stroke-width:0.2881829;stroke-miterlimit:4;stroke-dasharray:none"
         id="path4887"
         inkscape:connector-curvature="0" />
    </g>
    <g
       id="g4897"
       transform="matrix(8.985054,0,0,-8.985054,205.86262,101.85074)"
       style="stroke-width:0.2881829;stroke-miterlimit:4;stroke-dasharray:none">
      <path
         d="m 0,0 c 0.264,-0.599 -0.192,-1.678 0.623,-1.87 0.12,0.048 0.216,-0.072 0.336,-0.072 -0.657,-0.475 -1.821,-0.452 -2.638,-0.408 -0.167,0.336 -0.503,0.456 -0.839,0.48 -0.312,-0.12 -0.575,-0.048 -0.815,0.192 0.12,0.287 0.599,0.024 0.815,0.216 0.336,0.335 0.168,0.983 0.264,1.414 C -1.607,-0.288 -0.624,-0.479 0,0"
         style="fill:#feeaa6;fill-opacity:1;fill-rule:nonzero;stroke:none;stroke-width:0.2881829;stroke-miterlimit:4;stroke-dasharray:none"
         id="path4899"
         inkscape:connector-curvature="0" />
    </g>
    <g
       id="g4929"
       transform="matrix(8.985054,0,0,-8.985054,177.42133,121.88741)"
       style="stroke-width:0.2881829;stroke-miterlimit:4;stroke-dasharray:none">
      <path
         d="m 0,0 c 0,-0.384 -0.359,-0.624 -0.719,-0.647 -0.864,-0.12 -1.751,-0.288 -2.614,-0.048 -0.048,0.216 0.048,0.455 0.168,0.623 0.671,0.384 1.463,0.456 2.206,0.624 L 0,0 Z"
         style="fill:#c8c5a9;fill-opacity:1;fill-rule:nonzero;stroke:none;stroke-width:0.2881829;stroke-miterlimit:4;stroke-dasharray:none"
         id="path4931"
         inkscape:connector-curvature="0" />
    </g>
    <g
       id="g4941"
       transform="matrix(8.985054,0,0,-8.985054,246.36455,126.62523)"
       style="stroke-width:0.2881829;stroke-miterlimit:4;stroke-dasharray:none">
      <path
         d="m 0,0 0.24,-0.288 c 0.096,-1.87 0.696,-3.669 0.479,-5.515 -1.942,-0.384 -3.98,0.048 -5.539,1.079 -1.031,0.959 -1.99,2.11 -2.23,3.453 -0.072,0.335 0.336,0.359 0.36,0.647 l 0.456,0.648 c 1.247,-0.072 2.493,0.192 3.572,0.671 C -1.703,0.624 -0.863,0.335 0,0"
         style="fill:#c8c5a9;fill-opacity:1;fill-rule:nonzero;stroke:none;stroke-width:0.2881829;stroke-miterlimit:4;stroke-dasharray:none"
         id="path4943"
         inkscape:connector-curvature="0" />
    </g>
    <g
       id="g4945"
       transform="matrix(8.985054,0,0,-8.985054,187.1162,124.25587)"
       style="stroke-width:0.2881829;stroke-miterlimit:4;stroke-dasharray:none">
      <path
         d="m 0,0 c 0,-0.384 -0.335,-0.695 -0.647,-0.863 -0.096,0 -0.192,-0.096 -0.288,-0.024 C -1.007,-0.456 -0.743,0 -0.383,0.24 -0.24,0.216 -0.072,0.144 0,0"
         style="fill:#b47f42;fill-opacity:1;fill-rule:nonzero;stroke:none;stroke-width:0.2881829;stroke-miterlimit:4;stroke-dasharray:none"
         id="path4947"
         inkscape:connector-curvature="0" />
    </g>
    <g
       id="g4969"
       transform="matrix(8.985054,0,0,-8.985054,173.32773,130.50229)"
       style="stroke-width:0.2881829;stroke-miterlimit:4;stroke-dasharray:none">
      <path
         d="m 0,0 c 0.12,-0.551 -0.599,-0.551 -0.935,-0.768 -0.767,-0.263 -1.535,-0.479 -2.35,-0.647 0.024,0.432 0.072,0.983 0.288,1.295 C -1.942,-0.288 -1.031,-0.024 0,0"
         style="fill:#c8c5a9;fill-opacity:1;fill-rule:nonzero;stroke:none;stroke-width:0.2881829;stroke-miterlimit:4;stroke-dasharray:none"
         id="path4971"
         inkscape:connector-curvature="0" />
    </g>
    <g
       id="g4973"
       transform="matrix(8.985054,0,0,-8.985054,242.92148,150.97473)"
       style="stroke-width:0.2881829;stroke-miterlimit:4;stroke-dasharray:none">
      <path
         d="m 0,0 c 0.048,-0.048 0.024,-0.12 0.024,-0.191 -1.751,0.119 -3.357,0.983 -4.868,1.918 l 0.096,0.215 C -3.213,1.175 -1.703,0.36 0,0"
         style="fill:#231f20;fill-opacity:1;fill-rule:nonzero;stroke:none;stroke-width:0.2881829;stroke-miterlimit:4;stroke-dasharray:none"
         id="path4975"
         inkscape:connector-curvature="0" />
    </g>
    <g
       id="g4985"
       transform="matrix(8.985054,0,0,-8.985054,242.4875,139.9842)"
       style="stroke-width:0.2881829;stroke-miterlimit:4;stroke-dasharray:none">
      <path
         d="M 0,0 C -0.791,0.048 -1.462,0.335 -2.23,0.432 L -2.254,0.647 0.024,0.168 0,0 Z"
         style="fill:#231f20;fill-opacity:1;fill-rule:nonzero;stroke:none;stroke-width:0.2881829;stroke-miterlimit:4;stroke-dasharray:none"
         id="path4987"
         inkscape:connector-curvature="0" />
    </g>
    <g
       id="g4993"
       transform="matrix(8.985054,0,0,-8.985054,191.21429,163.03805)"
       style="stroke-width:0.2881829;stroke-miterlimit:4;stroke-dasharray:none">
      <path
         d="m 0,0 c 1.103,-1.199 2.589,-1.966 4.172,-2.278 0,-0.911 -0.288,-1.798 -0.551,-2.638 -1.056,-0.839 -2.278,-1.438 -3.717,-1.294 -0.935,0.191 -1.822,0.767 -2.446,1.51 -0.24,1.679 0.048,3.597 -0.336,5.18 l 0.024,1.127 1.391,1.151 C -1.104,1.847 -0.768,0.768 0,0"
         style="fill:#db1f26;fill-opacity:1;fill-rule:nonzero;stroke:none;stroke-width:0.2881829;stroke-miterlimit:4;stroke-dasharray:none"
         id="path4995"
         inkscape:connector-curvature="0" />
    </g>
    <g
       id="g4997"
       transform="matrix(8.985054,0,0,-8.985054,166.65095,141.05792)"
       style="stroke-width:0.2881829;stroke-miterlimit:4;stroke-dasharray:none">
      <path
         d="m 0,0 c -0.792,-0.839 -1.727,-1.823 -2.758,-2.278 l 0.12,1.582 c 0.816,0.384 1.751,0.552 2.638,0.84 L 0,0 Z"
         style="fill:#c8c5a9;fill-opacity:1;fill-rule:nonzero;stroke:none;stroke-width:0.2881829;stroke-miterlimit:4;stroke-dasharray:none"
         id="path4999"
         inkscape:connector-curvature="0" />
    </g>
    <g
       id="g5005"
       transform="matrix(8.985054,0,0,-8.985054,232.14659,166.91691)"
       style="stroke-width:0.2881829;stroke-miterlimit:4;stroke-dasharray:none">
      <path
         d="M 0,0 C -0.024,-0.048 -0.072,-0.096 -0.12,-0.12 -1.559,0.6 -2.949,1.607 -4.148,2.734 l 0.144,0.24 C -2.733,1.918 -1.343,0.936 0,0"
         style="fill:#231f20;fill-opacity:1;fill-rule:nonzero;stroke:none;stroke-width:0.2881829;stroke-miterlimit:4;stroke-dasharray:none"
         id="path5007"
         inkscape:connector-curvature="0" />
    </g>
    <g
       id="g5021"
       transform="matrix(8.985054,0,0,-8.985054,160.40362,152.9128)"
       style="stroke-width:0.2881829;stroke-miterlimit:4;stroke-dasharray:none">
      <path
         d="m 0,0 c 0.096,-1.415 -0.288,-2.757 -0.768,-4.004 l -0.095,0 c -0.36,0.503 -1.0107107,1.4273483 -1.4897107,1.8343483 C -2.1137107,-1.8816517 -2.23,-1.918 -1.942,-1.654 -1.295,-1.103 -0.696,-0.503 0,0"
         style="fill:#db1f26;fill-opacity:1;fill-rule:nonzero;stroke:none;stroke-width:0.28818291;stroke-miterlimit:4;stroke-dasharray:none"
         id="path5023"
         inkscape:connector-curvature="0"
         sodipodi:nodetypes="cccccc" />
    </g>
    <g
       id="g5041"
       transform="matrix(8.985054,0,0,-8.985054,162.7721,196.86319)"
       style="stroke-width:0.2881829;stroke-miterlimit:4;stroke-dasharray:none">
      <path
         d="m 0,0 c 0.144,-0.408 0.24,-0.983 0.024,-1.391 -0.6,-0.336 -1.343,0.072 -1.942,-0.336 -0.552,-0.431 -0.791,-1.03 -0.864,-1.678 l -0.072,0 0.053014,3.50731945 C -2.1049857,0.29431945 -1.103,-0.647 -0.719,0.336 -0.264,1.079 -0.288,2.038 -0.144,2.901 0.072,2.038 -0.096,0.935 0,0"
         style="fill:#b47f42;fill-opacity:1;fill-rule:nonzero;stroke:none;stroke-width:0.28818291;stroke-miterlimit:4;stroke-dasharray:none"
         id="path5043"
         inkscape:connector-curvature="0"
         sodipodi:nodetypes="ccccccccc" />
    </g>
    <g
       id="g5073"
       transform="matrix(8.985054,0,0,-8.985054,249.81302,183.71986)"
       style="stroke-width:0.2881829;stroke-miterlimit:4;stroke-dasharray:none">
      <path
         d="m 0,0 c -0.24,-0.384 -0.575,-0.719 -0.959,-0.983 l -0.36,0.935 C -0.959,0.096 -0.384,0.024 0,0"
         style="fill:#db1f26;fill-opacity:1;fill-rule:nonzero;stroke:none;stroke-width:0.2881829;stroke-miterlimit:4;stroke-dasharray:none"
         id="path5075"
         inkscape:connector-curvature="0" />
    </g>
    <g
       id="g5081"
       transform="matrix(8.985054,0,0,-8.985054,244.6457,206.12409)"
       style="stroke-width:0.2881829;stroke-miterlimit:4;stroke-dasharray:none">
      <path
         d="M 0,0 0.527,-0.096 C 0.503,-0.72 0.575,-1.319 0.479,-1.871 c -0.215,0.624 -0.983,1.008 -1.63,1.103 -0.096,-0.047 -0.216,-0.12 -0.336,-0.047 l -0.408,0.479 C -1.75,0.455 -1.631,1.271 -1.319,1.942 -0.744,1.367 -0.983,0.144 0,0"
         style="fill:#b47f42;fill-opacity:1;fill-rule:nonzero;stroke:none;stroke-width:0.2881829;stroke-miterlimit:4;stroke-dasharray:none"
         id="path5083"
         inkscape:connector-curvature="0" />
    </g>
    <g
       id="g5153"
       transform="matrix(8.985054,0,0,-8.985054,201.76994,222.07167)"
       style="stroke-width:0.2881829;stroke-miterlimit:4;stroke-dasharray:none">
      <path
         d="M 0,0 C 0.815,0.288 1.63,0.6 2.326,1.103 1.367,0.264 0.048,-0.456 -1.415,-0.096 -2.254,0.12 -2.974,0.647 -3.669,1.223 -2.662,0.456 -1.391,-0.335 0,0"
         style="fill:#db1f26;fill-opacity:1;fill-rule:nonzero;stroke:none;stroke-width:0.2881829;stroke-miterlimit:4;stroke-dasharray:none"
         id="path5155"
         inkscape:connector-curvature="0" />
    </g>
    <g
       id="g5161"
       transform="matrix(8.985054,0,0,-8.985054,171.81914,224.65577)"
       style="stroke-width:0.2881829;stroke-miterlimit:4;stroke-dasharray:none">
      <path
         d="m 0,0 c 0.768,-0.767 1.607,-1.703 2.878,-1.511 1.894,0.168 2.446,2.878 4.508,2.35 0.36,-0.144 0.599,-0.455 0.719,-0.767 0.791,-3.597 1.799,-7.122 2.446,-10.742 -2.613,-0.792 -5.563,-0.84 -8.441,-0.912 -2.877,0.12 -5.707,0.456 -8.32,1.271 -0.36,0.336 0.023,0.863 0.12,1.247 1.103,3.285 2.11,6.666 3.357,9.856 C -1.798,1.727 -0.671,0.695 0,0"
         style="fill:#db1f26;fill-opacity:1;fill-rule:nonzero;stroke:none;stroke-width:0.2881829;stroke-miterlimit:4;stroke-dasharray:none"
         id="path5163"
         inkscape:connector-curvature="0" />
    </g>
    <g
       id="g5165"
       transform="matrix(8.985054,0,0,-8.985054,225.25416,214.5305)"
       style="stroke-width:0.2881829;stroke-miterlimit:4;stroke-dasharray:none">
      <path
         d="M 0,0 C -1.199,-0.383 -1.75,-2.206 -3.237,-2.206 -4.628,-2.302 -5.611,-1.007 -6.403,0 -5.396,-0.887 -4.245,-1.367 -2.877,-1.343 -1.774,-1.151 -0.887,-0.527 0,0"
         style="fill:#db1f26;fill-opacity:1;fill-rule:nonzero;stroke:none;stroke-width:0.2881829;stroke-miterlimit:4;stroke-dasharray:none"
         id="path5167"
         inkscape:connector-curvature="0" />
    </g>
  </g>
  <g
     id="g8454"
     transform="matrix(0.76411139,-0.94491127,0.94491127,0.76411139,-448.83114,693.77028)"
     style="opacity:1;stroke-width:2.13955646;stroke-miterlimit:4;stroke-dasharray:none">
    <g
       id="g5213"
       transform="matrix(5.8008026,0,0,-5.8008026,672.13017,246.29922)"
       style="stroke-width:0.36883801;stroke-miterlimit:4;stroke-dasharray:none">
      <path
         d="M 0,0 0.024,-2.134 C 0.887,-2.374 1.75,-2.59 2.614,-2.83 L 2.47,-2.974 C 1.655,-3.261 0.887,-3.717 0.144,-4.125 c -0.12,-0.863 -0.168,-1.917 0.024,-2.757 -0.312,-0.12 -0.48,0.336 -0.743,0.48 l -1.247,1.271 c -1.032,-0.024 -2.038,-0.36 -3.046,-0.48 -0.192,0.168 0.072,0.336 0.168,0.456 l 1.247,1.462 -0.767,2.446 c 0.791,0 1.487,-0.407 2.278,-0.456 0.719,0.552 1.199,1.415 1.87,1.967 L 0,0 Z"
         style="fill:#231f20;fill-opacity:1;fill-rule:nonzero;stroke:none;stroke-width:0.36883801;stroke-miterlimit:4;stroke-dasharray:none"
         id="path5215"
         inkscape:connector-curvature="0" />
    </g>
    <g
       id="g5229"
       transform="matrix(5.8008026,0,0,-5.8008026,670.60107,260.48682)"
       style="stroke-width:0.36883801;stroke-miterlimit:4;stroke-dasharray:none">
      <path
         d="M 0,0 C 0.6,-0.264 1.295,-0.312 1.918,-0.528 1.391,-1.271 -0.432,-1.007 0.024,-2.446 L 0,-3.741 -1.583,-2.278 c -0.767,-0.168 -1.534,-0.36 -2.326,-0.431 0.288,0.575 0.816,0.982 1.176,1.486 -0.192,0.671 -0.576,1.271 -0.672,1.966 0.696,-0.048 1.319,-0.335 1.99,-0.431 L -0.12,1.798 C -0.024,1.247 -0.048,0.576 0,0"
         style="fill:#b3a43a;fill-opacity:1;fill-rule:nonzero;stroke:none;stroke-width:0.36883801;stroke-miterlimit:4;stroke-dasharray:none"
         id="path5231"
         inkscape:connector-curvature="0" />
    </g>
  </g>
  <g
     id="g8466"
     transform="matrix(1.4425341,0.56417051,-0.56417051,1.4425341,-519.94017,-411.05496)"
     style="opacity:1;stroke-width:1.67857502;stroke-miterlimit:4;stroke-dasharray:none">
    <path
       style="fill:#231f20;fill-opacity:1;fill-rule:nonzero;stroke:none;stroke-width:2.55851436;stroke-miterlimit:4;stroke-dasharray:none"
       d="m 441.64062,120.02344 c -8.62573,0.19277 -18.40843,2.78444 -26.88085,9.71875 -0.46099,0.42995 -1.73876,1.65487 -1.77149,1.66797 -0.37302,0.14922 -6.49219,7.08789 -6.49219,7.08789 l -4.32617,6.86523 -1.9375,4.8457 -1.27148,3.81446 c -2.41639,18.92897 5.35899,36.84847 19.5625,46.72656 2.7586,4.88061 7.20373,12.5085 13.99414,12.7207 12.92654,1.4854 27.34849,2.12329 40.49609,3.39649 21.92582,3.44934 33.31255,4.76398 50.84375,4.25976 31.39901,-4.69963 1.2693,-13.24284 -11.20915,-24.80669 l -8.04671,0.4024 -36.04687,1.9082 c 12.51098,-12.08661 19.92829,-29.6779 14.41992,-47.69727 -4.0318,-15.48178 -18.34919,-26.56424 -33.18555,-30.375 -2.52689,-0.3967 -5.27319,-0.59941 -8.14844,-0.53515 z m -0.10937,35.8789 c 2.84232,0.0198 5.50222,2.12737 7.09375,4.35547 1.4854,2.33421 0.42554,5.51081 -0.84766,7.63281 -1.90986,2.53758 -4.8742,2.5362 -7.63281,3.18165 -2.54639,-1.061 -5.30194,-2.75967 -5.92969,-5.73047 -0.6366,-3.39521 0.83986,-7.20408 4.44727,-8.68946 0.95491,-0.53056 1.9217,-0.75663 2.86914,-0.75 z"
       id="path8395"
       inkscape:connector-curvature="0"
       transform="matrix(0.65607409,0,0,0.65607409,194.19164,62.709082)"
       sodipodi:nodetypes="scccccccccccccccsccccccc" />
    <path
       inkscape:connector-curvature="0"
       style="fill:#c8c5a9;fill-opacity:1;fill-rule:nonzero;stroke:none;stroke-width:1.67857502;stroke-miterlimit:4;stroke-dasharray:none"
       d="m 482.64229,144.30648 c -1.32143,0.0184 -2.65689,0.12174 -3.99614,0.31317 -9.18267,1.80985 -18.08036,10.98702 -19.61179,20.30891 -1.94326,10.1514 2.50557,19.61398 10.29603,25.87304 -0.13921,-1.80985 -0.001,-3.33733 1.10683,-4.59031 2.2275,-1.11375 3.89842,1.66669 5.9867,1.25483 5.14531,-0.42346 3.1974,5.56251 5.97599,7.78422 9.32188,0.6961 17.80818,-4.03217 22.81426,-11.40499 5.15112,-7.79048 5.29054,-19.61216 0.13943,-27.54186 -4.8676,-8.03484 -13.46132,-12.12573 -22.71131,-11.99701 z m 0.3196,18.11671 c 2.77858,0.13922 5.56232,0.69613 7.23296,2.92364 1.3922,2.22171 1.39302,5.28387 0.5577,7.6448 -1.25298,2.36673 -3.34284,3.8983 -5.84299,4.45517 -2.08829,0 -5.15118,-0.55629 -6.25913,-2.50536 -1.80986,-2.08829 -2.50412,-4.86664 -1.66881,-7.51181 0.97454,-2.50014 3.47432,-4.58878 5.98027,-5.00644 z"
       id="path4895" />
    <g
       id="g5033"
       transform="matrix(5.8008026,0,0,-5.8008026,471.83252,188.71407)"
       style="stroke-width:0.28936944;stroke-miterlimit:4;stroke-dasharray:none">
      <path
         style="fill:#feeaa6;fill-opacity:1;fill-rule:nonzero;stroke:none;stroke-width:0.28936943;stroke-miterlimit:4;stroke-dasharray:none"
         d="m 53.615234,125.96875 c -4.571083,3.99128 -2.63978,10.30339 -2.080078,15.38477 4.231143,9.28617 16.323547,10.3103 25.082032,15.125 20.98263,10.51205 39.862012,24.37891 62.185542,32.64648 -0.002,-0.0193 -0.004,-0.0374 -0.006,-0.0566 7.02849,0.84565 14.33531,3.65076 10.56657,-5.76285 l -3.30469,-6.22851 -8.89844,-9.28125 -7.47087,-0.86802 c -0.0615,-0.0567 -0.11541,-0.11537 -0.17773,-0.17187 -20.91317,-8.64217 -43.371168,-15.10992 -64.572267,-20.62305 -4.872566,-3.52647 -0.587201,-8.56514 -1.822265,-12.51172 -1.702094,2.57597 -1.269447,6.2085 -2.814454,8.38282 -1.022022,-2.71518 0.346513,-6.81125 -0.3125,-9.83789 -2.46676,2.73035 -1.0327,6.76353 -2.65625,9.13867 -2.943396,-3.69817 0.780545,-8.48332 -0.171875,-12.56055 -2.461665,2.742 -1.829243,7.61096 -3.085937,10.82422 l -1.070313,-0.19727 c -1.235064,-3.94658 0.811065,-7.99823 1.220703,-12.00586 z"
         transform="matrix(0.10365084,0.04053751,0.04053751,-0.10365084,-10.783798,11.003298)"
         id="path5035"
         inkscape:connector-curvature="0"
         sodipodi:nodetypes="cccccccccccccccccccc" />
    </g>
  </g>
  <g
     transform="matrix(8.5415148,0.76495944,0.76495944,-8.5415148,57.965134,363.05892)"
     id="g5329" />
  <g
     id="g8915"
     clip-path="url(#clipPath8949)"
     style="opacity:1;stroke-width:2.6;stroke-miterlimit:4;stroke-dasharray:none">
    <g
       transform="matrix(0.6117261,0,0,0.69317095,74.633392,101.5378)"
       id="g8699"
       style="stroke-width:3.99277342;stroke-miterlimit:4;stroke-dasharray:none">
      <path
         inkscape:connector-curvature="0"
         id="path8412"
         d="m 159.75346,330.9263 0,0.38109 c -9.69488,6.89156 -20.25278,12.05638 -29.08517,19.60382 l 0.86338,1.0718 c 17.66462,-2.57874 35.54248,-6.89371 53.42273,-10.12841 3.36879,-1.88617 1.41024,-5.62875 1.90937,-8.40561 -3.04703,-0.26801 -9.84699,-0.87139 -11.30539,-1.07973 -1.6649,-0.23784 -13.74272,-1.26757 -15.80492,-1.44296 z"
         style="fill:#231f20;fill-opacity:1;fill-rule:nonzero;stroke:none;stroke-width:3.99277342;stroke-miterlimit:4;stroke-dasharray:none" />
      <path
         inkscape:connector-curvature="0"
         id="path8405"
         d="m 229.06646,331.34907 c -0.45115,0.0242 -28.71635,1.53821 -30.25423,1.53821 -0.12035,0 -0.47546,0.0291 -0.66689,0.0378 0.95799,2.34003 -1.1042,4.8837 -0.0437,7.42908 l 55.15942,18.7444 c 1.29384,-1.07821 -0.21844,-2.15632 -0.86537,-3.01887 -8.61668,-7.10719 -16.36922,-15.94131 -24.77024,-23.70439 l 1.44097,-1.02615 z"
         style="fill:#231f20;fill-opacity:1;fill-rule:nonzero;stroke:none;stroke-width:3.99277342;stroke-miterlimit:4;stroke-dasharray:none" />
      <g
         transform="matrix(8.985054,0,0,-8.985054,183.02261,338.63116)"
         id="g5337"
         style="stroke-width:0.44437946;stroke-miterlimit:4;stroke-dasharray:none">
        <path
           inkscape:connector-curvature="0"
           id="path5339"
           style="fill:#db1f26;fill-opacity:1;fill-rule:nonzero;stroke:none;stroke-width:0.44437946;stroke-miterlimit:4;stroke-dasharray:none"
           d="m 0,0 c -1.462,-0.24 -2.83,-0.647 -4.292,-0.863 0.695,0.647 1.678,1.079 2.494,1.655 L -0.072,0.648 0,0 Z" />
      </g>
      <g
         transform="matrix(8.985054,0,0,-8.985054,240.54851,350.48157)"
         id="g5341"
         style="stroke-width:0.44437946;stroke-miterlimit:4;stroke-dasharray:none">
        <path
           inkscape:connector-curvature="0"
           id="path5343"
           style="fill:#db1f26;fill-opacity:1;fill-rule:nonzero;stroke:none;stroke-width:0.44437946;stroke-miterlimit:4;stroke-dasharray:none"
           d="m 0,0 c -1.462,0.336 -2.781,0.983 -4.22,1.391 -0.12,0.12 -0.024,0.359 0.024,0.504 l 0.12,0.096 1.798,0.072 C -1.415,1.439 -0.719,0.815 0,0" />
      </g>
    </g>
    <path
       sodipodi:nodetypes="cccccc"
       inkscape:connector-curvature="0"
       id="path8865"
       d="m 180.25424,399.40678 c 1.98109,-10.32672 35.7474,-32.09415 53.8983,-48.81356 8.69128,-9.94886 6.92447,-7.89246 18.81356,-2.54237 l -24.66101,53.8983 -47.28814,37.11865 z"
       style="fill:#feeaa6;fill-rule:evenodd;stroke:#000000;stroke-width:2.6;stroke-linecap:butt;stroke-linejoin:miter;stroke-opacity:1;fill-opacity:1;stroke-miterlimit:4;stroke-dasharray:none" />
    <path
       sodipodi:nodetypes="ccccccccccccccccccccccccccc"
       inkscape:connector-curvature="0"
       id="path8857"
       d="m 338.64407,315.50847 c -2.26925,-3.77213 -3.86576,-6.38787 -3.55932,-10.67796 -1.6206,-5.00951 -2.43785,-4.17234 -5.84746,-0.76271 -0.15011,5.75562 -2.55082,8.82481 -5.84746,13.22034 -18.69511,14.22626 -42.93515,18.63201 -65.33898,20.59322 -9.30349,0.35279 -11.87194,6.86311 -17.0339,13.98305 -13.03299,15.08105 -26.61627,29.64523 -39.91525,44.49152 l -9.91526,14.49153 c -1.21368,-14.1697 -18.6036,-20.82561 -27.45763,-23.1356 -17.93207,-10.07119 -11.69113,-18.13164 -21.8644,-28.72881 l -4.57627,-7.88136 0,-4.8305 c -0.53367,-5.69747 0.73096,-12.06991 -4.57628,-15.25424 -7.34502,2.49395 -10.32877,1.43353 -16.77966,-2.28814 -4.85446,-4.89312 -10.1526,-4.42049 -16.52542,-3.81356 l -6.101695,-5.33898 -4.576271,-4.0678 -16.016949,11.18645 -1.271187,13.22033 135.508472,134.23729 21.86441,-10.16949 -0.25424,-13.22034 C 240.23836,426.20274 249.36203,381.11613 261.356,365.339 l 7.11858,0.76269 C 288.15729,363.41466 297.7428,351.01941 315,347.28814 l 12.20339,-1.52543 z"
       style="fill:#feeaa6;fill-rule:evenodd;stroke:#000000;stroke-width:2.6;stroke-linecap:butt;stroke-linejoin:miter;stroke-miterlimit:4;stroke-dasharray:none;stroke-opacity:1;fill-opacity:1" />
    <path
       sodipodi:nodetypes="cc"
       inkscape:connector-curvature="0"
       id="path8859"
       d="m 190.9322,410.59322 c -2.22273,4.90037 -4.03966,9.80271 -5.33898,15"
       style="fill:none;fill-rule:evenodd;stroke:#000000;stroke-width:2.6;stroke-linecap:butt;stroke-linejoin:miter;stroke-opacity:1;stroke-miterlimit:4;stroke-dasharray:none" />
    <path
       sodipodi:nodetypes="ccc"
       inkscape:connector-curvature="0"
       id="path8861"
       d="m 255.25424,358.60169 c 19.01074,2.90719 35.48643,-8.25552 50.59322,-19.19491 7.21394,-1.69073 14.51008,-1.62644 21.8644,-1.77966"
       style="fill:none;fill-rule:evenodd;stroke:#000000;stroke-width:2.6;stroke-linecap:butt;stroke-linejoin:miter;stroke-opacity:1;stroke-miterlimit:4;stroke-dasharray:none" />
    <path
       sodipodi:nodetypes="cc"
       inkscape:connector-curvature="0"
       id="path8863"
       d="m 261.356,365.339 2.16095,-6.35595"
       style="fill:none;fill-rule:evenodd;stroke:#000000;stroke-width:2.6;stroke-linecap:butt;stroke-linejoin:miter;stroke-opacity:1;stroke-miterlimit:4;stroke-dasharray:none" />
    <path
       sodipodi:nodetypes="cccccccccc"
       inkscape:connector-curvature="0"
       id="path8867"
       d="M 216.08704,475.3259 C 188.71549,454.15453 166.25559,428.51358 145.25651,401.25947 125.02616,368.27303 129.95623,333.42922 98.156009,331.14803 88.376972,325.76762 83.559686,330.0804 72.628256,328.63121 l -3.235912,1.79773 -1.078638,11.86501 -4.674096,37.03322 84.13372,98.51556 71.19008,19.05592 z"
       style="fill:#b47f42;fill-rule:evenodd;stroke:#000000;stroke-width:2.6;stroke-linecap:butt;stroke-linejoin:miter;stroke-opacity:1;fill-opacity:1;stroke-miterlimit:4;stroke-dasharray:none" />
    <path
       sodipodi:nodetypes="ccc"
       inkscape:connector-curvature="0"
       id="path8869"
       d="m 99.40678,339.40678 c 23.05915,9.42198 19.51743,43.03263 38.64407,73.22034 l 2.0339,1.77966"
       style="fill:none;fill-rule:evenodd;stroke:#000000;stroke-width:2.6;stroke-linecap:butt;stroke-linejoin:miter;stroke-opacity:1;stroke-miterlimit:4;stroke-dasharray:none" />
    <path
       sodipodi:nodetypes="cc"
       inkscape:connector-curvature="0"
       id="path8871"
       d="m 105,355.9322 c 8.06211,7.91032 10.38275,17.65774 12.45763,30.25424"
       style="fill:none;fill-rule:evenodd;stroke:#000000;stroke-width:2.6;stroke-linecap:butt;stroke-linejoin:miter;stroke-opacity:1;stroke-miterlimit:4;stroke-dasharray:none" />
    <path
       inkscape:connector-curvature="0"
       id="path8882"
       d="m 65.084746,322.11864 c 2.288135,0 7.372881,1.52543 7.372881,1.52543 l 6.355932,0.25423 5.593221,-0.50847 2.542373,-2.28814 1.271186,-2.54237 0,-5.59322 -0.762712,-5.84746 -19.067796,-19.8305 -12.711865,1.01694 -1.779661,15.25424 z"
       style="fill:#000000;fill-rule:evenodd;stroke:#000000;stroke-width:2.6;stroke-linecap:butt;stroke-linejoin:miter;stroke-opacity:1;fill-opacity:1;stroke-miterlimit:4;stroke-dasharray:none" />
    <path
       sodipodi:nodetypes="cccccccccccccscccccccccccccccc"
       inkscape:connector-curvature="0"
       id="path8880"
       d="m 106.39831,323.51695 -6.483056,-7.88136 -6.101694,-6.8644 -9.661017,-10.04238 -8.008475,-10.42373 -6.228814,-5.4661 -5.847457,-1.65254 -7.5,2.66949 -4.957627,4.70339 -3.050848,5.72034 -0.254237,4.95763 -1.779661,18.68644 13.983051,20.59322 c 0,0 10.423729,6.86441 11.822034,6.73729 1.398305,-0.12712 -4.067797,-9.27966 -4.067797,-9.27966 l 4.194915,-6.99153 c 0,0 1.652543,-3.4322 1.144068,-3.81356 -0.508475,-0.38135 -5.338983,-4.57627 -5.338983,-4.57627 l -5.847458,-6.48305 -1.271186,-4.57627 c -2.098086,-5.13652 -4.335137,-11.73602 -1.525424,-15 l 4.830509,-2.16102 6.101695,1.52542 3.177966,2.41526 3.177966,3.68644 6.355932,7.88136 4.957627,6.73728 5.720339,6.73729 6.610172,3.68645 z"
       style="fill:#b47f42;fill-opacity:1;fill-rule:evenodd;stroke:#000000;stroke-width:2.5999999;stroke-linecap:butt;stroke-linejoin:miter;stroke-miterlimit:4;stroke-dasharray:none;stroke-opacity:1" />
    <path
       inkscape:connector-curvature="0"
       id="path8884"
       d="m 77.415254,317.16102 3.177967,-2.28814 0.88983,0.76271 -3.559322,3.05085"
       style="fill:none;fill-rule:evenodd;stroke:#000000;stroke-width:2.6;stroke-linecap:butt;stroke-linejoin:miter;stroke-opacity:1;stroke-miterlimit:4;stroke-dasharray:none" />
    <path
       inkscape:connector-curvature="0"
       id="path8886"
       d="m 70.932204,299.61864 -0.508475,4.95763 -0.762712,0.63559 2.542373,2.54238 2.161017,2.66949 0.254237,2.28813 -1.652542,1.14407 -1.779661,-2.92373 -1.398305,-2.28813 -2.415255,-1.39831 -2.033898,1.52543 -2.542373,0.50847"
       style="fill:none;fill-rule:evenodd;stroke:#000000;stroke-width:2.6;stroke-linecap:butt;stroke-linejoin:miter;stroke-opacity:1;stroke-miterlimit:4;stroke-dasharray:none" />
    <g
       id="g8888"
       transform="matrix(1.4778529,0.03888977,-0.03888977,1.4778529,-602.48477,-119.82791)"
       style="stroke-width:1.75870023;stroke-miterlimit:4;stroke-dasharray:none">
      <g
         transform="matrix(5.8008026,0,0,-5.8008026,463.90456,270.22463)"
         id="g5269"
         style="stroke-width:0.30318222;stroke-miterlimit:4;stroke-dasharray:none">
        <path
           inkscape:connector-curvature="0"
           id="path5271"
           style="fill:#feeaa6;fill-opacity:1;fill-rule:nonzero;stroke:none;stroke-width:0.30318222;stroke-miterlimit:4;stroke-dasharray:none"
           d="m 0,0 c -0.312,-0.144 -0.456,-0.551 -0.216,-0.839 l 0.528,-0.744 -0.024,-0.12 c -0.408,0.24 -0.552,0.768 -0.983,0.984 C -0.911,-0.815 -1.103,-0.983 -1.343,-1.007 -1.487,-0.575 -1.487,0 -1.223,0.384 -0.786,0.578 -0.373,0.293 0,0" />
      </g>
      <g
         transform="matrix(5.8008026,0,0,-5.8008026,463.62671,273.56125)"
         id="g5273"
         style="stroke-width:0.30318222;stroke-miterlimit:4;stroke-dasharray:none">
        <path
           inkscape:connector-curvature="0"
           id="path5275"
           style="fill:#feeaa6;fill-opacity:1;fill-rule:nonzero;stroke:none;stroke-width:0.30318222;stroke-miterlimit:4;stroke-dasharray:none"
           d="m 0,0 c -0.096,0.192 0.144,0.216 0.264,0.312 l 0.048,0 L 0,0 Z" />
      </g>
      <g
         transform="matrix(5.8008026,0,0,-5.8008026,472.94569,279.8209)"
         id="g5281"
         style="stroke-width:0.30318222;stroke-miterlimit:4;stroke-dasharray:none">
        <path
           sodipodi:nodetypes="ccccccc"
           inkscape:connector-curvature="0"
           id="path5283"
           style="fill:#feeaa6;fill-opacity:1;fill-rule:nonzero;stroke:none;stroke-width:0.30318221;stroke-miterlimit:4;stroke-dasharray:none"
           d="M 0,0 C 0.072,-0.384 0.03311033,-0.8468473 -0.20688967,-1.1348473 -1.516886,-1.6897968 -2.0484897,-0.97052046 -2.542,-0.144 c 0.144,0.192 0.48,0.216 0.624,0.432 0.359,-0.024 0.599,-1.151 1.007,-0.384 C -1.031,0.144 -1.199,0.359 -1.319,0.6 -0.816,1.605 -0.343,0.369 0,0" />
      </g>
      <g
         transform="matrix(5.8008026,0,0,-5.8008026,460.28777,275.92623)"
         id="g5293"
         style="stroke-width:0.30318222;stroke-miterlimit:4;stroke-dasharray:none">
        <path
           inkscape:connector-curvature="0"
           id="path5295"
           style="fill:#feeaa6;fill-opacity:1;fill-rule:nonzero;stroke:none;stroke-width:0.30318222;stroke-miterlimit:4;stroke-dasharray:none"
           d="M 0,0 C -0.124,-0.103 -0.46,-0.321 -0.575,-0.288 -0.432,-0.216 -0.24,0.096 0,0" />
      </g>
      <g
         transform="matrix(5.8008026,0,0,-5.8008026,469.74771,281.76939)"
         id="g5305"
         style="stroke-width:0.30318222;stroke-miterlimit:4;stroke-dasharray:none">
        <path
           inkscape:connector-curvature="0"
           id="path5307"
           style="fill:#231f20;fill-opacity:1;fill-rule:nonzero;stroke:none;stroke-width:0.30318222;stroke-miterlimit:4;stroke-dasharray:none"
           d="M 0,0 C -0.12,-0.264 -0.408,-0.432 -0.647,-0.503 -0.72,-0.192 -0.288,-0.096 -0.12,0.096 -0.024,0.12 -0.024,0.072 0,0" />
      </g>
    </g>
  </g>
</svg>
