<?xml version="1.0" encoding="utf-8"?>
<!-- Generator: Adobe Illustrator 16.0.4, SVG Export Plug-In . SVG Version: 6.00 Build 0)  -->
<!DOCTYPE svg PUBLIC "-//W3C//DTD SVG 1.1//EN" "http://www.w3.org/Graphics/SVG/1.1/DTD/svg11.dtd">
<svg version="1.1" id="Layer_1" xmlns="http://www.w3.org/2000/svg" xmlns:xlink="http://www.w3.org/1999/xlink" x="0px" y="0px"
	 width="400px" height="300px" viewBox="0 0 400 300" enable-background="new 0 0 400 300" xml:space="preserve">
<g>
	<polygon fill="#8F4D91" points="359.6,34.9 354.9,221.9 143.1,0 326.7,0 	"/>
	<polygon fill="#8F4D91" points="352.1,224.7 265,294.3 0,29 0,0 132.7,0 	"/>
	<polygon fill="#8F4D91" points="262.2,295.9 0,36 0,132 136.2,267 	"/>
	<g>
		<polygon fill="#212121" points="217.1,60.4 190.4,31.8 197.5,21.5 224.6,49.8 		"/>
		<polygon fill="#212121" points="228.8,42.5 234.6,32.3 211.3,6.5 203.6,14.8 		"/>
		<polygon fill="#212121" points="278.7,107.7 254.4,81.6 249.8,93.7 275.3,122.3 		"/>
		<polygon fill="#212121" points="331.9,163.4 309.2,139.4 305.5,155 331.3,181.4 		"/>
		<polygon fill="#212121" points="334.4,139.1 333.5,153.7 311.4,130.4 313.2,115.5 		"/>
		<polygon fill="#212121" points="225.5,269.8 213.7,267.9 192.5,246.1 202.8,246.4 		"/>
		<polygon fill="#212121" points="203.7,266.1 194.1,265.2 175.7,245 183.8,245 		"/>
		<polygon fill="#212121" points="172,216.3 149.5,192.1 138.3,193.3 161.9,217 		"/>
		<polygon fill="#212121" points="116,160.3 90.5,133.5 84.6,138.2 109.2,164.6 		"/>
		<polygon fill="#212121" points="65.6,109.2 61.8,115.5 36.6,90.3 39.4,82.6 		"/>
		<polygon fill="#212121" points="58.2,120.4 55.3,125.2 31.3,101.2 33.5,96 		"/>
		<polygon fill="#212121" points="52.8,128.1 50,131.6 28,110.8 29.5,105.5 		"/>
		<polygon fill="#212121" points="104.3,166.4 98.3,169.3 75.8,146.2 80.7,141.7 		"/>
		<polygon fill="#212121" points="96.3,170 91.6,172.3 70.4,151.1 74,147.3 		"/>
		<polygon fill="#212121" points="180.3,262.8 190.1,264.1 169.8,243.7 161.4,243 		"/>
		<polygon fill="#212121" points="155.7,216.8 147.2,217.1 125.7,195.6 133.6,194.3 		"/>
		<polygon fill="#212121" points="176.6,262 169.1,260.6 150.7,242.2 158.2,242.5 		"/>
		<polygon fill="#212121" points="284.6,87.2 281.4,98.5 258.3,73.9 263,63.1 		"/>
		<polygon fill="#212121" points="336.3,121.7 335.6,133.2 313.9,110.8 316.2,99.8 		"/>
		<polygon fill="#212121" points="240.4,162.8 225.4,176.6 200.5,151.4 215.6,136.6 		"/>
		<polygon fill="#212121" points="223.8,178.5 199.7,153.1 185.1,166.5 209.8,191.5 		"/>
		<polygon fill="#212121" points="181,100.8 165.8,116.1 137.8,87.2 153.2,70.6 		"/>
		<polygon fill="#212121" points="163.8,117.2 136.7,88.9 122.4,102.6 149.9,132 		"/>
		<polygon fill="#212121" points="300.2,222.8 283.6,236.5 245.4,197.3 260.8,183.4 		"/>
		<polygon fill="#212121" points="281.5,238 268.1,250.8 229.9,211.9 243.9,198.8 		"/>
	</g>
	<polygon fill="#8F4D91" points="115.7,250.8 0,134.6 0,190.9 48.8,241.1 	"/>
</g>
</svg>
