<?xml version="1.0" encoding="utf-8"?>
<!-- Generator: Adobe Illustrator 21.0.2, SVG Export Plug-In . SVG Version: 6.00 Build 0)  -->
<svg version="1.1" id="Layer_1" xmlns="http://www.w3.org/2000/svg" xmlns:xlink="http://www.w3.org/1999/xlink" x="0px" y="0px"
	 viewBox="0 0 104 86" xml:space="preserve">
<path d="M51.04,83.52C54.5,56.29,57.95,29.49,61.4,2.27c-4.42,0.2-9.3-0.14-13.72-0.05c-1.5,14.11-2.98,28.22-4.46,42.33l0.01-0.01
	c-0.08,1.06-0.12,1.6-0.2,2.66c-0.35,0-0.53,0-0.89,0.01c-0.14-1.06-0.21-1.59-0.35-2.65c-1.8-14.09-3.6-28.17-5.39-42.26
	c-0.11,0-8.63-0.16-8.63-0.16c-1.59,14.02-3.19,28.04-4.79,42.06c-0.13,1.06-0.19,1.58-0.31,2.64c-0.35-0.02-0.53-0.02-0.88-0.04
	c-0.1-1.07-0.15-1.6-0.24-2.67c-1.69-14.17-3.38-28.34-5.06-42.52C12.05,1.34,6.9,1.17,2.47,0.75c3.84,27.39,7.69,54.77,11.54,82.16
	c3.72,0.23,8.52,0.32,12.24,0.45c1.75-12.78,3.5-25.56,5.25-38.33c0.25-1.9,0.38-2.85,0.63-4.74c0.18,0,0.27,0.01,0.44,0.01
	c0.28,1.91,0.42,2.86,0.7,4.77c1.94,12.85,3.87,25.7,5.81,38.55C42.8,83.61,47.33,83.59,51.04,83.52z M92.72,42.75
	c5.36-3.38,8.76-8.35,9.6-18.99c0.76-9.68-0.13-27.43-32.34-21.89L59.66,83.6c7.07-0.12,13.06-0.39,13.06-0.39
	c1.45-11.5,2.9-23,4.35-34.5c1.4-0.08,2.1-0.12,3.51-0.19c0,0,3.16,22.43,3.96,33.81c7.22-0.4,12.83-1.28,12.83-1.28
	C96.26,67.98,92.72,42.75,92.72,42.75z M78.49,37.57L78.49,37.57l3.06-24.27c3.63-0.2,9.62-0.09,8.14,11.59
	C88.21,36.58,82.12,37.37,78.49,37.57z"/>
</svg>
