<?xml version="1.0" encoding="utf-8"?>
<!-- Generator: Adobe Illustrator 21.0.2, SVG Export Plug-In . SVG Version: 6.00 Build 0)  -->
<svg version="1.1" id="Layer_1" xmlns="http://www.w3.org/2000/svg" xmlns:xlink="http://www.w3.org/1999/xlink" x="0px" y="0px"
	 viewBox="0 0 325 140" style="enable-background:new 0 0 325 140;" xml:space="preserve">
<style type="text/css">
	.st0{fill:#FFFFFF;}
</style>
<g>
	<path d="M311.66,89.8C311.66,89.8,311.66,89.8,311.66,89.8c-3.56-0.96-7.15-1.82-10.75-2.58c-3.6-0.76-7.21-1.42-10.85-1.99
		c-3.68-0.57-7.38-1.05-11.09-1.43c-3.63-0.37-7.26-0.66-10.9-0.86c-3.65-0.2-7.31-0.33-10.97-0.37c-0.44,0-0.89-0.01-1.33-0.01
		c-3.07-0.02-6.14,0.01-9.2,0.09c-3.05,0.08-6.1,0.21-9.15,0.38c-3.11,0.17-6.22,0.39-9.33,0.65c-3.1,0.26-6.21,0.56-9.3,0.89
		c-3.04,0.33-6.09,0.69-9.12,1.08c-3.1,0.4-6.2,0.82-9.3,1.27c-3.09,0.45-6.17,0.92-9.25,1.41c-3.1,0.5-6.2,1.01-9.29,1.54
		c-3.09,0.53-6.17,1.07-9.25,1.62c-3.1,0.55-6.2,1.12-9.3,1.69c-3.09,0.57-6.17,1.14-9.26,1.71c-3.04,0.56-6.08,1.12-9.13,1.68
		c-3.04,0.56-6.08,1.11-9.12,1.65c-3.04,0.54-6.08,1.07-9.12,1.59c-3.05,0.52-6.11,1.03-9.16,1.51c-3.09,0.49-6.19,0.97-9.29,1.41
		c-3.05,0.44-6.11,0.86-9.17,1.25c-3.08,0.39-6.17,0.76-9.26,1.09c-3.1,0.33-6.2,0.63-9.31,0.89c-3.07,0.26-6.14,0.47-9.22,0.65
		c-1.46,0.08-2.91,0.16-4.37,0.22c0,0,0,0,0,0c0,0,0,0,0,0c21.64-5.26,42.56-12.37,63.38-20.22c0-21.05,0-42.11,0-63.16
		c2.94-0.54,5.88-1.09,8.82-1.65c2.97-0.56,5.93-1.13,8.9-1.69c3-0.57,5.99-1.15,8.99-1.72c2.91-0.56,5.82-1.11,8.73-1.65
		c2.93-0.55,5.87-1.09,8.8-1.63c2.93-0.53,5.85-1.05,8.78-1.56c2.94-0.51,5.89-1,8.84-1.47c2.96-0.47,5.92-0.93,8.88-1.36
		c2.97-0.43,5.95-0.85,8.93-1.23c2.97-0.37,5.93-0.73,8.91-1.05c2.99-0.32,5.99-0.61,8.99-0.86c2.95-0.25,5.91-0.46,8.87-0.63
		c2.99-0.17,5.99-0.3,8.98-0.39c2.96-0.09,5.92-0.12,8.88-0.11c2.99,0.01,5.97,0.07,8.96,0.18c2.94,0.11,5.87,0.28,8.8,0.5
		c2.95,0.22,5.89,0.5,8.82,0.84c2.97,0.34,5.94,0.75,8.89,1.21c2.95,0.46,5.89,0.99,8.82,1.59c2.89,0.59,5.77,1.23,8.63,1.95
		c1.4,0.35,2.8,0.71,4.2,1.09c-2.31,4.38-4.6,8.76-6.88,13.15c-2.27,4.38-4.53,8.76-6.77,13.16c-1.26,2.46-2.51,4.93-3.75,7.39
		C300.15,61.58,305.95,75.67,311.66,89.8C311.66,89.8,311.66,89.8,311.66,89.8z M57.95,94.08L57.95,94.08v12.83
		c21.69-4.54,42.58-11.18,63.38-18.75C100.24,91.56,79.33,93.9,57.95,94.08z M18.62,9.29c3.42,0.62,6.86,1.15,10.31,1.6
		c3.4,0.45,6.81,0.82,10.23,1.11c3.39,0.29,6.79,0.51,10.2,0.66c3.4,0.15,6.81,0.23,10.22,0.24c3.39,0.01,6.78-0.04,10.17-0.14
		c3.39-0.11,6.78-0.27,10.17-0.49c3.41-0.22,6.82-0.49,10.22-0.81c3.4-0.32,6.8-0.69,10.2-1.09c3.41-0.41,6.82-0.86,10.23-1.34
		c3.44-0.49,6.88-1.01,10.31-1.56C84.33,11.2,49.07,11.47,13.35,2c1.14,2.75,1.7,4.11,2.84,6.84C17,8.99,17.8,9.15,18.62,9.29z
		 M63.61,92c-4.06-0.01-8.12-0.12-12.18-0.31c-4.08-0.19-8.16-0.5-12.23-0.9c-4.07-0.4-8.13-0.91-12.17-1.53
		c-4.11-0.63-8.19-1.38-12.26-2.24c-4.12-0.87-8.21-1.87-12.28-2.97c5.9-11.18,11.7-22.42,17.4-33.7
		C14.01,36.28,8.2,22.18,2.49,8.05c0,0,0,0,0.01,0c0,0,0,0,0,0l0,0c0.99,0.27,1.99,0.53,2.98,0.79c3.95,1.01,7.93,1.9,11.93,2.67
		c4.04,0.78,8.1,1.44,12.18,1.98c4.09,0.55,8.2,0.98,12.31,1.29c4.06,0.31,8.14,0.53,12.21,0.64c4.2,0.12,8.41,0.13,12.61,0.04
		c4.04-0.08,8.08-0.24,12.12-0.49c4.01-0.24,8.01-0.55,12-0.93c4.16-0.39,8.31-0.86,12.45-1.37c4.14-0.52,8.27-1.1,12.4-1.72
		c4.17-0.63,8.33-1.3,12.49-2.01v12.83l0,0v63.16c-1.01,0.17-2.02,0.34-3.03,0.51c-4.11,0.69-8.23,1.34-12.36,1.95
		c-4.14,0.61-8.29,1.18-12.45,1.7c-4.12,0.51-8.25,0.97-12.39,1.37c-4.16,0.4-8.32,0.74-12.49,1.01c-2.08,0.13-4.17,0.25-6.25,0.35
		C67.35,91.91,65.48,92,63.61,92z"/>
</g>
<g>
	<g>
		<path d="M300.97,116.83c-3.6-0.76-7.21-1.42-10.85-1.99c-3.68-0.57-7.38-1.05-11.09-1.43c-3.63-0.37-7.26-0.66-10.9-0.86
			c-3.65-0.2-7.31-0.33-10.97-0.37c-0.44,0-0.89-0.01-1.33-0.01c-3.07-0.02-6.14,0.01-9.2,0.09c-3.05,0.08-6.1,0.21-9.15,0.38
			c-3.11,0.17-6.22,0.39-9.33,0.65c-3.1,0.26-6.21,0.56-9.3,0.89c-3.04,0.33-6.09,0.69-9.12,1.08c-3.1,0.4-6.2,0.82-9.3,1.27
			c-3.09,0.45-6.17,0.92-9.25,1.41c-3.1,0.5-6.2,1.01-9.29,1.54c-3.09,0.53-6.17,1.07-9.25,1.62c-3.1,0.55-6.2,1.12-9.3,1.69
			c-3.09,0.57-6.17,1.14-9.26,1.71c-3.04,0.56-6.08,1.12-9.13,1.68c-3.04,0.56-6.08,1.11-9.12,1.65c-3.04,0.54-6.08,1.07-9.12,1.59
			c-3.05,0.52-6.11,1.02-9.16,1.51c-3.09,0.49-6.19,0.96-9.29,1.41c-3.05,0.44-6.11,0.86-9.17,1.25c-3.08,0.39-6.17,0.76-9.26,1.09
			c-3.1,0.33-6.2,0.63-9.31,0.89c-3.07,0.26-6.14,0.47-9.22,0.65c-1.46,0.08-9.57,0.74-9.58,0.74c0,0-3.78-27.22-3.78-27.22
			c0,0,11.9-0.14,13.35-0.22c3.08-0.18,6.15-0.39,9.22-0.65c3.11-0.26,6.21-0.56,9.31-0.89c3.09-0.33,6.18-0.69,9.26-1.09
			c3.06-0.39,6.11-0.81,9.17-1.25c3.1-0.45,6.2-0.92,9.29-1.41c3.06-0.49,6.11-0.99,9.16-1.51c3.04-0.52,6.08-1.05,9.12-1.59
			c3.04-0.54,6.08-1.09,9.12-1.65c3.04-0.56,6.08-1.12,9.13-1.68c3.09-0.57,6.17-1.14,9.26-1.71c3.1-0.57,6.2-1.13,9.3-1.69
			c3.08-0.55,6.16-1.09,9.25-1.62c3.1-0.53,6.19-1.04,9.29-1.54c3.08-0.49,6.16-0.97,9.25-1.41c3.1-0.45,6.19-0.88,9.3-1.27
			c3.04-0.39,6.08-0.75,9.12-1.08c3.1-0.33,6.2-0.63,9.3-0.89c3.11-0.26,6.22-0.48,9.33-0.65c3.05-0.17,6.1-0.3,9.15-0.38
			c3.07-0.08,6.14-0.11,9.2-0.09c0.44,0,0.89,0.01,1.33,0.01c3.66,0.04,7.32,0.16,10.97,0.37c3.64,0.2,7.27,0.49,10.9,0.86
			c3.71,0.38,7.4,0.86,11.09,1.43c3.63,0.56,7.25,1.23,10.85,1.99c3.61,0.76,8.36,1.62,11.92,2.58c0,0,11.67,28.68,11.67,28.68
			S318.15,119.56,300.97,116.83z"/>
	</g>
	<g>
		<path class="st0" d="M69.01,126.01l-0.19-5.78c-0.34,0.23-0.74,0.45-1.19,0.63c-0.45,0.19-0.83,0.34-1.14,0.45l-0.81-1.68
			c0.3-0.11,0.62-0.25,0.97-0.42c0.35-0.17,0.69-0.35,1.04-0.55c0.35-0.2,0.67-0.41,0.98-0.63c0.31-0.22,0.57-0.45,0.79-0.68
			l1.58-0.05l0.29,8.63l2.32-0.08l0.06,1.7l-7.09,0.24l-0.06-1.7L69.01,126.01z"/>
		<path class="st0" d="M76.33,122.15l5.16-0.24l0.09,2.02l-5.16,0.24L76.33,122.15z"/>
		<path class="st0" d="M91.51,118.99c0.02,0.36-0.03,0.7-0.16,1.04c-0.13,0.34-0.31,0.67-0.54,1c-0.23,0.33-0.49,0.65-0.79,0.95
			c-0.3,0.31-0.6,0.61-0.91,0.89c-0.16,0.14-0.33,0.31-0.53,0.51c-0.2,0.2-0.39,0.4-0.57,0.6c-0.18,0.21-0.32,0.41-0.44,0.62
			c-0.12,0.21-0.17,0.4-0.16,0.56l5.01-0.32l0.11,1.7l-7.61,0.48c-0.04-0.11-0.07-0.25-0.07-0.41c0-0.17-0.01-0.28-0.01-0.35
			c-0.04-0.56,0.05-1.07,0.25-1.56c0.2-0.48,0.47-0.93,0.8-1.35c0.33-0.42,0.69-0.81,1.08-1.17c0.39-0.36,0.75-0.71,1.09-1.05
			c0.34-0.33,0.61-0.65,0.83-0.96c0.21-0.3,0.31-0.61,0.29-0.91c-0.03-0.42-0.19-0.74-0.49-0.95c-0.3-0.21-0.67-0.3-1.11-0.27
			c-0.36,0.02-0.74,0.13-1.13,0.31c-0.39,0.18-0.77,0.47-1.14,0.86l-1.24-1.36c0.47-0.5,1.03-0.88,1.68-1.14
			c0.64-0.26,1.29-0.42,1.95-0.46c0.48-0.03,0.94,0,1.39,0.1c0.45,0.09,0.85,0.25,1.2,0.48c0.35,0.22,0.64,0.51,0.87,0.87
			C91.35,118.07,91.48,118.5,91.51,118.99z"/>
		<path class="st0" d="M99.46,124.68c0.04,0.49-0.1,0.87-0.42,1.16s-0.7,0.44-1.13,0.48c-0.23,0.02-0.44,0-0.65-0.05
			c-0.21-0.05-0.39-0.13-0.56-0.25c-0.17-0.11-0.31-0.26-0.41-0.44c-0.11-0.18-0.17-0.39-0.19-0.63c-0.02-0.23,0.01-0.45,0.09-0.64
			c0.08-0.19,0.19-0.35,0.34-0.49c0.15-0.13,0.32-0.24,0.51-0.33c0.19-0.08,0.41-0.13,0.63-0.15c0.44-0.04,0.84,0.06,1.2,0.29
			C99.23,123.86,99.43,124.21,99.46,124.68z"/>
		<path class="st0" d="M114.8,120.93c0.06,0.5,0.04,0.98-0.05,1.44c-0.09,0.46-0.28,0.87-0.58,1.24c-0.29,0.37-0.69,0.68-1.19,0.94
			c-0.5,0.25-1.13,0.43-1.88,0.51c-0.79,0.09-1.45,0.08-2-0.04c-0.55-0.12-1.01-0.28-1.41-0.49l0.69-1.73
			c0.33,0.14,0.7,0.27,1.1,0.39c0.4,0.12,0.8,0.16,1.2,0.11c0.6-0.07,1.07-0.27,1.4-0.59c0.34-0.32,0.46-0.87,0.37-1.63l-0.58-5.03
			l-3.88,0.45l-0.2-1.69l6.2-0.72L114.8,120.93z"/>
		<path class="st0" d="M120.95,123.8c-0.75,0.11-1.39,0.1-1.92-0.01s-0.97-0.31-1.32-0.61c-0.35-0.3-0.62-0.68-0.81-1.15
			c-0.19-0.47-0.33-1-0.42-1.59l-0.93-6.53l2.32-0.33l0.91,6.4c0.06,0.43,0.14,0.79,0.23,1.07c0.09,0.29,0.21,0.51,0.35,0.67
			c0.14,0.16,0.33,0.26,0.55,0.31c0.22,0.05,0.5,0.05,0.82,0c0.32-0.05,0.59-0.12,0.79-0.23c0.2-0.11,0.35-0.26,0.45-0.46
			c0.1-0.2,0.15-0.45,0.16-0.75c0.01-0.3-0.02-0.66-0.08-1.09l-0.91-6.38l2.3-0.33l0.93,6.53c0.08,0.6,0.1,1.14,0.04,1.65
			c-0.06,0.5-0.21,0.95-0.48,1.33c-0.26,0.39-0.64,0.71-1.12,0.96C122.33,123.51,121.71,123.69,120.95,123.8z"/>
		<path class="st0" d="M132.21,121.78c-0.71-1.04-1.47-2.07-2.28-3.09c-0.81-1.02-1.66-2.04-2.56-3.05l1.16,6.77l-2.06,0.35
			l-1.74-10.19l1.84-0.31c0.43,0.42,0.87,0.89,1.31,1.39c0.44,0.51,0.88,1.01,1.3,1.51c0.42,0.5,0.82,1,1.19,1.47
			c0.37,0.48,0.69,0.9,0.95,1.26l-1.07-6.27l2.06-0.35l1.74,10.19L132.21,121.78z"/>
		<path class="st0" d="M136.01,121.1l-1.95-10.16l6.95-1.34l0.32,1.67l-4.67,0.9l0.44,2.28l4.06-0.78l0.32,1.67l-4.06,0.78
			l0.55,2.85l5.08-0.98l0.32,1.67L136.01,121.1z"/>
		<path class="st0" d="M153.83,109.73c0.07,0.35,0.07,0.7-0.01,1.05c-0.08,0.35-0.21,0.71-0.39,1.06c-0.18,0.36-0.4,0.71-0.64,1.06
			c-0.25,0.35-0.5,0.69-0.77,1.02c-0.13,0.16-0.28,0.36-0.46,0.58c-0.17,0.22-0.33,0.45-0.47,0.68c-0.14,0.23-0.26,0.46-0.35,0.68
			c-0.09,0.22-0.11,0.42-0.08,0.58l4.91-1.03l0.35,1.67l-7.46,1.57c-0.06-0.1-0.1-0.23-0.13-0.4c-0.03-0.16-0.05-0.28-0.06-0.35
			c-0.11-0.54-0.11-1.07,0.03-1.58c0.13-0.51,0.33-0.99,0.6-1.45c0.27-0.46,0.57-0.9,0.9-1.32c0.33-0.42,0.64-0.81,0.92-1.19
			c0.29-0.38,0.51-0.73,0.68-1.07c0.17-0.33,0.22-0.64,0.16-0.94c-0.09-0.41-0.3-0.7-0.63-0.87c-0.33-0.16-0.71-0.2-1.14-0.11
			c-0.36,0.08-0.72,0.23-1.08,0.47c-0.36,0.24-0.7,0.57-1,1.01l-1.42-1.17c0.4-0.56,0.89-1.02,1.49-1.37
			c0.6-0.35,1.22-0.6,1.86-0.73c0.47-0.1,0.93-0.13,1.39-0.1c0.46,0.03,0.88,0.13,1.26,0.3c0.38,0.17,0.71,0.42,0.98,0.74
			C153.54,108.85,153.73,109.25,153.83,109.73z"/>
		<path class="st0" d="M164.09,110c0.38,1.79,0.33,3.19-0.16,4.2c-0.49,1.02-1.38,1.66-2.67,1.94c-1.29,0.28-2.37,0.05-3.23-0.67
			c-0.86-0.73-1.49-1.98-1.87-3.77c-0.38-1.76-0.32-3.16,0.18-4.17c0.5-1.02,1.39-1.66,2.65-1.94c1.29-0.28,2.37-0.06,3.23,0.66
			C163.09,106.98,163.71,108.23,164.09,110z M162.04,110.44c-0.25-1.15-0.6-2-1.06-2.53c-0.46-0.53-1-0.73-1.62-0.6
			c-0.61,0.13-1.02,0.54-1.23,1.21c-0.2,0.68-0.18,1.59,0.07,2.74c0.25,1.17,0.61,2.01,1.07,2.55c0.46,0.53,1,0.73,1.61,0.6
			c0.63-0.13,1.04-0.54,1.23-1.21C162.32,112.53,162.29,111.61,162.04,110.44z M161.12,110.47c0.06,0.29,0.02,0.57-0.12,0.82
			c-0.15,0.25-0.36,0.41-0.66,0.48c-0.32,0.07-0.59,0.02-0.82-0.16c-0.23-0.17-0.38-0.41-0.44-0.7c-0.06-0.29-0.03-0.57,0.11-0.83
			c0.14-0.26,0.37-0.42,0.69-0.49c0.3-0.06,0.56-0.01,0.8,0.17C160.91,109.94,161.06,110.18,161.12,110.47z"/>
		<path class="st0" d="M169.39,112.44l-1.2-5.66c-0.3,0.29-0.65,0.57-1.06,0.83c-0.41,0.26-0.75,0.48-1.04,0.64l-1.09-1.51
			c0.27-0.16,0.57-0.35,0.88-0.58c0.31-0.23,0.62-0.47,0.93-0.73c0.31-0.26,0.59-0.52,0.85-0.8c0.26-0.27,0.48-0.54,0.66-0.81
			l1.55-0.33l1.79,8.45l2.27-0.48l0.35,1.67l-6.94,1.47l-0.35-1.67L169.39,112.44z"/>
		<path class="st0" d="M177.45,112.51c-0.1-0.71-0.12-1.47-0.06-2.3c0.07-0.83,0.18-1.65,0.34-2.48c0.16-0.83,0.36-1.62,0.59-2.38
			c0.23-0.76,0.47-1.41,0.7-1.97l-4.81,0.96l-0.33-1.67l7.47-1.49l0.3,1.52c-0.27,0.41-0.53,0.95-0.81,1.64
			c-0.27,0.69-0.51,1.46-0.7,2.3c-0.2,0.85-0.34,1.73-0.43,2.67c-0.09,0.93-0.08,1.84,0.04,2.73L177.45,112.51z"/>
		<path class="st0" d="M189.05,98.42l2.31-0.4l2.44,14.23l-2.31,0.4L189.05,98.42z"/>
		<path class="st0" d="M200.63,103.13c-0.23-1.77-0.04-3.15,0.58-4.15c0.62-1,1.58-1.58,2.89-1.75c1.36-0.18,2.45,0.14,3.28,0.94
			c0.83,0.81,1.36,2.09,1.59,3.86c0.23,1.77,0.05,3.15-0.56,4.14c-0.6,1-1.57,1.58-2.89,1.75c-1.36,0.18-2.46-0.13-3.29-0.94
			C201.4,106.19,200.87,104.9,200.63,103.13z M202.97,102.83c0.07,0.5,0.15,0.96,0.25,1.39c0.1,0.43,0.24,0.8,0.41,1.1
			c0.17,0.3,0.39,0.53,0.65,0.69c0.26,0.16,0.59,0.21,0.99,0.16c0.39-0.05,0.69-0.19,0.91-0.41c0.22-0.22,0.37-0.5,0.46-0.84
			c0.09-0.34,0.13-0.73,0.11-1.17c-0.01-0.44-0.05-0.9-0.12-1.4c-0.07-0.5-0.15-0.96-0.25-1.39c-0.1-0.43-0.24-0.8-0.41-1.1
			c-0.17-0.3-0.39-0.53-0.65-0.69c-0.26-0.16-0.59-0.21-0.99-0.16c-0.4,0.05-0.7,0.19-0.92,0.41c-0.21,0.22-0.36,0.5-0.45,0.84
			c-0.09,0.34-0.13,0.73-0.11,1.17C202.87,101.86,202.91,102.33,202.97,102.83z"/>
		<path class="st0" d="M214.28,105.15c0.39-0.04,0.71-0.11,0.95-0.21c0.25-0.1,0.44-0.22,0.58-0.36c0.14-0.14,0.22-0.3,0.26-0.47
			c0.04-0.17,0.05-0.33,0.03-0.5c-0.02-0.21-0.11-0.39-0.27-0.54c-0.16-0.15-0.35-0.28-0.57-0.38c-0.23-0.1-0.48-0.2-0.75-0.27
			c-0.27-0.08-0.55-0.15-0.82-0.21c-0.36-0.07-0.74-0.16-1.13-0.27c-0.39-0.1-0.75-0.25-1.08-0.44c-0.33-0.19-0.61-0.44-0.85-0.74
			c-0.24-0.31-0.38-0.7-0.43-1.19c-0.1-0.96,0.17-1.75,0.82-2.37c0.65-0.62,1.59-0.99,2.83-1.13c0.71-0.08,1.34-0.07,1.89,0.02
			c0.55,0.09,1.01,0.2,1.39,0.34l-0.51,1.65c-0.33-0.12-0.69-0.22-1.08-0.29c-0.39-0.07-0.84-0.08-1.34-0.02
			c-1.23,0.13-1.8,0.59-1.71,1.38c0.02,0.2,0.1,0.37,0.24,0.5c0.14,0.14,0.31,0.25,0.52,0.35c0.21,0.1,0.44,0.17,0.69,0.24
			c0.25,0.06,0.5,0.12,0.75,0.17c0.38,0.08,0.77,0.18,1.18,0.29c0.41,0.11,0.79,0.27,1.15,0.48c0.36,0.21,0.66,0.49,0.92,0.84
			c0.25,0.35,0.41,0.8,0.47,1.37c0.1,0.96-0.17,1.75-0.82,2.35c-0.65,0.6-1.69,0.98-3.13,1.13c-0.96,0.1-1.74,0.09-2.34-0.03
			c-0.59-0.12-1.04-0.24-1.35-0.37l0.5-1.73c0.36,0.14,0.78,0.26,1.26,0.37C213.02,105.21,213.6,105.23,214.28,105.15z"/>
		<path class="st0" d="M228.04,105.4l-7.31,0.61l-0.86-10.31l2.33-0.19l0.71,8.61l4.98-0.41L228.04,105.4z"/>
		<path class="st0" d="M228.94,100.14c-0.1-1.78,0.19-3.14,0.88-4.09c0.69-0.95,1.69-1.46,3.01-1.54c1.37-0.08,2.44,0.31,3.21,1.18
			c0.77,0.86,1.21,2.19,1.31,3.97c0.1,1.78-0.18,3.14-0.86,4.09c-0.68,0.95-1.68,1.46-3.01,1.54c-1.37,0.08-2.44-0.31-3.21-1.18
			C229.48,103.24,229.04,101.92,228.94,100.14z M231.29,100c0.03,0.5,0.08,0.97,0.15,1.41c0.07,0.44,0.18,0.81,0.33,1.13
			c0.15,0.31,0.35,0.56,0.6,0.73c0.25,0.18,0.58,0.25,0.98,0.23c0.39-0.02,0.7-0.14,0.93-0.34c0.23-0.2,0.41-0.47,0.52-0.81
			c0.11-0.34,0.18-0.72,0.2-1.16c0.02-0.44,0.01-0.9-0.02-1.4c-0.03-0.5-0.08-0.97-0.15-1.41c-0.07-0.44-0.18-0.81-0.33-1.13
			c-0.15-0.31-0.35-0.56-0.6-0.73c-0.25-0.17-0.58-0.25-0.98-0.23c-0.4,0.02-0.72,0.14-0.94,0.34c-0.23,0.2-0.4,0.47-0.51,0.81
			c-0.11,0.34-0.18,0.72-0.2,1.16C231.26,99.03,231.26,99.5,231.29,100z"/>
		<path class="st0" d="M240.49,105.93c0.22-0.05,0.45-0.1,0.68-0.14c0.23-0.04,0.45-0.1,0.65-0.17c0.21-0.07,0.39-0.17,0.55-0.3
			c0.16-0.13,0.29-0.3,0.38-0.51c-0.48-0.03-0.86-0.18-1.13-0.46c-0.27-0.28-0.42-0.6-0.43-0.96c-0.01-0.43,0.13-0.8,0.45-1.08
			c0.31-0.29,0.71-0.44,1.2-0.46c0.53-0.02,0.94,0.13,1.25,0.43c0.31,0.3,0.47,0.72,0.48,1.25c0.01,0.39-0.04,0.78-0.17,1.18
			c-0.13,0.39-0.34,0.76-0.63,1.11c-0.3,0.34-0.69,0.65-1.17,0.91c-0.48,0.26-1.07,0.44-1.78,0.54L240.49,105.93z"/>
		<path class="st0" d="M258.22,104.49c-0.52-1.15-1.08-2.3-1.69-3.45c-0.61-1.15-1.27-2.3-1.98-3.45l-0.06,6.87l-2.09-0.02
			l0.1-10.34l1.87,0.02c0.35,0.49,0.69,1.03,1.04,1.61c0.35,0.58,0.68,1.15,1.01,1.72c0.33,0.57,0.63,1.13,0.91,1.66
			c0.28,0.54,0.52,1.01,0.71,1.41l0.06-6.37l2.09,0.02l-0.1,10.34L258.22,104.49z"/>
		<path class="st0" d="M261.6,99.36c0.08-1.78,0.51-3.11,1.29-3.98c0.78-0.87,1.83-1.28,3.15-1.23c1.37,0.06,2.39,0.56,3.07,1.5
			c0.68,0.94,0.98,2.3,0.9,4.08c-0.08,1.78-0.5,3.11-1.27,3.98c-0.77,0.88-1.82,1.28-3.15,1.23c-1.37-0.06-2.4-0.56-3.08-1.5
			C261.82,102.5,261.52,101.14,261.6,99.36z M263.96,99.46c-0.02,0.5-0.02,0.97,0,1.41c0.02,0.44,0.1,0.83,0.21,1.15
			c0.12,0.33,0.29,0.59,0.52,0.79c0.23,0.2,0.55,0.31,0.95,0.33c0.39,0.02,0.71-0.06,0.96-0.24c0.25-0.18,0.45-0.43,0.6-0.75
			c0.15-0.32,0.25-0.7,0.31-1.13c0.06-0.43,0.11-0.9,0.13-1.4c0.02-0.5,0.02-0.97,0-1.41c-0.03-0.44-0.1-0.83-0.21-1.15
			c-0.12-0.33-0.29-0.59-0.52-0.79c-0.23-0.2-0.55-0.31-0.95-0.33c-0.4-0.02-0.73,0.06-0.97,0.24c-0.25,0.18-0.44,0.43-0.59,0.75
			c-0.15,0.32-0.25,0.7-0.31,1.13C264.02,98.5,263.98,98.96,263.96,99.46z"/>
		<path class="st0" d="M275.08,94.83c0.66,0.06,1.26,0.17,1.79,0.35c0.53,0.18,0.97,0.42,1.34,0.73c0.36,0.31,0.63,0.69,0.8,1.13
			c0.17,0.44,0.23,0.96,0.18,1.53c-0.05,0.6-0.23,1.13-0.55,1.6c-0.32,0.47-0.81,0.8-1.47,1c0.19,0.31,0.39,0.64,0.6,1.01
			c0.21,0.37,0.41,0.76,0.6,1.16c0.19,0.4,0.38,0.8,0.55,1.2c0.17,0.4,0.32,0.78,0.44,1.14l-2.42-0.2
			c-0.23-0.69-0.51-1.36-0.84-2.01c-0.33-0.65-0.69-1.31-1.07-1.98l-1.2-0.1l-0.32,3.8l-2.31-0.2l0.86-10.16
			c0.23-0.03,0.48-0.05,0.75-0.06c0.27-0.02,0.55-0.02,0.82-0.01c0.28,0.01,0.54,0.01,0.79,0.02
			C274.67,94.8,274.89,94.81,275.08,94.83z M276.84,98.37c0.05-0.54-0.11-0.96-0.46-1.25c-0.35-0.29-0.84-0.46-1.45-0.51
			c-0.09-0.01-0.19-0.01-0.32-0.02c-0.13,0-0.25,0-0.38,0.01l-0.26,3.1l0.51,0.04c0.79,0.07,1.37-0.02,1.74-0.26
			C276.59,99.24,276.8,98.86,276.84,98.37z"/>
		<path class="st0" d="M285.86,99.8c0.02,0.22,0.06,0.49,0.12,0.81c0.06,0.32,0.12,0.68,0.19,1.07c0.07,0.39,0.14,0.81,0.23,1.26
			c0.09,0.45,0.17,0.91,0.24,1.38c0.08-0.57,0.14-1.19,0.2-1.85c0.06-0.66,0.11-1.34,0.17-2.03c0.06-0.69,0.12-1.39,0.18-2.09
			c0.06-0.71,0.14-1.38,0.22-2.04l2.32,0.31c-0.15,0.83-0.3,1.69-0.46,2.58c-0.16,0.88-0.32,1.76-0.49,2.63
			c-0.17,0.87-0.34,1.73-0.53,2.57c-0.18,0.84-0.37,1.64-0.56,2.39l-1.91-0.26c-0.18-0.73-0.35-1.52-0.52-2.35
			c-0.17-0.84-0.34-1.64-0.51-2.4c-0.37,0.66-0.76,1.38-1.16,2.15c-0.41,0.78-0.78,1.5-1.13,2.16l-1.91-0.26
			c0-0.78,0.02-1.6,0.06-2.46c0.04-0.87,0.09-1.74,0.15-2.63c0.06-0.89,0.13-1.77,0.22-2.67c0.08-0.89,0.17-1.76,0.25-2.59
			l2.13,0.29c-0.1,0.65-0.2,1.32-0.31,2.02c-0.11,0.69-0.21,1.38-0.32,2.07c-0.11,0.69-0.21,1.36-0.31,2.02
			c-0.1,0.66-0.19,1.27-0.27,1.84c0.16-0.34,0.34-0.71,0.54-1.11c0.2-0.4,0.39-0.8,0.58-1.19c0.19-0.39,0.36-0.75,0.52-1.08
			c0.16-0.33,0.28-0.59,0.37-0.78L285.86,99.8z"/>
		<path class="st0" d="M295.25,108.22l-0.07-2.45l-3.05-0.61l-0.98,2.24l-2.37-0.47c0.94-1.89,1.85-3.6,2.73-5.14
			c0.88-1.53,1.73-2.99,2.54-4.36l2.48,0.49c0.25,1.59,0.47,3.28,0.68,5.05c0.21,1.77,0.37,3.68,0.49,5.73L295.25,108.22z
			 M294.85,99.64c-0.2,0.36-0.39,0.7-0.56,1.02c-0.17,0.32-0.34,0.64-0.5,0.96c-0.16,0.31-0.31,0.63-0.46,0.96
			c-0.15,0.32-0.29,0.66-0.44,1l2.24,0.45c0-0.38-0.01-0.74-0.01-1.09c-0.01-0.35-0.02-0.71-0.05-1.06
			c-0.03-0.35-0.06-0.71-0.09-1.07C294.93,100.43,294.89,100.04,294.85,99.64z"/>
		<path class="st0" d="M303.8,104.59c0.2-0.21,0.45-0.47,0.73-0.8c0.28-0.32,0.57-0.67,0.87-1.04c0.3-0.37,0.59-0.74,0.87-1.12
			c0.29-0.38,0.54-0.72,0.78-1.03l2.3,0.66c-0.39,0.48-0.77,0.94-1.15,1.39c-0.38,0.45-0.77,0.89-1.16,1.32
			c-0.4,0.43-0.81,0.85-1.25,1.27c-0.43,0.41-0.89,0.84-1.38,1.26l-1.09,3.79l-2.25-0.65l1.08-3.77c-0.37-1.23-0.66-2.41-0.87-3.55
			c-0.22-1.13-0.4-2.31-0.54-3.54l2.39,0.69c0.06,0.85,0.14,1.72,0.25,2.62C303.48,102.99,303.62,103.82,303.8,104.59z"/>
	</g>
</g>
<path d="M299.33,125.81c-1.14-2.75-1.71-4.11-2.84-6.84l0,0c-71.85-13.66-141.22,12.2-212.2,19.45
	C156.33,133.14,227.09,108.79,299.33,125.81z"/>
<g>
	<path class="st0" d="M164.72,44.4L164.72,44.4c0.3-7.35-4.34-14.42-12.6-12.08c-2.96,0.57-4.44,0.86-7.4,1.43v50.32
		c2.96-0.57,4.44-0.85,7.39-1.42c0-7.08,0-14.15,0-21.23c0.79-0.15,1.19-0.23,1.99-0.39c1.28,6.83,2.56,13.65,3.84,20.48
		c2.96-0.58,4.44-0.86,7.39-1.43c-1.58-7.82-3.15-15.64-4.72-23.46C163.42,54.17,164.53,49.19,164.72,44.4z M152.13,54.57
		L152.13,54.57l0-14.93c2.05-0.4,5.48-0.79,5.48,6.4C157.6,53.24,154.18,54.18,152.13,54.57z"/>
	<path class="st0" d="M176.84,56.47L176.84,56.47c2.74-0.51,4.11-0.76,6.85-1.25v-8.08c-2.74,0.49-4.11,0.74-6.85,1.25V35.17
		c3.81-0.71,5.71-1.06,9.52-1.73v-7.6c-6.76,1.19-10.15,1.83-16.91,3.13c0,16.77,0,33.55,0,50.32c6.76-1.29,10.15-1.93,16.91-3.13
		c0-3.04,0-4.56,0-7.6c-3.81,0.67-5.71,1.02-9.52,1.73V56.47z"/>
	<path class="st0" d="M205.87,46.44L205.87,46.44c3.56-3.59,4.49-6.49,4.58-11.05c0.18-8.5-5.26-12.75-13.49-11.34
		c-2.78,0.47-6.5,1.08-6.5,1.08v50.32c3.64-0.62,5.46-0.93,9.11-1.5c7.89-1.3,11.56-8.6,11.44-15.91
		C210.84,48.23,205.87,46.44,205.87,46.44z M197.86,66.9L197.86,66.9l0-15.48c1.37-0.22,5.48-1.4,5.48,6.89
		C203.34,66.61,199.23,66.69,197.86,66.9z M197.86,44.65L197.86,44.65l0-13.42c1.37-0.22,5.48-1.05,5.48,5.86
		C203.34,44.01,199.23,44.43,197.86,44.65z"/>
	<path class="st0" d="M215.38,71.73c6.76-0.84,10.15-1.19,16.91-1.72c0-3.04,0-4.56,0-7.6c-3.81,0.29-5.71,0.47-9.52,0.87V49.45
		c2.74-0.29,4.11-0.42,6.85-0.65v-8.08c-2.74,0.23-4.11,0.36-6.85,0.65V28.16c3.81-0.4,5.71-0.57,9.52-0.87v-7.6
		c-6.76,0.52-10.15,0.88-16.91,1.71V71.73z"/>
	<path class="st0" d="M243.79,19.02c-2.95,0.11-4.43,0.19-7.39,0.38v50.32c6.87-0.44,10.31-0.57,17.19-0.58V62.3
		c-3.92,0-5.87,0.05-9.79,0.2C243.79,48.01,243.79,33.52,243.79,19.02z"/>
	<path class="st0" d="M265.77,18.58c-6.94-0.17-9.65,6.01-9.65,11.49c0,5.41,3.34,10.58,6.78,15.84c2.82,4.31,5.96,8.59,5.96,11.95
		c0,3.15-0.82,5.48-3.01,5.37c-3.08-0.16-3.49-4.53-3.49-8.71c-2.9,0.17-4.35,0.28-7.26,0.54c-0.42,7.07,2.51,14.79,10.75,14.95
		c7.83,0.15,10.27-5.19,10.27-11.9c0-5.41-3.48-10.82-6.92-16.12c-2.82-4.36-5.82-8.32-5.82-11.74c-0.01-2.88,0.64-4.95,2.52-4.89
		l0.01,0c2.42,0.08,2.94,4.07,2.94,7.43c2.9-0.09,4.36-0.11,7.26-0.09C276.32,26.14,273.45,18.77,265.77,18.58z"/>
	<path class="st0" d="M110.29,48.63L110.29,48.63c3.56-3.61,4.49-6.56,4.59-11.11c0.19-8.54-5.32-12.55-13.49-11.4
		c-2.77,0.39-6.5,0.8-6.5,0.8c0,16.77,0,33.55,0,50.32c3.64-0.42,5.46-0.65,9.11-1.14c7.95-1.21,11.56-8.64,11.43-15.93
		C115.26,50.33,110.29,48.63,110.29,48.63z M102.28,69L102.28,69l0-15.47c1.37-0.18,5.48-1.31,5.48,6.98
		C107.76,68.78,103.65,68.81,102.28,69z M102.28,46.74c0-5.37,0-8.05,0-13.42c1.37-0.18,5.48-0.96,5.48,5.95
		C107.76,46.18,103.65,46.56,102.28,46.74z"/>
	<path class="st0" d="M90.78,27.36c-6.76,0.7-10.15,0.98-16.91,1.33c0,16.77,0,33.55,0,50.32c6.76-0.35,10.15-0.63,16.91-1.33v-7.6
		c-3.81,0.4-5.71,0.57-9.52,0.86V60.57c0-1.38,0-2.07,0-3.45c2.74-0.21,4.11-0.33,6.85-0.59v-8.08c-2.74,0.26-4.11,0.38-6.85,0.59
		V35.82c3.81-0.3,5.71-0.47,9.52-0.87c0,0,0,0.01,0,0.01l0-0.01l0,0C90.78,31.92,90.78,30.4,90.78,27.36z"/>
	<path class="st0" d="M60.51,55.22L60.51,55.22c-0.05,0.65-0.07,0.98-0.13,1.64c-0.22,0-0.33,0-0.55,0
		c-0.08-0.66-0.12-0.99-0.2-1.64c-1.05-8.73-2.1-17.45-3.15-26.18c-0.07,0-5.34-0.14-5.34-0.14c-1.05,8.67-2.1,17.34-3.15,26.01
		c-0.08,0.65-0.12,0.98-0.21,1.63c-0.22-0.01-0.33-0.02-0.55-0.03c-0.06-0.66-0.08-0.99-0.14-1.65c-0.98-8.78-1.96-17.56-2.94-26.34
		c-2.74-0.19-4.11-0.3-6.85-0.58c2.26,16.97,4.51,33.94,6.78,50.9c2.3,0.16,3.45,0.22,5.75,0.32c1.14-7.9,2.28-15.8,3.42-23.7
		c0.16-1.17,0.25-1.76,0.41-2.93c0.11,0,0.16,0,0.27,0.01c0.16,1.18,0.25,1.77,0.41,2.95c1.14,7.96,2.28,15.92,3.42,23.88
		c2.3,0.02,3.45,0.02,5.75-0.01c2.26-16.83,4.52-33.67,6.78-50.5c-2.74,0.11-4.11,0.14-6.85,0.18
		C62.48,37.77,61.49,46.49,60.51,55.22z"/>
</g>
</svg>
