<?xml version="1.0" encoding="utf-8"?>
<!-- Generator: Adobe Illustrator 21.0.2, SVG Export Plug-In . SVG Version: 6.00 Build 0)  -->
<svg version="1.1" id="layer_1" xmlns="http://www.w3.org/2000/svg" xmlns:xlink="http://www.w3.org/1999/xlink" x="0px" y="0px"
	 viewBox="0 0 222 222" style="enable-background:new 0 0 222 222;" xml:space="preserve">
<style type="text/css">
	.bg{fill:#000}
	.js{fill:#f4db19; stroke: #f4db19;}
</style>
<rect x="-0.09" y="-0.09" class="bg" width="222.18" height="222.18"/>
<path class="js" d="M149.16,173.49c4.48,7.31,10.3,12.68,20.6,12.68c8.65,0,14.18-4.32,14.18-10.3c0-7.16-5.68-9.69-15.2-13.86l-5.22-2.24
	c-15.07-6.42-25.07-14.46-25.07-31.46c0-15.66,11.93-27.58,30.58-27.58c13.27,0,22.82,4.62,29.69,16.72l-16.26,10.44
	c-3.58-6.42-7.44-8.95-13.44-8.95c-6.12,0-9.99,3.88-9.99,8.95c0,6.26,3.88,8.8,12.84,12.68l5.22,2.24
	c17.74,7.61,27.75,15.36,27.75,32.8c0,18.8-14.77,29.09-34.6,29.09c-19.39,0-31.92-9.24-38.05-21.35L149.16,173.49z M75.41,175.3
	c3.28,5.82,6.26,10.74,13.44,10.74c6.86,0,11.19-2.68,11.19-13.12v-70.99h20.88v71.27c0,21.62-12.67,31.46-31.18,31.46
	c-16.72,0-26.4-8.65-31.32-19.07L75.41,175.3z"/>
</svg>
