<?xml version="1.0" encoding="utf-8"?>
<!-- Generator: Adobe Illustrator 21.0.2, SVG Export Plug-In . SVG Version: 6.00 Build 0)  -->
<svg version="1.1" id="Layer_1" xmlns="http://www.w3.org/2000/svg" xmlns:xlink="http://www.w3.org/1999/xlink" x="0px" y="0px"
	 viewBox="0 0 179 223" style="enable-background:new 0 0 179 223;" xml:space="preserve">
<path d="M141.46,130.96l-21.11-17.03l-2.79,3.62l-20.5-15.01l-12.23-2.23l0.96,37.84l-5.64-38.12L56.95,80.3l-15.26-2.91l9.24-2.57
	l-4.81-5.37l40.35,10.53l0.03-28.5l-56.94-7.49L5.93,87.46l20.25,45.52l28.01,15.5l-26.86-7.98L2,182.49l88.24,38.31l20.05-50.39
	l-19.14-9.08l35.26,3.85l21.78-41.88L141.46,130.96z M96.21,11.12L68.87,2.2l-20.5,40.15l30.26,4.41L96.21,11.12z M90.89,48.48
	l-0.17,37.03l-24.57-6.45l-1.33,2.34l17.49,15.06l9.02,0.68l45.15-68.38L107.19,9L83.65,47.33L90.89,48.48z M116.68,111.34
	l43.16-55.88L137.78,38.5L97.92,97.6L116.68,111.34z M140.9,124.72L177,83.75l-16.15-15.85l-36.8,43.27L140.9,124.72z"/>
</svg>
