<svg xmlns="http://www.w3.org/2000/svg"
  width="180px" height="240px" viewBox="0 0 180 240">
  <g fill="#E3CF4B">
    <polygon points="152.1,114.2 127.4,103 125.6,107.2 102,97.8 89.6,98.7 100,135.1 85,99.6 57.6,86.3 42.1,87.3 50.4,82.5 44.4,78.5 86.1,78.6 79,51 22,58 10,106 41,145 72,153 44,152 23,240 122.5,240 131.8,160.2 111,156.2 146.1,151.1 156.7,105.1 "/>
    <polygon points="78.3,9.5 49.6,7.7 39.8,51.7 70.2,48.4 "/>
    <polygon points="82.5,47 91.6,82.9 66.2,82.8 65.5,85.4 86.2,95.6 95.1,94 121.7,16.5 88.4,4.7 75.2,47.7 "/>
    <polygon points="123.2,101.4 151,36.5 125.4,25.6 101.6,92.8 "/>
    <polygon points="150,108.3 174.7,59.6 155.1,48.3 130.3,99.4 "/>    
  </g>
</svg>