<svg xmlns="http://www.w3.org/2000/svg" viewBox="0 0 280 160"><title>bekk</title><path d="M17.11,50.74H39s18-1.52,18,13.65-15.54,14-18.51,14l-21.5,0V71.68H39.3s9.8.45,9.8-7.29c0-7.48-6.62-7-10-7h-22v-6.7Z"/><path d="M54.06,83.43a12.7,12.7,0,0,1,6.31,11.44c0,15.17-15.55,14.32-18.52,14.32l-24.87,0v-6.72H42.5s9.91.13,10-7.61c0-5.32-3.34-9.37-6.57-11.44h8.16Z"/><path d="M79.84,83.43h9.35V96.7c0,4.36,2.61,5.78,5.2,5.78h25.55l0,6.82H89.14c-3.21,0-9.31-2.08-9.31-10.73V83.43Z"/><path d="M120,71.72H93.57c-2.59,0-4.42-.25-4.42-3.22,0-.46,0-7.22,0-7.74,0-3.12,1.6-3.31,4.19-3.31h26.56v-6.7H89.81s-10-.67-10,10v7.45c0,9.58,7.15,10.21,10.35,10.21h29.75l.06-6.67Z"/><path d="M186.87,50.75c-1.41,1.55-14.47,17.16-16.12,18.8C168,72.28,163,71.7,159,71.7s-4.76-3.08-4.76-5.17,0-13.87,0-15.77H145c0,2,0,18.35,0,20.94,0,2.06,1,6.72,9.25,6.72l16,0c2.05,0,5.14-1.25,8.69-5.44,1-1.24,16.21-19.48,18.68-22.19H186.87Z"/><path d="M177.71,87.63c-2-2.11-3.73-4.2-9.87-4.2h-13.6c-6.81,0-9.23,4.94-9.23,7.53v18.25l9.27,0c0-1.89,0-13.62,0-15.72s.61-3.28,4.68-3.28,3.38,0,3.83,0c3.83,0,6,.14,8,2.11,1.65,1.64,15.22,15.23,16.78,16.87h10.66c-2.62-2.8-19.39-20.37-20.5-21.56"/><path d="M255.65,50.77c-1.41,1.55-14.47,17.16-16.12,18.8-2.76,2.72-7.7,2.14-11.71,2.14s-4.76-3.08-4.76-5.17,0-13.87,0-15.77h-9.3c0,2,0,18.35,0,20.94,0,2.06,1,6.72,9.25,6.72l16,0c2.05,0,5.14-1.25,8.69-5.45,1-1.24,16.21-19.48,18.68-22.2H255.65Z"/><path d="M246.49,87.65c-2-2.11-3.73-4.2-9.87-4.2H223c-6.81,0-9.23,4.94-9.23,7.53v18.26l9.27,0c0-1.89,0-13.62,0-15.72s.62-3.28,4.68-3.28,3.38,0,3.83,0c3.83,0,6,.14,8,2.11,1.65,1.64,15.22,15.23,16.78,16.87H267c-2.62-2.8-19.39-20.37-20.5-21.56"/></svg>