<?xml version="1.0" standalone="no"?>
<!DOCTYPE svg PUBLIC "-//W3C//DTD SVG 20010904//EN"
 "http://www.w3.org/TR/2001/REC-SVG-20010904/DTD/svg10.dtd">
<svg version="1.0" xmlns="http://www.w3.org/2000/svg"
 width="832.000000pt" height="832.000000pt" viewBox="0 0 832.000000 832.000000"
 preserveAspectRatio="xMidYMid meet">
<metadata>
Created by potrace 1.11, written by Peter Selinger 2001-2013
</metadata>
<g transform="translate(0.000000,832.000000) scale(0.100000,-0.100000)"
fill="#000000" stroke="none">
<path d="M205 7530 c-3 -5 -3 -22 -1 -37 3 -15 8 -46 10 -68 12 -94 26 -192
30 -215 3 -14 7 -47 11 -75 10 -81 15 -118 21 -155 3 -19 8 -48 10 -65 2 -16
6 -48 9 -70 12 -73 14 -90 19 -135 3 -25 8 -56 10 -70 5 -27 11 -69 21 -145 4
-27 9 -61 11 -75 2 -14 6 -50 9 -80 4 -30 8 -62 11 -70 2 -8 6 -35 9 -60 6
-51 14 -113 20 -150 11 -70 18 -117 20 -140 2 -14 13 -95 25 -180 12 -85 24
-168 25 -185 2 -16 4 -30 5 -30 1 0 3 -16 6 -35 2 -19 6 -48 9 -65 3 -16 7
-48 10 -70 4 -43 11 -88 21 -148 3 -20 7 -47 9 -60 11 -93 17 -136 21 -162 3
-16 7 -46 10 -65 2 -19 6 -48 9 -65 2 -16 7 -57 11 -90 3 -33 8 -64 11 -68 2
-4 6 -29 9 -55 2 -26 6 -58 8 -72 3 -14 8 -45 11 -70 9 -74 15 -115 19 -135 2
-11 7 -42 10 -70 4 -27 14 -97 22 -155 8 -58 17 -123 19 -145 3 -22 8 -53 11
-68 3 -15 7 -47 9 -70 2 -23 6 -51 8 -62 4 -19 18 -117 22 -160 2 -11 6 -40 9
-65 4 -25 9 -61 12 -80 3 -19 7 -47 10 -62 3 -15 7 -48 9 -74 3 -25 7 -54 9
-63 3 -9 8 -38 11 -66 3 -27 8 -66 10 -85 3 -19 8 -51 10 -70 5 -44 14 -106
20 -141 3 -15 7 -47 10 -70 3 -24 8 -62 12 -84 3 -22 7 -49 8 -60 1 -11 4 -36
8 -55 3 -19 10 -69 16 -110 6 -41 13 -92 16 -113 3 -21 7 -59 10 -85 3 -26 8
-54 10 -62 2 -8 7 -41 10 -73 4 -32 8 -68 11 -80 3 -12 7 -42 9 -67 3 -25 7
-54 9 -65 2 -12 8 -48 12 -80 4 -33 8 -62 9 -65 6 -24 18 -116 17 -122 -1 -4
3 -31 8 -60 5 -29 11 -71 14 -93 3 -22 8 -51 10 -65 3 -14 8 -46 11 -72 3 -26
9 -78 15 -115 18 -132 20 -145 45 -326 6 -44 -18 -39 255 -51 138 -7 411 -16
590 -21 115 -3 154 0 146 13 -2 4 0 30 4 57 4 28 11 73 14 100 12 94 17 130
26 189 5 32 9 61 8 65 0 3 0 8 2 11 2 6 6 36 14 100 3 25 8 62 11 82 17 124
23 165 30 218 3 25 7 54 9 65 3 18 10 65 21 150 2 17 7 53 10 80 3 28 10 77
15 110 10 68 18 121 25 180 2 22 7 51 9 65 3 14 8 52 12 85 8 77 11 96 19 147
4 24 8 54 10 68 2 14 6 43 9 65 4 22 9 60 11 85 3 25 8 56 10 70 7 45 15 104
19 145 3 22 7 56 11 76 3 20 7 51 10 70 3 31 8 65 20 144 4 28 8 51 19 138 3
17 7 52 11 77 10 82 14 115 19 140 2 14 7 52 11 85 4 32 9 68 12 80 2 11 6 40
8 65 2 25 4 45 5 45 3 0 7 29 15 95 4 36 9 74 11 85 2 11 4 35 6 53 1 17 5 32
8 32 3 0 5 17 4 37 -2 52 5 71 24 69 16 -3 36 -85 46 -196 3 -25 7 -56 10 -70
3 -14 8 -45 11 -70 3 -25 7 -56 10 -70 3 -14 7 -43 10 -65 7 -48 14 -99 21
-140 5 -29 12 -74 19 -125 2 -14 6 -41 9 -60 4 -20 8 -54 11 -75 2 -22 4 -40
5 -40 1 0 3 -9 4 -20 2 -11 6 -40 10 -65 4 -25 9 -56 11 -70 6 -45 24 -164 31
-205 3 -22 8 -53 9 -70 2 -16 4 -30 5 -30 1 0 3 -9 4 -20 7 -48 19 -132 22
-150 2 -10 6 -37 9 -60 3 -22 10 -65 15 -95 11 -70 19 -120 25 -173 3 -23 7
-53 10 -67 3 -14 7 -43 10 -65 3 -22 9 -65 15 -95 9 -53 14 -87 25 -165 8 -58
15 -99 19 -125 3 -14 7 -47 11 -75 3 -27 8 -59 10 -70 5 -22 14 -81 21 -135 2
-19 6 -46 9 -60 5 -25 15 -96 19 -135 1 -11 5 -33 9 -50 3 -16 9 -50 12 -75 3
-25 7 -54 9 -65 2 -11 7 -42 10 -70 8 -55 16 -108 21 -135 2 -10 6 -40 10 -67
6 -42 10 -69 19 -123 3 -13 63 -15 471 -15 344 0 472 3 480 12 7 6 18 60 25
120 7 59 14 115 15 123 1 8 6 40 10 70 3 30 8 66 10 80 2 14 7 54 10 90 4 36
9 74 11 85 4 19 8 53 20 150 2 22 7 51 9 65 2 14 7 50 10 80 3 30 7 64 9 75 2
11 7 47 10 80 4 33 10 74 12 91 5 34 10 74 19 149 3 28 7 61 10 75 5 38 17
132 20 160 1 14 6 50 10 80 4 30 9 66 10 80 5 43 17 144 20 160 2 8 6 47 11
85 4 39 8 72 9 75 1 3 5 37 9 75 5 39 10 79 13 90 2 11 7 45 10 75 6 69 10 95
12 95 1 0 4 16 5 35 7 74 17 156 21 170 2 8 7 43 10 77 3 34 8 72 11 85 2 13
6 46 9 73 2 28 7 64 9 80 7 45 17 115 21 155 2 19 7 54 10 78 3 23 7 61 10 85
11 91 14 113 19 147 3 19 8 53 10 75 2 22 9 76 15 120 6 44 13 103 17 130 3
28 7 61 9 75 2 14 6 47 9 74 5 42 11 92 31 241 4 27 18 141 30 238 3 20 8 56
11 80 9 58 12 85 17 137 3 25 8 63 11 85 3 22 8 59 11 83 3 23 7 61 10 85 7
53 14 111 21 162 3 22 8 56 10 75 2 19 8 69 14 110 21 159 23 176 26 210 1 19
3 35 4 35 1 0 3 11 5 25 1 14 5 46 9 73 3 26 9 68 12 95 3 26 7 58 9 72 2 14
6 48 9 75 13 104 16 131 20 155 3 14 7 52 11 85 3 33 10 87 15 120 5 33 12 85
15 115 3 30 9 69 11 85 3 17 7 46 9 65 5 46 13 114 20 170 l6 45 -343 2 c-189
1 -434 3 -545 4 -112 1 -205 1 -207 -2 -2 -2 -7 -35 -10 -74 -12 -124 -19
-189 -32 -300 -2 -22 -7 -65 -10 -95 -3 -30 -7 -66 -8 -80 -2 -14 -6 -61 -10
-105 -4 -44 -9 -91 -11 -105 -3 -14 -7 -52 -10 -85 -4 -33 -8 -76 -10 -95 -2
-19 -6 -60 -9 -90 -3 -30 -8 -73 -10 -95 -3 -22 -8 -64 -11 -94 -3 -30 -8 -58
-11 -63 -3 -4 0 -8 6 -8 6 0 8 -5 3 -12 -9 -15 -8 -12 -18 -108 -9 -97 -11
-114 -19 -180 -3 -30 -8 -82 -11 -115 -3 -33 -8 -77 -11 -98 -3 -21 -7 -61
-10 -90 -2 -29 -6 -65 -8 -82 -2 -16 -7 -64 -10 -105 -4 -41 -9 -86 -11 -100
-2 -14 -6 -50 -10 -80 -3 -30 -8 -77 -11 -105 -3 -27 -7 -70 -10 -95 -2 -25
-6 -65 -9 -90 -2 -25 -7 -67 -9 -95 -10 -97 -15 -136 -21 -145 -3 -6 -1 -10 5
-10 6 0 8 -5 5 -10 -8 -13 -12 -36 -19 -120 -6 -62 -10 -97 -21 -192 -2 -24
-7 -68 -10 -98 -3 -30 -8 -73 -10 -95 -3 -22 -7 -78 -11 -125 -4 -47 -8 -96
-9 -110 -2 -14 -3 -30 -4 -35 -1 -6 -17 -10 -36 -11 -29 0 -35 3 -36 20 0 12
-2 30 -5 41 -2 11 -6 36 -9 55 -2 19 -6 53 -9 75 -9 67 -18 139 -21 165 -4 32
-16 129 -20 155 -2 19 -13 103 -20 155 -1 14 -6 48 -9 75 -14 103 -27 203 -31
241 -2 21 -6 53 -9 69 -3 17 -8 55 -11 85 -3 30 -8 68 -11 85 -3 16 -7 51 -9
76 -2 26 -7 61 -10 79 -3 17 -7 48 -9 68 -2 20 -7 57 -10 82 -4 25 -8 67 -11
93 -2 26 -6 51 -9 55 -2 4 -7 42 -10 85 -3 43 -8 82 -10 86 -3 4 -7 32 -10 62
-3 30 -7 65 -10 79 -2 14 -7 52 -11 85 -10 92 -15 127 -19 160 -3 17 -8 57
-12 90 -3 33 -8 68 -10 79 -2 10 -6 44 -9 75 -4 31 -8 67 -11 81 -3 23 -11 84
-19 165 -2 17 -4 30 -5 30 -1 0 -3 14 -5 30 -2 17 -7 53 -10 80 -4 28 -9 68
-11 90 -2 22 -6 56 -9 75 -5 36 -10 70 -20 150 -3 25 -7 56 -9 70 -3 14 -7 50
-11 80 -3 30 -8 71 -10 90 -3 19 -7 55 -10 80 -3 25 -7 54 -9 65 -3 11 -5 22
-5 25 -1 6 -61 8 -483 15 l-208 4 -1 -22 c0 -12 -2 -31 -4 -42 -4 -19 -9 -68
-20 -175 -5 -51 -14 -129 -22 -178 -2 -19 -6 -55 -8 -80 -2 -26 -5 -47 -5 -47
-1 0 -3 -13 -4 -30 -6 -65 -17 -162 -22 -198 -3 -21 -7 -53 -8 -70 -2 -18 -6
-54 -10 -82 -3 -27 -8 -70 -10 -95 -3 -25 -7 -65 -10 -90 -15 -118 -18 -138
-21 -180 -3 -25 -7 -61 -10 -80 -2 -19 -7 -63 -11 -98 -3 -35 -7 -72 -9 -82
-2 -10 -7 -51 -10 -91 -4 -40 -8 -81 -10 -90 -2 -10 -7 -49 -10 -86 -4 -37 -9
-75 -10 -83 -2 -8 -6 -51 -10 -95 -4 -44 -9 -89 -11 -100 -6 -29 -17 -134 -18
-177 0 -21 -3 -38 -6 -38 -3 0 -5 -12 -6 -27 -1 -29 -12 -140 -19 -183 -5 -36
-20 -171 -30 -265 -3 -27 -7 -66 -10 -85 -2 -19 -7 -59 -10 -90 -2 -30 -7 -71
-10 -90 -2 -19 -7 -53 -9 -75 -3 -22 -8 -62 -11 -90 -5 -47 -8 -72 -20 -178
-8 -75 -16 -141 -19 -162 -2 -14 -11 -20 -30 -20 -14 -1 -30 2 -35 5 -5 3 -12
41 -16 85 -5 69 -23 228 -41 370 -3 22 -7 58 -9 80 -4 40 -8 79 -25 215 -5 41
-12 100 -15 130 -10 80 -14 120 -20 165 -8 60 -13 103 -21 175 -3 36 -8 74
-10 85 -2 11 -6 44 -9 73 -3 29 -7 67 -10 85 -11 81 -17 135 -20 172 -4 43
-13 115 -20 155 -3 14 -8 52 -11 85 -3 33 -7 71 -8 85 -2 14 -6 54 -10 90 -3
36 -8 75 -10 86 -4 18 -12 84 -21 169 -7 71 -16 142 -20 165 -2 14 -7 53 -10
87 -3 34 -8 71 -10 82 -2 11 -6 48 -10 83 -3 35 -8 70 -10 78 -2 8 -7 44 -10
80 -3 36 -7 76 -9 90 -6 32 -14 98 -21 175 -3 33 -8 71 -11 85 -2 14 -6 50
-10 80 -8 81 -11 110 -18 160 -4 25 -8 64 -10 88 -2 24 -6 45 -9 48 -4 5 -64
9 -267 19 -58 3 -141 8 -185 10 -44 3 -120 7 -170 10 -182 10 -262 16 -422 29
-34 3 -65 1 -68 -4z"/>
<path d="M6366 7533 c-1 -1 -46 -4 -101 -7 -162 -8 -338 -25 -430 -40 -16 -2
-52 -7 -78 -11 -61 -7 -149 -24 -154 -29 -4 -4 -9 -30 -18 -101 -3 -27 -8 -63
-10 -80 -3 -16 -7 -50 -9 -75 -3 -25 -7 -61 -10 -80 -4 -31 -9 -66 -21 -165
-2 -16 -7 -52 -11 -80 -6 -49 -13 -104 -19 -155 -2 -14 -4 -27 -5 -30 -1 -3
-2 -8 -1 -12 0 -4 -4 -42 -10 -85 -10 -78 -14 -110 -23 -193 -3 -25 -8 -56
-11 -70 -2 -14 -7 -50 -9 -80 -3 -30 -8 -66 -10 -80 -3 -14 -8 -52 -11 -85 -8
-62 -9 -70 -19 -145 -3 -25 -8 -64 -11 -87 -3 -24 -7 -61 -10 -83 -3 -22 -7
-58 -10 -80 -3 -22 -8 -59 -11 -82 -3 -24 -7 -61 -10 -83 -7 -60 -11 -95 -18
-145 -4 -25 -8 -61 -10 -80 -2 -19 -7 -55 -10 -80 -3 -25 -8 -61 -10 -80 -10
-82 -18 -137 -22 -160 -3 -14 -6 -32 -6 -40 0 -8 -4 -44 -9 -80 -4 -36 -10
-86 -13 -112 -13 -111 -16 -134 -20 -153 -2 -11 -7 -49 -11 -85 -4 -36 -9 -73
-10 -82 -2 -9 -7 -48 -10 -85 -4 -37 -9 -75 -10 -84 -4 -19 -16 -114 -20 -149
-4 -37 -16 -131 -20 -160 -2 -14 -7 -52 -10 -85 -3 -33 -8 -67 -10 -75 -2 -8
-6 -40 -10 -70 -3 -30 -7 -64 -9 -75 -2 -11 -7 -51 -11 -88 -3 -37 -8 -78 -11
-90 -2 -12 -6 -49 -9 -82 -3 -33 -8 -67 -10 -75 -3 -8 -7 -40 -10 -70 -3 -30
-7 -66 -10 -80 -2 -14 -7 -49 -10 -79 -4 -30 -9 -63 -11 -75 -2 -12 -6 -48 -9
-81 -3 -33 -7 -71 -10 -85 -3 -22 -6 -44 -20 -155 -2 -16 -6 -46 -8 -65 -3
-19 -8 -60 -11 -90 -14 -119 -16 -136 -22 -175 -4 -22 -7 -51 -9 -65 -2 -25
-14 -114 -20 -160 -2 -14 -6 -50 -10 -80 -5 -49 -9 -79 -20 -160 -2 -14 -7
-54 -10 -90 -4 -36 -8 -67 -10 -70 -2 -3 -6 -35 -9 -70 -3 -36 -8 -76 -11 -90
-3 -13 -7 -49 -10 -80 -3 -31 -7 -67 -10 -80 -3 -14 -7 -45 -10 -70 -3 -25 -7
-61 -10 -80 -7 -50 -14 -108 -20 -155 -2 -22 -7 -62 -10 -90 -13 -100 -28 -90
125 -89 74 1 243 5 375 9 223 6 277 8 458 15 37 2 69 6 72 9 4 7 11 56 20 131
3 25 7 61 10 81 3 20 7 54 10 75 2 21 7 59 10 84 4 25 8 61 10 80 4 36 12 97
21 160 3 19 7 51 9 70 11 100 16 147 20 170 2 14 7 50 10 80 3 30 8 62 10 70
2 8 7 44 10 80 2 36 7 75 9 88 3 13 8 51 11 85 4 34 8 64 10 67 2 3 6 34 9 70
4 36 11 92 16 124 5 32 9 61 8 65 -1 6 11 106 17 142 4 21 16 116 20 154 2 17
7 55 11 85 4 30 8 70 8 87 1 18 3 33 6 33 3 0 5 12 6 28 0 15 4 52 9 82 4 30
9 66 10 80 4 39 16 132 20 160 3 14 7 48 10 75 3 28 7 61 9 75 2 14 7 54 11
90 3 36 11 69 16 74 4 5 30 11 56 12 27 2 82 5 123 8 41 3 80 2 87 -2 6 -4 16
-45 22 -92 7 -47 14 -101 17 -120 7 -47 11 -74 18 -141 4 -31 9 -67 12 -80 2
-13 6 -42 8 -64 3 -22 7 -53 10 -70 3 -16 7 -52 11 -80 9 -84 21 -179 30 -235
2 -14 7 -47 10 -75 3 -27 8 -70 11 -95 4 -25 8 -56 9 -70 2 -14 6 -45 9 -70 3
-25 13 -103 21 -175 9 -71 18 -141 20 -155 2 -14 7 -54 10 -90 6 -63 8 -87 21
-180 3 -25 7 -67 9 -95 2 -27 5 -50 6 -50 1 0 2 -11 4 -25 1 -14 5 -56 9 -95
5 -38 10 -86 11 -105 2 -19 6 -57 9 -85 3 -27 8 -79 11 -115 3 -36 8 -85 10
-110 3 -25 7 -83 10 -129 4 -47 8 -88 11 -92 2 -5 18 -6 35 -4 16 2 78 7 137
10 59 4 121 9 137 11 17 2 62 6 102 9 39 2 84 6 100 9 15 3 62 8 103 12 100 9
179 18 255 29 11 1 47 6 80 10 33 4 63 9 67 11 6 4 4 43 -8 154 -3 30 -7 75
-9 100 -5 70 -15 171 -20 215 -3 22 -8 63 -10 90 -3 28 -8 66 -10 85 -3 19 -7
60 -11 90 -3 30 -7 71 -10 90 -13 107 -18 158 -18 187 -1 18 -3 33 -6 33 -3 0
-5 12 -6 27 -1 25 -7 88 -19 178 -2 17 -7 53 -10 80 -3 28 -8 64 -10 80 -8 56
-26 200 -30 240 -2 22 -7 58 -10 80 -9 66 -16 118 -20 155 -2 19 -6 55 -10 80
-4 25 -8 61 -10 80 -4 31 -10 74 -30 220 -4 25 -8 59 -10 75 -6 50 -14 118
-19 150 -9 58 -19 130 -22 165 -3 35 -11 94 -19 140 -3 14 -7 45 -10 70 -3 25
-8 56 -10 70 -2 14 -7 50 -10 80 l-6 55 43 26 c140 84 305 249 426 425 16 24
90 167 116 224 37 83 110 324 122 404 3 17 7 40 8 51 2 11 4 20 5 20 1 0 4 16
7 35 2 19 6 49 9 65 3 17 8 53 11 80 3 28 7 64 9 80 25 188 25 602 0 725 -3
14 -7 39 -10 55 -17 117 -87 354 -107 363 -5 2 -8 10 -8 17 0 8 -12 36 -26 62
-79 144 -175 264 -278 348 -21 17 -43 35 -49 41 -29 25 -138 93 -202 126 -75
38 -254 107 -295 114 -14 3 -39 9 -57 15 -17 5 -44 12 -60 15 -15 2 -50 9 -78
14 -103 20 -161 27 -305 36 -94 6 -330 11 -334 7z m423 -1007 c104 -25 181
-65 245 -130 49 -50 108 -150 120 -207 20 -90 28 -129 32 -164 6 -51 6 -259 0
-311 -3 -21 -7 -64 -11 -95 -3 -31 -8 -67 -11 -80 -3 -13 -7 -40 -10 -59 -3
-19 -9 -51 -14 -70 -5 -19 -11 -48 -14 -63 -7 -42 -48 -171 -58 -182 -4 -5 -8
-15 -8 -23 0 -20 -64 -145 -109 -211 -130 -191 -335 -309 -566 -326 -33 -2
-70 -7 -83 -9 -25 -5 -24 -10 -6 129 9 72 15 119 19 155 2 19 6 49 9 65 3 17
8 57 11 89 3 33 7 71 9 85 3 14 7 45 11 67 3 23 8 63 11 90 2 27 6 63 9 79 3
17 7 53 10 80 2 28 7 60 9 73 3 13 8 51 11 85 4 34 8 73 10 87 12 85 16 109
19 145 5 42 14 109 21 160 3 17 7 55 10 85 6 51 8 69 19 153 6 36 11 84 27
212 6 50 13 93 15 96 5 8 228 4 263 -5z"/>
</g>
</svg>
