<svg xmlns="http://www.w3.org/2000/svg" viewBox="0 0 250 250">
<rect fill="#202020" width="250" height="250"/>
<path fill="#E3CF4B" d="M89.608,159.617c-0.453-5.614-4.258-24.184-4.258-29.8c0-4.8,2.989-7.065,14.764-14.855
	c9.692-6.431,18.75-10.507,27.173-14.583c3.441-1.63,5.253-2.627,5.253-6.612c0-1.992-0.452-4.71-1.358-8.604
	c-2.536-10.96-5.524-16.667-8.876-16.667c-0.634,0-1.268,0.181-1.902,0.544c-2.083,1.268-2.899,4.257-3.533,13.043l-0.271,3.714
	c-0.544,8.333-1.721,7.608-10.146,7.88l-6.431,0.181c-4.529,0.09-8.062,0.271-10.96,0.271c-11.957,0-11.685-1.993-12.5-13.224
	c-0.453-6.613-1.269-16.848-1.812-22.826c-0.272-3.17-0.453-5.435-0.453-7.246c0-3.623,0.725-4.982,2.537-6.793
	c4.438-4.438,30.615-12.41,44.474-13.586c3.261-0.272,5.615-0.453,7.518-0.453c5.254,0,8.062,1.359,18.115,6.431
	c18.659,9.329,22.555,12.137,25.905,25.633c3.262,12.681,3.986,27.173,5.526,44.293c0.271,2.717,0.453,4.801,0.453,6.431
	c0,6.25-3.352,5.707-21.559,14.402c-4.619,2.174-10.96,4.982-11.413,5.525c-0.452,0.544-4.438,1.902-8.695,4.077
	c-8.151,4.256-9.873,4.618-9.873,9.963c0,2.173,0.272,5.162,0.544,9.511l0.544,9.148c0.09,2.174,0.271,3.804,0.271,4.981
	c0,3.533-1.177,4.167-7.155,4.71l-21.467,1.994c-1.449,0.089-2.627,0.18-3.623,0.18c-5.616,0-5.163-2.445-6.16-11.05
	C89.97,163.693,89.789,161.249,89.608,159.617z M131.364,196.302c0,1.269-0.182,2.718-0.543,4.258
	c-1.993,9.781-3.986,14.13-4.801,15.216c-0.815,1.18-19.656,3.171-24.728,3.171c-1.268,0-2.083-0.091-2.355-0.361
	c-0.543-0.545-7.337-5.254-7.337-12.139c0-0.271,0-0.543,0-0.724c1.087-12.318,1.268-9.874,4.801-14.855
	c4.076-5.797,8.695-7.519,13.224-7.519c2.899,0,5.797,0.725,8.333,1.45C126.926,186.791,131.364,189.78,131.364,196.302z"/>
</svg>
