<svg xmlns="http://www.w3.org/2000/svg" viewBox="0 0 250 250">
<rect fill="#202020" width="250" height="250"/>
<g>
	<polygon fill="#E3CF4B" points="191.438,132.754 168.417,122.316 166.739,126.23 144.744,117.469 133.188,118.309 142.88,152.232 
		128.9,119.147 103.363,106.751 88.917,107.683 96.653,103.21 91.061,99.482 129.925,99.575 123.308,73.852 70.184,80.375 
		59,125.112 87.892,161.46 116.784,168.916 90.688,167.983 71.116,250 163.851,250 172.518,175.627 153.132,171.898 
		185.845,167.145 195.725,124.273 	"/>
	<polygon fill="#E3CF4B" points="122.656,35.174 95.907,33.496 86.773,74.504 115.106,71.428 	"/>
	<polygon fill="#E3CF4B" points="126.57,70.124 135.051,103.583 111.379,103.489 110.726,105.913 130.019,115.419 138.312,113.928 
		163.104,41.698 132.069,30.7 119.767,70.776 	"/>
	<polygon fill="#E3CF4B" points="164.503,120.825 190.412,60.338 166.554,50.179 144.371,112.809 	"/>
	<polygon fill="#E3CF4B" points="189.48,127.255 212.501,81.867 194.233,71.335 171.119,118.96 	"/>
</g>
</svg>
