<svg xmlns="http://www.w3.org/2000/svg" viewBox="0 0 280 160"><title>acando</title><path d="M264.35,74.68A21.78,21.78,0,0,0,238,58.86c-6.69,1.67-16.67,7.84-22,11.37l-1,.67a21.78,21.78,0,0,0-19.72-12.57H179.63a2.3,2.3,0,0,0-2.3,2.3V95.72c0,.7-.26,1.23-.66,1.35s-1-.24-1.46-.94c-2.3-3.54-8.29-13.27-13.58-21.84-3.44-5.58-6.69-10.86-8.31-13.42a5.41,5.41,0,0,0-6.14-2.49,5.48,5.48,0,0,0-3.89,5.38V93.68c0,1.67-.55,3-1.39,3.3s-2-.19-3-1.33c-3.55-3.76-6.45-11.21-9.26-18.41-4-10.15-7.39-18.91-13.23-18.91-5.2,0-8.25,6.95-12.1,15.74C100.78,82,96.84,91,91.29,94.57c-7.88,5.1-17.14,1.69-21.19-2.36A17.16,17.16,0,0,1,70.1,68a17.58,17.58,0,0,1,2.36-2,17.18,17.18,0,0,1,18.32-.77,2.3,2.3,0,0,0,2.3-4,21.81,21.81,0,0,0-23.25,1A22.35,22.35,0,0,0,67.64,64c-3.38,2.68-10.28,8.11-17.77,13.8-.62-1.52-1.26-3-1.92-4.49-4.64-10.33-8.47-14.94-12.4-14.94-2,0-5.46,1.32-11.57,12.71a107.76,107.76,0,0,0-8.4,20.35c-1.41,5.2.06,7.66,1.55,8.81a5.91,5.91,0,0,0,3.68,1.15A12.77,12.77,0,0,0,27,99.42c5.2-3,13-8.56,20.75-14.3C50,91.18,51.68,96.73,52.5,99.49a2.3,2.3,0,1,0,4.42-1.31c-.89-3-2.82-9.26-5.32-15.94,3.36-2.54,6.6-5,9.49-7.27a21.75,21.75,0,0,0,5.75,20.51c6,6,17.49,9.09,26.95,3,6.71-4.34,11-14,14.69-22.53,2.4-5.48,5.69-13,7.88-13,2.7,0,6.45,9.61,8.94,16,3,7.61,6,15.48,10.2,19.89,2.44,2.58,5.46,3.5,8.1,2.46s4.3-3.9,4.3-7.59V63.76c0-.71.39-.9.56-1,.35-.1.68.08,1,.52,1.6,2.55,4.85,7.81,8.28,13.38,5.3,8.6,11.31,18.35,13.64,21.94,1.59,2.45,4.19,3.57,6.63,2.85a5.75,5.75,0,0,0,4-5.77V62.94H195.2a17.17,17.17,0,0,1,15.85,10.61,153,153,0,0,0-15.86,12.54c-6.5,6.11-6.79,10.09-5.9,12.35s3,3.39,5.91,3.39a21.93,21.93,0,0,0,14.93-6.34A21.35,21.35,0,0,0,217,80.08a21.91,21.91,0,0,0-.5-4.64c8.46-5.72,17.34-10.79,22.63-12.11a17.14,17.14,0,1,1-12.47,20.79,2.31,2.31,0,0,0-4.47,1.12,21.75,21.75,0,0,0,42.2-10.56ZM24.7,95.43c-2.42,1.39-4.27,1.49-4.76,1.11-.29-.22-.64-1.33.08-4a102.8,102.8,0,0,1,7.72-18.82c3.33-6.31,5.7-9.15,7-10.25a1.53,1.53,0,0,1,1.88,0c1.26,1,3.64,3.84,7.15,11.64.8,1.78,1.57,3.63,2.3,5.48C38.09,86.58,29.92,92.42,24.7,95.43Zm170.5,1.79c-.94,0-1.53-.24-1.62-.48-.23-.57.19-3,4.77-7.3a142.27,142.27,0,0,1,13.91-11.09c.06.57.09,1.14.09,1.72C212.35,89.89,203.3,97.22,195.21,97.22Z"/></svg>