<?xml version="1.0" encoding="utf-8"?>
<!-- Generator: Adobe Illustrator 18.1.1, SVG Export Plug-In . SVG Version: 6.00 Build 0)  -->
<svg version="1.1" id="Lager_1" xmlns="http://www.w3.org/2000/svg" xmlns:xlink="http://www.w3.org/1999/xlink" x="0px" y="0px"
	 width="841.9px" height="595.3px" viewBox="0 0 841.9 595.3" enable-background="new 0 0 841.9 595.3" xml:space="preserve">
<path fill="#385988" d="M731.3,283.3c-7.3-29.1-36.9-46.9-66-39.6c-16.7,4.2-41.7,19.6-55.2,28.5c-0.8,0.6-1.7,1.1-2.5,1.7
	c-8.7-18.6-27.5-31.5-49.4-31.5h-39c-3.2,0-5.8,2.6-5.8,5.8V336c0,1.8-0.6,3.1-1.6,3.4c-1.1,0.3-2.5-0.6-3.7-2.4
	c-5.8-8.9-20.8-33.2-34-54.7c-8.6-14-16.8-27.2-20.8-33.6c-3.5-5.5-9.5-7.9-15.4-6.2c-5.8,1.7-9.7,7.1-9.7,13.5v74.9
	c0,4.2-1.4,7.4-3.5,8.3c-2,0.8-4.9-0.5-7.6-3.3c-8.9-9.4-16.2-28.1-23.2-46.1c-9.9-25.4-18.5-47.3-33.1-47.3
	c-13,0-20.6,17.4-30.3,39.4c-8.7,19.9-18.6,42.4-32.5,51.4c-19.7,12.8-42.9,4.2-53-5.9c-16.7-16.7-16.7-44,0-60.7
	c1.8-1.8,3.8-3.5,5.9-4.9c13.6-9.4,31.6-10.2,45.9-1.9c2.8,1.6,6.3,0.6,7.9-2.1c1.6-2.8,0.6-6.3-2.1-7.9c-18.2-10.5-41-9.5-58.2,2.4
	c-1.9,1.3-3.7,2.8-5.5,4.4c-8.5,6.7-25.7,20.3-44.5,34.5c-1.5-3.8-3.1-7.6-4.8-11.2c-11.6-25.9-21.2-37.4-31-37.4
	c-5.1,0-13.7,3.3-29,31.8c-8.8,16.5-17.1,36.5-21,50.9c-3.5,13,0.2,19.2,3.9,22.1c2.5,1.9,5.6,2.9,9.2,2.9c4.6,0,10-1.6,15.5-4.8
	c13-7.5,32.6-21.4,52-35.8c5.6,15.2,9.8,29.1,11.9,36c0.9,3.1,4.1,4.8,7.2,3.9c3.1-0.9,4.8-4.1,3.9-7.2c-2.2-7.5-7.1-23.2-13.3-39.9
	c8.4-6.3,16.5-12.6,23.8-18.2c-4.3,17.8,0.5,37.5,14.4,51.4c15,15,43.8,22.8,67.5,7.4c16.8-10.9,27.4-35.1,36.8-56.4
	c6-13.7,14.3-32.5,19.7-32.5c6.7,0,16.1,24.1,22.4,40c7.4,19.1,15.1,38.8,25.5,49.8c6.1,6.5,13.7,8.8,20.3,6.2
	c6.7-2.7,10.8-9.8,10.8-19V256c0-1.8,1-2.3,1.4-2.4c0.9-0.2,1.7,0.2,2.4,1.3c4,6.4,12.1,19.6,20.7,33.5
	c13.3,21.5,28.3,45.9,34.1,54.9c4,6.1,10.5,8.9,16.6,7.1c6-1.8,9.9-7.5,9.9-14.4v-82.1h33.2c17.9,0,33.2,11,39.7,26.6
	c-15.6,10.9-30.1,22.4-39.7,31.4c-16.3,15.3-17,25.3-14.8,30.9c2.1,5.4,7.5,8.5,14.8,8.5c13.3,0,26.9-5.8,37.4-15.9
	c11-10.6,17.1-24.3,17.1-38.6c0-4-0.4-7.9-1.2-11.6c21.2-14.3,43.4-27,56.6-30.3c23-5.7,46.3,8.3,52.1,31.2
	c5.7,23-8.3,46.3-31.2,52.1s-46.3-8.3-52.1-31.2c-0.8-3.1-3.9-5-7-4.2c-3.1,0.8-5,3.9-4.2,7c7.3,29.1,36.9,46.9,66,39.6
	C720.9,342.1,738.6,312.4,731.3,283.3z M131.4,335.3c-6.1,3.5-10.7,3.7-11.9,2.8c-0.7-0.6-1.6-3.3,0.2-9.9
	c3.6-13.2,11.2-31.7,19.3-47.1c8.3-15.8,14.3-22.9,17.5-25.7c1.2-1,3.3-1.2,4.7,0c3.1,2.6,9.1,9.6,17.9,29.1c2,4.5,3.9,9.1,5.8,13.7
	C164.9,313.1,144.4,327.7,131.4,335.3z M558.2,339.8c-2.4,0-3.8-0.6-4.1-1.2c-0.6-1.4,0.5-7.5,11.9-18.3c8.4-7.8,21-17.9,34.8-27.8
	c0.1,1.4,0.2,2.9,0.2,4.3C601.1,321.4,578.5,339.8,558.2,339.8z"/>
</svg>
