<svg xmlns="http://www.w3.org/2000/svg" viewBox="0 0 280 160"><defs><style>.a{fill:#07466d;}</style></defs><title>computas</title><path class="a" d="M29.31,83.77H38.1s-3,5.15-6.11,5.29c-6.43.37-9.34.83-10.81,6.07-1.06,3.68.64,4.83,6.77,5.1,5.1.25,4.31,5.3,4.31,5.3H23.1c-7.07,0-9.2-4.28-7.59-10.35,1.8-6.67,6.72-11.42,13.8-11.42Zm93.17,0H111.72v0c-1.06,2.95.37,4.92,5.11,4.92h0c6.67,0,7.36,3,6.58,5.94-.78,2.76-2.21,5.61-7.31,5.61h-1.93c.78-2.95.55-2,1.06-3.91s1.75-4.28-1.7-4.33-3.63,2.57-4,3.86c-.28,1-5.34,20.1-5.34,20.1-.51,1.84.51,2.44,2.26,2.44s3-.55,3.54-2.44l2.8-10.53s2.86,0,4.14,0c6.07-.13,10.29-5.06,11.83-10.63,1.5-5.78-.77-11-6.36-11Zm-76.79,11c1-3.78,3.31-6.63,6.67-6.63s4.19,2.83,3.18,6.63c-1,3.47-3.27,6.56-6.68,6.56s-4.14-3.09-3.17-6.56Zm-5.79,0c-1.52,5.75-.09,10.86,7.77,10.86s12.09-5.12,13.61-10.86c1.66-6.12-.78-10.93-7.77-10.93s-12,4.79-13.62,10.93Zm115.9,2.95c-1.66,6.17-7.5,7.86-12.22,7.91-4,0-9.94-2.63-8.46-8l3.78-14s6.07.87,5,5l-2.12,7.78c-.64,2.35.92,3.59,3.4,3.59a5.52,5.52,0,0,0,5.34-4.14l2-7.42c.79-2.9,7.07-4.83,7.07-4.83ZM169,88.34h-6.94s2.16-4.6,4.92-4.87h3.31L172,77s5.66.69,4.65,4.55l-5,18.5c-.23.87.14,1.29,1.15,1.29h3.27s-2.94,3.91-6.67,4.19c-4.23.27-4.65-1.47-3.78-4.87Zm50.84-4.57c4.46,0,9.1,0,9.1,0s-1.52,4.74-7.86,4.79c-3.18,0-4.6-.13-5.47,1.15-3.08,4.69,12.47-1,10.08,8.36-1.66,6.39-6.35,7.5-10.72,7.5h-8.75a8.08,8.08,0,0,1,7.72-5c3.5,0,6,0,6.58-1.8.28-.92-1.11-1.43-2.39-1.61-3.54-.46-10,.23-7.86-7.07,1.48-4.87,5.63-6.21,9.58-6.26ZM70,88.79s3.78-5,9.43-5.06c3.54,0,5.57,1,6.62,2.4a4.06,4.06,0,0,1,1,1.56,12.33,12.33,0,0,1,8.46-3.86c4.05,0,8.19,2,6.81,7.22l-3.91,14.5s-4.92-1.61-4.28-4.1l2.35-8.93c.55-2.07-.32-3.73-2.57-3.73a5.94,5.94,0,0,0-5.38,4.47L86,102.6a3.51,3.51,0,0,1-3.63,2.94c-2.25,0-2.53-1.38-2.11-2.95l2.62-10.08c.73-2.76-1.7-3.73-4.05-3.73H70Zm2.77,12.16c1-3.68.64-2.39,1.15-4.42s1.75-4.23-1.75-4.28-3.77,2.35-4.05,3.68-2.62,9.65-2.62,9.65S71.69,104.71,72.76,100.94ZM193.7,83.64c-7.5.88-11.23,7.72-11.92,10.58-1.11,4.42-.73,10.4,5.84,11.32h11.51L205,83.64Zm-4.14,16.52c-1.88-.68-3-2.24-2.11-5.45,1-3.68,2.95-4.5,5.2-5.25a14.05,14.05,0,0,1,4.87-.46l-3.08,11.67a15,15,0,0,1-4.88-.51ZM246,48.26c3-.72,10.67-.12,14.28-.4a17.86,17.86,0,0,0-14-6.26,18.65,18.65,0,0,0-11.08,33.66c-3.7-6.09,1.17-24.67,10.81-27Z"/><path class="a" d="M261.79,50.08a10,10,0,0,1-9.24,6.27c-9.37.14-13.51,1.8-15.32,7-1,2.9-.35,5.36,1.36,6,2.58,1,8.46-6.57,13-2.35s-5.15,10.89-12.86,10.24a18.65,18.65,0,0,0,26.31-17c0-4-1.23-6.69-3.22-10.2Z"/></svg>