<svg xmlns="http://www.w3.org/2000/svg" viewBox="0 0 280 160"><defs><style>.a{fill:#ea4335;}.b{fill:#fbbc05;}.c{fill:#4285f4;}.d{fill:#34a853;}</style></defs><title>google</title><path class="a" d="M121.09,87.07a20.76,20.76,0,1,1-20.76-20.69A20.44,20.44,0,0,1,121.09,87.07Zm-9.09,0c0-7.45-5.4-12.54-11.67-12.54S88.66,79.62,88.66,87.07s5.4,12.54,11.67,12.54S112,94.43,112,87.07Z"/><path class="b" d="M165.87,87.07a20.76,20.76,0,1,1-20.76-20.69A20.44,20.44,0,0,1,165.87,87.07Zm-9.09,0c0-7.45-5.4-12.54-11.67-12.54s-11.67,5.09-11.67,12.54,5.4,12.54,11.67,12.54S156.78,94.43,156.78,87.07Z"/><path class="c" d="M208.54,67.62v36.59c0,15.13-8.77,21.3-19.14,21.3a19.19,19.19,0,0,1-17.85-12.07l7.7-3.26c1.37,3.33,4.73,7.27,10.14,7.27,6.64,0,10.75-4.16,10.75-12V102.5h-.31a13.61,13.61,0,0,1-10.6,4.65c-10.07,0-19.29-8.92-19.29-20.4s9.22-20.56,19.29-20.56a13.85,13.85,0,0,1,10.6,4.58h.31V67.05h8.4ZM200.8,87.14c0-7.29-4.86-12.61-11-12.61s-11.52,5.33-11.52,12.61,5.25,12.46,11.52,12.46S200.8,94.35,200.8,87.14Z"/><path class="d" d="M223.47,45.59v60.64h-9.33V45.59Z"/><path class="a" d="M257.55,93.88l7.05,4.7a20.6,20.6,0,0,1-17.24,9.17,20.25,20.25,0,0,1-20.54-20.69c0-12.31,8.85-20.69,19.52-20.69s16,8.55,17.71,13.16l.94,2.35L237.34,93.33c2.12,4.15,5.41,6.27,10,6.27s7.84-2.28,10.19-5.73Zm-21.71-7.45,18.49-7.68c-1-2.58-4.08-4.39-7.68-4.39A11.35,11.35,0,0,0,235.84,86.43Z"/><path class="c" d="M46.2,81.05V72.65H74.53a27.85,27.85,0,0,1,.42,5.07c0,6.31-1.72,14.1-7.28,19.66a27,27,0,0,1-15.5,8.16c-17.83,3-35.06-9.06-37-27-2-18.41,13-34,31-34A29.31,29.31,0,0,1,67.29,53l-5.93,5.93A21.46,21.46,0,0,0,51,53.37a22.42,22.42,0,0,0-26.8,20.92,22.1,22.1,0,0,0,22,23.32c8,0,12.6-3.22,15.53-6.15,2.38-2.38,3.94-5.77,4.56-10.41Z"/></svg>