<svg xmlns="http://www.w3.org/2000/svg" viewBox="0 0 280 160"><defs><style>.a{fill:#369c82;}</style></defs><title>knowit</title><path class="a" d="M56.71,65.78h-6c-1.87,0-2.09.23-4.26,2.41l-19,19.18V57.59A1.57,1.57,0,0,0,25.87,56H16.7a1.57,1.57,0,0,0-1.57,1.57v3.64c0,.95.56,1.46,1.58,1.46h3.55v37.47H16.7a1.57,1.57,0,0,0-1.57,1.57v4a1.59,1.59,0,0,0,1.59,1.59H30.49a1.58,1.58,0,0,0,1.58-1.58v-4a1.41,1.41,0,0,0-1.56-1.58H27.45v-3l7-7.23,12.37,15.32c1.63,2.09,1.63,2.09,4,2.09h5.34a1.4,1.4,0,0,0,1.54-1.57v-3.91s-.11-1.57-1.12-1.71H52.13L39.61,84.86,51.05,73h5.57c1,.29,1.62-1.22,1.62-1.22V67.61A1.42,1.42,0,0,0,56.67,66"/><path class="a" d="M106,100.17h-3.59V82.42c0-10.57-6.65-17.4-16.92-17.4a16.78,16.78,0,0,0-11.83,4.35v-1.5a1.57,1.57,0,0,0-1.57-1.57H62.9a1.58,1.58,0,0,0-1.58,1.58v3.51A1.58,1.58,0,0,0,62.91,73h3.55v27.21h-3a1.57,1.57,0,0,0-1.57,1.57v4a1.57,1.57,0,0,0,1.57,1.57h13.8a1.57,1.57,0,0,0,1.57-1.57v-4a1.57,1.57,0,0,0-1.57-1.57H73.65V83.82C73.7,77.05,78.46,72.13,85,72.13c6.38,0,10.2,4.14,10.19,11.09v17.46h-3a1.58,1.58,0,0,0-1.58,1.58v3.64c0,.94.55,1.46,1.57,1.46H106a1.57,1.57,0,0,0,1.57-1.57v-3.9a1.41,1.41,0,0,0-1.57-1.57"/><path class="a" d="M128.57,101.28c-7.65,0-13.64-6.42-13.64-14.61s5.8-14.38,13.5-14.38,13.72,6.42,13.72,14.6-5.83,14.39-13.57,14.39Zm-.21-36.06c-11.9,0-21.21,9.52-21.21,21.67a21,21,0,0,0,21.07,21.45,21.56,21.56,0,0,0,.14-43.12"/><path class="a" d="M211.22,66.29H196.89a1.58,1.58,0,0,0-1.58,1.58v3.53A1.57,1.57,0,0,0,196.88,73H200l-6.72,21.71L183.81,67a1.84,1.84,0,0,0-1.73-1.24h-2.81A1.83,1.83,0,0,0,177.54,67l-9.41,27.65L161.41,73H164a1.57,1.57,0,0,0,1.57-1.57V67.87A1.58,1.58,0,0,0,164,66.29h-14.3a1.58,1.58,0,0,0-1.58,1.58v4a1.42,1.42,0,0,0,1.58,1.57h3.4l11.33,33.18a1.86,1.86,0,0,0,1.74,1.22h3.08a1.85,1.85,0,0,0,1.75-1.25l9.48-27.19,9.44,27.19a1.85,1.85,0,0,0,1.75,1.25h3.08a1.85,1.85,0,0,0,1.73-1.21l11.34-33.18h3.39a1.42,1.42,0,0,0,1.58-1.57V67.62A1.42,1.42,0,0,0,211.18,66"/><path class="a" d="M231.24,100.17h-3.08V67.35a1.58,1.58,0,0,0-1.58-1.58h-9.17a1.57,1.57,0,0,0-1.57,1.57v4A1.46,1.46,0,0,0,217.5,73H221v27.21h-6.13a1.57,1.57,0,0,0-1.57,1.57v4a1.57,1.57,0,0,0,1.57,1.57H231.7a1.43,1.43,0,0,0,1.6-1.57v-3.91a1.42,1.42,0,0,0-1.58-1.57"/><path class="a" d="M263.58,86.31h-4.07a1.58,1.58,0,0,0-1.58,1.58v7.68a5.19,5.19,0,0,1-5.08,5.38c-4,0-5.7-1.65-5.7-5.49v-22h9.72a1.57,1.57,0,0,0,1.57-1.57v-4a1.58,1.58,0,0,0-1.58-1.58h-9.72V57.6A1.58,1.58,0,0,0,245.58,56h-4A1.58,1.58,0,0,0,240,57.6v8.69h-4.58a1.58,1.58,0,0,0-1.58,1.58v4a1.58,1.58,0,0,0,1.58,1.58H240V96.16c0,7.44,4.86,12.25,12.38,12.25,7.76,0,12.78-4.65,12.78-11.85V88a1.41,1.41,0,0,0-1.57-1.57"/><path class="a" d="M224.35,60.81a4.61,4.61,0,1,0-4.61-4.61,4.61,4.61,0,0,0,4.61,4.61"/></svg>