<svg xmlns="http://www.w3.org/2000/svg" viewBox="0 0 280 160"><title>kodemaker</title><path d="M15,62.14h9.11V75.8h.1l6.88-13.66h9.57L31.84,77.69l9.89,20H31.35L26,85.32l-1.91,3v9.42H15Z"/><path d="M54.26,61.73c9.36,0,12.56,5.12,12.56,18.27s-3.2,18.27-12.56,18.27S41.7,93.15,41.7,80,44.9,61.73,54.26,61.73Zm0,30.34c2.81,0,3.1-2.56,3.1-12.07s-.3-12.07-3.1-12.07-3.1,2.56-3.1,12.07S51.45,92.07,54.26,92.07Z"/><path d="M70.46,62.55h13.3c10.59,0,11.14,8.38,11.14,17.59s-.54,17.59-11.14,17.59H70.46Zm9.11,28.56h1.82c3.54,0,4-1.48,4-11s-.44-11-4-11H79.57Z"/><path d="M99,62.55h20.7V70H108.13V75.8h10.76v7H108.13v7.45h12v7.45H99Z"/><path d="M122.62,62.55h13l3.68,20.7h.1l3.68-20.7h13V97.32h-8.69V71.25H148L143,97.32h-6.69l-4.95-26.08h-.1V97.32h-8.69V62.55Z"/><path d="M166.51,62.55H178l8.57,35.18h-9.72l-.94-6.21h-7.35l-.94,6.21h-9.72Zm5.81,7h-.1l-2.51,14.9h5.11Z"/><path d="M188,62.14h9.11V75.8h.1l6.88-13.66h9.57l-8.81,15.55,9.89,20H204.36L199,85.32l-1.91,3v9.42H188Z"/><path d="M215.75,62.55h20.7V70H224.85V75.8h10.76v7H224.85v7.45h12v7.45H215.75Z"/><path d="M239.75,62.55h14.13c7,0,9.71,3.94,9.71,9.36,0,4.68-1.83,7.73-6,8.37v.1c4.46.39,5.79,3.2,5.79,7.88v2.87s0,4.19.49,4.88A2.17,2.17,0,0,0,265,97.09v.64h-9.88c-.88-1.87-.88-5.22-.88-6.69V88.68c0-4-.78-5-3-5h-2.4V97.74h-9.11V62.55Zm9.11,14.9h1.82c2.61,0,3.84-1.68,3.84-4.19,0-2.86-1.13-4.09-3.89-4.09h-1.77v8.28Z"/></svg>