<svg xmlns="http://www.w3.org/2000/svg" viewBox="0 0 280 160"><title>webstep</title><path d="M15,57.86c.25,0,.5.08.75.08H23c5.08.08,8.58,2.83,9.75,7.75,1.92,8.25,3.83,16.58,5.75,24.83.17.75.25,1.58.33,2.17l6.5-30.33c.08-.25.17-.58.25-.83,1-3.5,3.92-4.33,6.67-3.5a4.43,4.43,0,0,1,3.08,3.5c.58,2.5,1.17,5,1.67,7.58,1.5,7.08,3.08,14.17,4.58,21.25.17.83.25,1.67.33,2.5.08-.08.08-.17.17-.17.75-3.67,1.5-7.25,2.33-10.92C66.17,74,68,66.36,69.75,58.61c.08-.5.33-.67.83-.67h5.5a.91.91,0,0,1,.42.08c-.17.83-.42,1.75-.58,2.58-2.83,12.08-5.67,24.33-8.42,36.5a7.37,7.37,0,0,1-1.92,3.75A5.9,5.9,0,0,1,63,102.19H61.25a.26.26,0,0,0-.17-.08,5.31,5.31,0,0,1-4.42-4.33c-1.92-8.92-3.83-17.92-5.75-26.83-.17-.83-.33-1.67-.42-2.42a10.72,10.72,0,0,0-.33,1.58c-.83,4.08-1.75,8.17-2.58,12.25-1.17,5.25-2.25,10.5-3.42,15.75a5.18,5.18,0,0,1-4,4c-.17.08-.42.08-.58.17H37.92c-.42-.17-.83-.25-1.25-.42a5.93,5.93,0,0,1-3.17-4.25c-.83-3.5-1.67-7-2.42-10.5-1.5-6.42-2.92-12.75-4.42-19.17a4.54,4.54,0,0,0-4.33-3.58H15.08v-6.5Zm96.84,44.25V57.94h.67c6.17,0,12.42,0,18.58.08,3.17,0,5.83,1.08,7.58,3.92a9.28,9.28,0,0,1,1.42,4.67c.08,2.67,0,5.33-.08,8.08a6.6,6.6,0,0,1-1.25,3.5c.08.08.17.17.25.17a7.42,7.42,0,0,1,4.25,6.17,49.3,49.3,0,0,1,0,9.92c-.5,4.67-3.5,7.25-8.25,7.58-.17,0-.33.08-.5.08Zm6.42-6.5c.17,0,.25.08.42.08h14c2.83,0,4.25-1.67,4.33-4.42V88.11c0-2.92-1.42-4.42-4.33-4.75H118.25Zm0-18.75h10.5c.42,0,.92-.08,1.33-.08a3.93,3.93,0,0,0,3.58-4,29.42,29.42,0,0,0,0-3.83,7.39,7.39,0,0,0-.58-2.33,4.09,4.09,0,0,0-3.83-2.17c-3.42-.08-6.92-.08-10.42-.08-.58,0-.67.17-.67.67V76.19A2.07,2.07,0,0,0,118.25,76.86ZM213,102.11c-1.17-.17-2.25-.33-3.42-.58a8.2,8.2,0,0,1-6.25-7.83,17.42,17.42,0,0,1-.08-2.08V68.69a15.13,15.13,0,0,1,.92-5.75,8.28,8.28,0,0,1,8.08-5c6.42-.08,12.92,0,19.33,0h.33v6.42H215.67a12.72,12.72,0,0,0-2.5.25,3.91,3.91,0,0,0-3.42,3.67c-.08,1.25-.08,2.5-.08,3.75v4.75h18.83v6.42H209.84c-.08.08-.08.08-.08.17,0,2.67-.08,5.42.08,8.08a4.15,4.15,0,0,0,4,4.17,11.17,11.17,0,0,0,1.67.08H232v5.83c0,.25-.08.42-.08.67Zm-124.92,0-1.83-.25c-3.67-.58-6.42-2.33-7.42-6.08a14.6,14.6,0,0,1-.42-3.33V67.86a10.89,10.89,0,0,1,1.92-6.58,8.76,8.76,0,0,1,7.17-3.42c6.33-.08,12.75,0,19.08,0H107v6.5H90.84a12.31,12.31,0,0,0-1.75.08c-2.58.33-4.08,1.67-4.17,4.33-.08,2.5,0,4.92-.08,7.42v.67h18.83v6.42H84.84v7.33a4.61,4.61,0,0,0,.17,1.5,3.81,3.81,0,0,0,3.08,3.17,11.11,11.11,0,0,0,2.33.25H107V102Zm58.67,0a.75.75,0,0,1-.08-.42V95.86a.63.63,0,0,1,.08-.33h15.92a11.72,11.72,0,0,0,2.33-.25,3.3,3.3,0,0,0,3-3.08,48.06,48.06,0,0,0,.08-6c-.17-2-1.58-3.17-3.83-3.25-2.83-.08-5.67-.08-8.5-.08a10.08,10.08,0,0,1-4.42-1,8.73,8.73,0,0,1-5.25-8.17c0-2.5-.08-5,.08-7.5a8.69,8.69,0,0,1,8.5-8.42h17.92v6.42h-14a14.44,14.44,0,0,0-2.67.25c-2.08.33-3.17,1.42-3.25,3.5a22.63,22.63,0,0,0,0,4.75,4,4,0,0,0,4,3.75c2.17.08,4.25,0,6.42,0a15.3,15.3,0,0,1,5.83.92c2.92,1.17,5,3.08,5.67,6.25a6.36,6.36,0,0,1,.17,2.17v7.17a8.53,8.53,0,0,1-7.75,8.83l-1.75.25Zm89.92,0V76.86h17.08a7.15,7.15,0,0,0,1.92-.17c1.83-.33,2.67-1.17,2.75-3s.08-3.58,0-5.42c-.08-2.08-1.75-3.58-4.08-3.83a7.62,7.62,0,0,0-1.42-.08H236.67V57.94h18.83a9.49,9.49,0,0,1,7.25,2.92,7.1,7.1,0,0,1,2.08,4.67,76.13,76.13,0,0,1,0,9.75c-.42,5.08-3.75,8.08-8.83,8.17-4,.08-8.08,0-12.08.08h-.83v18c0,.25-.08.5-.08.75Zm-51.25,0a2.83,2.83,0,0,1-.08-.83V64.36h-9.75V57.94h25.92v6.42h-9.67v37c0,.25-.08.58-.08.83Z"/></svg>